<?xml version="1.0" encoding="utf-8"?>
<!-- Generator: Adobe Illustrator 22.0.0, SVG Export Plug-In . SVG Version: 6.00 Build 0)  -->
<svg version="1.1" id="Layer_1" xmlns="http://www.w3.org/2000/svg" xmlns:xlink="http://www.w3.org/1999/xlink" x="0px" y="0px"
	 viewBox="0 0 400 400" style="enable-background:new 0 0 400 400;" xml:space="preserve">
<style type="text/css">
	.st0{clip-path:url(#SVGID_2_);}
	.st1{fill:#F9C216;}
	.st2{fill:#B99214;}
	.st3{fill:#6ACAE4;}
	.st4{fill:#7BD8E8;}
	.st5{fill:#8FE8ED;}
	.st6{fill:#5BBDE0;}
	.st7{fill:#E5F4FB;}
	.st8{fill:#3AA4D8;}
	.st9{fill:#359FD7;}
	.st10{fill:#2B98D4;}
	.st11{fill:#E0F1F9;}
	.st12{fill:#8EE7EC;}
	.st13{fill:#7FDBE9;}
	.st14{fill:#2E9BD5;}
	.st15{fill:#2A96D4;}
	.st16{fill:#9CF2F1;}
	.st17{fill:#CCE9F5;}
	.st18{fill:#85DFEA;}
	.st19{fill:#82DDEA;}
	.st20{fill:#76D3E7;}
	.st21{fill:#7AD6E8;}
	.st22{fill:#F8C215;}
	.st23{fill:#875E03;}
	.st24{fill:#C49A16;}
	.st25{fill:#FAC419;}
	.st26{fill:#70CEE6;}
	.st27{fill:#F9CC33;}
	.st28{fill:#F8C61D;}
	.st29{fill:#6CCCE4;}
	.st30{fill:#B78701;}
	.st31{fill:#F7B600;}
	.st32{fill:#61C6E2;}
	.st33{fill:#996A01;}
	.st34{fill:#E69901;}
	.st35{fill:#80DCEA;}
	.st36{fill:#F8D04D;}
	.st37{fill:#FED752;}
	.st38{fill:#F9C829;}
	.st39{fill:#3FA8D9;}
	.st40{fill:#349FD7;}
	.st41{fill:#F9C318;}
	.st42{fill:#79D6E8;}
	.st43{fill:#5FC2E1;}
	.st44{fill:#72D1E6;}
	.st45{fill:#3EA7D9;}
	.st46{fill:#47AFDB;}
	.st47{fill:#6CCBE4;}
	.st48{fill:#64C6E2;}
	.st49{fill:#4CB2DC;}
	.st50{fill:#67C9E4;}
	.st51{fill:#56C0E0;}
	.st52{fill:#50B6DE;}
	.st53{fill:#54BDDF;}
	.st54{fill:#4BB4DD;}
	.st55{fill:#49AFDB;}
	.st56{fill:#3EAFDC;}
	.st57{fill:#67C7E3;}
	.st58{fill:#60C2E1;}
	.st59{fill:#61C2E2;}
	.st60{fill:#68C8E4;}
	.st61{fill:#5ABDE0;}
	.st62{fill:#36ABDA;}
	.st63{fill:#59BCE0;}
	.st64{fill:#56B9DF;}
	.st65{fill:#55B8DF;}
	.st66{fill:#5EBFE1;}
	.st67{fill:#5FC0E1;}
	.st68{fill:#51B6DE;}
	.st69{fill:#4EB3DD;}
	.st70{fill:#4FB4DD;}
	.st71{fill:#4AB0DC;}
	.st72{fill:#49B0DB;}
	.st73{fill:#42ABDA;}
	.st74{fill:#47AEDB;}
	.st75{fill:#49B0DC;}
	.st76{fill:#4FB3DD;}
	.st77{fill:#41AADA;}
	.st78{fill:#FCFFFD;}
	.st79{fill:#FBFEFF;}
	.st80{fill:#FAFFFC;}
	.st81{fill:#FCFEFE;}
	.st82{fill:#EBFAFC;}
	.st83{fill:#FEFEFC;}
	.st84{fill:#FBFFFF;}
	.st85{fill:#42AADA;}
	.st86{fill:#97CFE3;}
	.st87{fill:#5CB4D9;}
	.st88{fill:#62A9C5;}
	.st89{fill:#A7D4E1;}
	.st90{fill:#9DD0DF;}
	.st91{fill:#50B4DD;}
	.st92{fill:#51B4DE;}
	.st93{fill:#DEF6FC;}
</style>
<g>
	<g>
		<defs>
			<rect id="SVGID_1_" x="92.1" y="93.9" width="219.9" height="156.6"/>
		</defs>
		<clipPath id="SVGID_2_">
			<use xlink:href="#SVGID_1_"  style="overflow:visible;"/>
		</clipPath>
		<g class="st0">
			<g>
				<path class="st1" d="M197.7,94.7c0.6-1.9,2.4-3.2,4.3-3.5c-1.3,0.7-2.7,1.6-3.1,3.1c-0.9,2.6,1.4,5.6,4.2,5.5
					c2.1,0,3.8-1.7,4.2-3.7c0.1,2.6-2.1,4.9-4.7,4.9c0,0.8-0.1,1.7,0.5,2.2c0.7,0.8-0.1,1.8-0.6,2.5c0.6,0.8,0.5,1.8,0,2.6
					c0.9,0.7,1.3,2.3,0.1,2.9c-0.5,0-1,0-1.5,0.1c-0.2-0.4-0.7-0.8-0.7-1.3c-0.1-0.7,0.6-1.2,0.8-1.8c-0.2-0.7-0.6-1.4-0.1-2
					c0.6-0.8-0.8-1.4-0.6-2.2c0-0.6,0.5-0.9,0.7-1.4c0.1-0.5,0-1.1,0-1.6C198.6,100.4,196.8,97.4,197.7,94.7z"/>
			</g>
			<g>
				<path class="st2" d="M201.1,111.4c0.5-0.1,1-0.1,1.5-0.1c1.8,0.6,3.6,1.3,5.3,2c1.1,0.5,2.3,0.9,3.1,1.8
					c-1.4-0.6-2.8-1.2-4.2-1.4c0.5,0.6,0.9,1.3,1.4,1.9c-0.6-0.3-1.2-0.6-1.8-0.9c-0.6-0.3-1.3-0.5-1.9-0.7c-0.2,0.5-0.3,1-0.4,1.5
					c-0.7-0.5-1.4-1.1-2.1-1.6c-0.8,0.5-1.5,1-2.2,1.6c-0.2-0.5-0.3-1.1-0.5-1.6c-1.2,0.4-2.3,1-3.4,1.6l-0.1-0.1
					c0.5-0.6,0.9-1.2,1.3-1.8c-1.5,0.3-3,0.8-4.4,1.5c1-1,2.4-1.4,3.6-2C197.9,112.5,199.5,111.9,201.1,111.4z"/>
			</g>
			<g>
				<path class="st3" d="M192.7,115.2c1.4-0.7,2.8-1.2,4.4-1.5c-0.4,0.6-0.9,1.2-1.3,1.8l0.1,0.1c0.9,0.7,1.6,1.6,2.3,2.4
					c8.8,8.8,17.6,17.6,26.3,26.3c1.5,1.4,3,2.8,4.1,4.6c-1.9,0.8-3.8,1.7-5.7,2.6c0.1-0.4,0.3-0.7,0.4-1.1
					c-10-10-19.9-19.9-29.9-29.9c-0.9-0.9-1.8-1.8-3-2.4c0-0.3-0.1-0.6-0.1-0.9c-0.3-0.1-0.7-0.2-1-0.2
					C190.4,116.3,191.6,115.7,192.7,115.2z"/>
			</g>
			<g>
				<path class="st4" d="M195.8,115.5c1.1-0.6,2.2-1.2,3.4-1.6c0.2,0.5,0.3,1.1,0.5,1.6c0.7-0.6,1.5-1.1,2.2-1.6
					c0.7,0.5,1.4,1,2.1,1.6c0.1-0.5,0.3-1,0.4-1.5c0.6,0.2,1.3,0.4,1.9,0.7c0,0.4,0.1,0.8,0.1,1.1c0.9,0.7,1.8,1.4,2.6,2.3
					c9.3,9.4,18.7,18.6,28,28.1c-2.9,0.7-5.8,1.7-8.6,2.8c-1.1-1.8-2.6-3.2-4.1-4.6c-8.8-8.8-17.6-17.6-26.3-26.3
					C197.4,117.1,196.7,116.2,195.8,115.5z"/>
			</g>
			<g>
				<path class="st5" d="M206.8,113.7c1.5,0.2,2.9,0.8,4.2,1.4c7.9,3.9,14.9,9.6,20.3,16.5c3.4,4.2,6,8.9,8.2,13.7
					c-0.7,0.5-1.6,0.6-2.4,0.7c-9.3-9.4-18.7-18.7-28-28.1c-0.8-0.8-1.7-1.6-2.6-2.3c0-0.4-0.1-0.8-0.1-1.1c0.6,0.3,1.2,0.6,1.8,0.9
					C207.8,114.9,207.3,114.3,206.8,113.7z"/>
				<path class="st5" d="M119.9,165.3c0.7,0,1.3-0.1,2-0.1c-0.5,2.6-0.9,5.1-1.1,7.7c0,2.7-0.7,5.4-1.3,8c-0.4,1.4,0.8,2.6,0.5,4
					c-0.5,2.2-0.5,4.5-1.3,6.6c-0.4,1.5-0.3,3-0.9,4.4c-2,0.1-4,0.1-6.1,0.1c-1.5,0-3-0.6-4.5-0.3c-1.2,1.5-0.9,3.7-2,5.2
					c-1.2,0.2-2.4,0.1-3.7,0.2c-0.1,0.3-0.3,0.6-0.4,0.9c-1.2-2,0-4.2,0-6.3c-2.7-0.2-5.4,0.2-8-0.3c0.5,1.8,1.7,3.3,2.1,5.2
					c-1.5,0-3,0.4-4.4,0.3c-1-0.6-1.4-2.3-2.8-2.1c-3.6,0.3-7.3-0.1-10.9,0.3c-1.1,0.1-1.9,1-2.9,1.3c-1.4,0.1-2.8-0.1-4.1-0.1
					c-0.7,0-1-0.7-1.5-1.1c-1.8-0.1-3.6,0.4-5.4,0.3c4-6.5,9-12.4,14.8-17.3c1.6,0.3,2.4,1.9,3,3.3c1.7,0.1,3.5,0.3,5.2-0.2
					c-0.4-1.7-1.7-2.9-2.2-4.6c1.7-0.1,3.4-0.7,5.1-0.1c3.8,1.1,7.6-0.5,11.4,0.1c2.3,2.3,5.8,2.2,8.7,3.4c1.3,0.6,2.7,0.7,4,1
					c1,0.2,2,1.2,2.9,0.4c0.1,0.1,0.3,0.2,0.4,0.3c0.1-1.1,0.4-2.1,0.7-3.1c0.4-0.9-0.7-1.2-1.2-1.7c0.3-0.6,0.7-1.1,1-1.6
					c-0.5-1.5,1-2.7,0.9-4.1c-0.2-1.3,0.1-2.6,0.2-4C118.4,169.4,118.6,167.1,119.9,165.3z"/>
				<path class="st5" d="M281.6,165.2c0.3,0,0.8,0,1.1,0c0.5,0,0.9,0.1,1.4,0.1c1.4,1.6,0.7,3.9,1.2,5.8c0.3,1.9-0.3,3.9,0.5,5.7
					c0.6,1.4,0.1,2.9,0.3,4.3c0,1,0.7,1.6,1.1,2.5c0.1,1-1.2,1.5-0.9,2.5c0.3,1.3,0.7,2.7,1.8,3.5c0.3-0.2,0.6-0.4,1-0.6
					c4-1.5,7.9-3.4,12.1-4.4c0.8-0.1,1.6,0.5,2.5,0.4c1.5-0.1,3,0.2,4.5-0.2c0.7-0.3,1.5,0.2,2.1,0.4c1.8,0.9,4,0.4,5.9,1.2
					c1.8,0.8,3.8,0.9,5.6,1.6c1,0.3,1.5,1.3,2.1,2c0.1-0.1,0.3-0.2,0.4-0.2c1.3,0.7,2.8,0.4,4.3,0.4c0-1.9-1.8-3.2-1.7-5.1
					c0.4-0.1,0.8-0.2,1.2-0.3c-0.2,0.3-0.3,0.5-0.5,0.8c1.2,0.7,2.4,1.2,3.6,1.8c4.4,4.4,8.1,9.5,11.1,15c-0.4-0.1-0.8-0.2-1.2-0.4
					c-0.1-0.3-0.2-0.6-0.3-0.9c-0.7,0.1-1.5,0.2-2.2,0.5c-0.4,0.7-0.6,1.4-0.8,2.1c-0.3,1,0.4,2,0.8,2.9c-2.1,0.1-4.2,0.1-6.3,0
					c0.2-2.6-1.7-4.6-3.1-6.7c-4.6-0.3-9.3,0.3-13.9-0.4c-1.1-0.1-2.2,0.3-3.4,0.1c-2.8-0.4-5.6,0-8.5-0.2c-1.2-0.1-2.4-0.4-3.6-0.4
					c-1.7,0-3.3,0.6-5,0.4c-2.8-0.2-5.7-1.2-8.5-0.3c-0.6,1.2-0.9,2.5-1.2,3.8c-0.3,1-0.4,2.2-1.5,2.6c-0.3-0.6-0.4-1.2-0.3-1.9
					c0-1.9-0.1-3.9-0.1-5.8c0.7-4,0.1-8.1,0.5-12.1c0.1-1.3-0.1-2.6-0.2-3.8c-0.4-2.7,0.1-5.4-0.6-8
					C282.6,171.3,282.3,168.2,281.6,165.2z"/>
			</g>
			<g>
				<path class="st6" d="M183.7,120.7c1.8-1.3,3.7-2.7,5.7-3.7c0.3,0.1,0.7,0.1,1,0.2c0,0.3,0.1,0.6,0.1,0.9c1.2,0.5,2.2,1.4,3,2.4
					c10,10,19.9,19.9,29.9,29.9c-0.2,0.4-0.3,0.7-0.4,1.1c-1.8,1-3.6,2.1-5.4,3.2c-0.5-1.3-1.3-2.4-2.7-2.9
					c-0.5-0.9-0.9-1.9-1.9-2.4c-1.4-0.6-1.5-2.3-2.9-2.9c-1.4-0.5-1.5-2.3-2.9-2.9c-0.7-0.3-1.2-1-1.6-1.7c-0.5-1.2-2.1-1.2-2.6-2.4
					c-0.4-1.1-1.5-1.6-2.4-2.2c-0.6-0.8-1-1.9-2-2.3c-1.4-0.4-1.4-2.2-2.7-2.7c-0.8-0.4-1.4-1-1.8-1.8c-0.5-1.1-2.1-1.2-2.6-2.4
					c-0.4-0.8-1-1.4-1.8-1.8c-1.2-0.6-1.4-2.2-2.6-2.7c-1.1-0.5-1.6-1.6-2.3-2.5c-0.2,0.1-0.4,0.2-0.7,0.3
					C184.1,121.2,183.8,120.9,183.7,120.7z"/>
				<path class="st6" d="M190.9,216.9c3.2,0.6,6.5,0.8,9.7,0.8c1.6,0,3.2-0.1,4.8,0.1c-0.8,0.3-1.7,0.3-2.6,0.4
					c0.2,0.1,0.7,0.3,1,0.3c0,2.3-0.5,4.6-0.4,6.9c-0.4,0.1-0.9,0.2-1.3,0.3c0.7,0.2,1.4,0.6,2,1c-0.1,0.2-0.3,0.4-0.4,0.6
					c0.7,0.1,1.4,0.2,2.1,0.3c-5.2,0.5-10.5,0-15.7-1c-0.2-0.9-0.5-1.9-0.3-2.8c0.3-1.5,0.2-3,0.2-4.6
					C189.8,218.2,190.5,217.5,190.9,216.9z"/>
			</g>
			<g>
				<path class="st7" d="M262.9,124.2c0.2-0.1,0.6-0.3,0.7-0.5c2,2.6,4.4,5,6.3,7.8c4.3,6.3,7.9,13,10.6,20.2
					c1.7,4.5,2.7,9.1,3.8,13.7l-0.2,0c-0.5,0-1-0.1-1.4-0.1c-0.7-0.3-1.9-0.2-2-1.1c-0.5-2.6-1.4-5.1-2-7.7
					c-0.4-1.6-1.3-3.1-1.7-4.7c-0.1-0.6-0.5-1.1-1-1.5c-0.3-0.6-0.5-1.3-0.7-1.9c-1.7-5.6-4.1-10.9-6.9-15.9
					C266.7,129.5,264.8,126.8,262.9,124.2z"/>
			</g>
			<g>
				<path class="st8" d="M170.1,134.8c2.4-3.5,5.2-6.7,8.3-9.7c1.5,0.5,2.5,1.8,3.6,2.9c9,9,17.9,17.9,26.9,26.9
					c1.1,1.2,2.3,2.5,3.6,3.4c-4,3.2-7.5,6.9-10.6,10.9l-0.1,0.1c-1.5-2-3.1-3.8-4.8-5.6c0.4-0.5,0.9-0.9,1.1-1.5
					c-0.9-0.8-1.8-1.6-2.3-2.8c-0.2,0.1-0.3,0.3-0.4,0.4c-0.3-0.4-0.5-0.9-0.9-1.2c-1.4-1.1-2.5-2.5-3.8-3.8
					c-6.2-6.1-12.3-12.3-18.4-18.4C171.7,135.7,171,135.1,170.1,134.8z"/>
			</g>
			<g>
				<path class="st9" d="M242.3,128.1c4,3.6,7.2,8,9.9,12.5c7.1,12.2,9.4,27,6.6,40.8c-2.2,10.6-7.4,20.5-14.9,28.3
					c-0.9-1-0.5-2.4-0.7-3.6c-0.2-2.2,0.5-4.5,0.1-6.7c1.3-1.5,2.5-3,3.6-4.7c7.2-10.4,10.6-23.4,9.2-35.9
					c-0.8-7.9-3.4-15.7-7.6-22.5c-0.8-1.3-1.6-2.7-2.8-3.8C244.5,131.2,243.5,129.5,242.3,128.1z"/>
			</g>
			<g>
				<path class="st10" d="M160.8,128.8c-0.2,0.5-0.5,0.9-0.8,1.3c-6.3,9.1-9.6,20.3-9,31.4c0.6,15,8.3,29.4,20.3,38.4
					c-0.1,0.2-0.1,0.6-0.2,0.8c0.4,0.2,0.9,0.5,1.3,0.7c-0.4,0.1-0.7,0.3-1.1,0.4c-0.3,2.2,0.3,4.5-0.5,6.7
					c-0.5-0.3-0.9-0.6-1.4-0.9c-2.4-1.7-4.6-3.8-6.8-5.8c-2.1-2.2-3.9-4.5-5.7-6.9c-5.7-8.4-9.1-18.3-9.4-28.5
					c-0.5-11.1,2.7-22.4,8.8-31.7c0.5-0.7,1-1.5,1.4-2.3C158.6,131.1,159.7,129.9,160.8,128.8z"/>
			</g>
			<g>
				<path class="st11" d="M135.2,130.7c0.3,0,0.7,0.1,1,0.1c-1,2.2-2.3,4.3-3.4,6.4c-3.2,6.7-5.5,13.9-6.7,21.3
					c-0.6,2.7-0.6,5.5-1,8.3c0-0.6,0-1.1,0-1.7c-1,0-2.1,0-3.1,0.1c-0.7,0-1.3,0.1-2,0.1l-0.2,0c0.5-1,0.7-2.1,1-3.3
					c0.5-2.5,1.5-4.9,2.1-7.3c1.3-3.9,2.9-7.7,4.6-11.4c1.1-2.1,2.3-4.2,3.5-6.3C132.3,135,133.7,132.8,135.2,130.7z"/>
			</g>
			<g>
				<path class="st12" d="M156.7,133.2c0.3-0.4,0.6-0.8,1.1-0.8c-0.4,0.8-0.9,1.6-1.4,2.3c-6.2,9.3-9.3,20.5-8.8,31.7
					c0.3,10.2,3.7,20.1,9.4,28.5c0.4,1.4,0.5,2.8,0.1,4.2c-0.5,1.4,0.5,3.5-1.2,4.2c0.6,0.6,1.1,1.3,1.6,2c-0.2,0.3-0.4,0.5-0.6,0.8
					c-11-13.4-15.3-31.8-11.6-48.7C147,148.6,151,140.3,156.7,133.2z"/>
			</g>
			<g>
				<path class="st13" d="M245.7,132.7c1.2,1,1.9,2.4,2.8,3.8c4.1,6.8,6.8,14.5,7.6,22.5c1.4,12.6-2,25.6-9.2,35.9
					c-0.3,0-0.6,0.1-1,0.1c0.1-2.5-0.7-5.1,0.3-7.6c0.3-0.7-0.4-1.1-0.7-1.5c3.3-5.5,5.7-11.6,6.7-17.9c2-11.4,0-23.5-5.8-33.6
					C246.1,133.8,245.9,133.2,245.7,132.7z"/>
			</g>
			<g>
				<path class="st14" d="M164.3,145.6c1.5-3.8,3.6-7.4,5.9-10.8c0.8,0.4,1.6,0.9,2.1,1.6c6.2,6.1,12.3,12.3,18.4,18.4
					c1.2,1.3,2.4,2.6,3.8,3.8c0.4,0.3,0.7,0.8,0.9,1.2c0.1-0.1,0.3-0.3,0.4-0.4c0.5,1.2,1.4,1.9,2.3,2.8c-0.2,0.6-0.7,1-1.1,1.5
					C188.3,154.5,176.7,148.1,164.3,145.6z"/>
			</g>
			<g>
				<path class="st15" d="M155.8,149.6c12.4,0.3,24.6,4.7,34.4,12.2c3.8,2.8,7,6.1,10.2,9.6c0,0-0.1,0.1-0.1,0.1
					c-6.5,9.5-10.5,20.7-11.1,32.2c-7-1.9-13.4-5.5-18.8-10.4c-8.6-7.8-14.2-18.8-15.2-30.3C154.7,158.5,155,154,155.8,149.6z"/>
			</g>
			<g>
				<path class="st16" d="M236.2,151.2c3.9-0.9,7.9-1.6,11.9-1.4c1.5,8.5,0.9,17.4-2.2,25.4c-5.1,13.7-17,24.8-31.2,28.6
					c-0.8-11.4-4.5-22.8-11.2-32.1l0.1-0.1C211.8,161.3,223.5,154.1,236.2,151.2z"/>
				<path class="st16" d="M78.1,182.4c11.6-9.9,26.4-16,41.6-17l0.2,0c-1.3,1.7-1.5,4.1-1.6,6.2c-0.2,1.3-0.4,2.6-0.2,4
					c0.2,1.5-1.3,2.7-0.9,4.1c-0.3,0.5-0.7,1.1-1,1.6c0.5,0.5,1.6,0.8,1.2,1.7c-0.4,1-0.6,2-0.7,3.1c-0.2-0.1-0.3-0.2-0.4-0.3
					c-1,0.8-2-0.2-2.9-0.4c-1.3-0.3-2.7-0.5-4-1c-2.9-1.2-6.3-1.1-8.7-3.4c-3.8-0.5-7.7,1-11.4-0.1c-1.7-0.6-3.4,0-5.1,0.1
					c0.4,1.7,1.7,2.9,2.2,4.6c-1.7,0.6-3.4,0.4-5.2,0.2C80.5,184.3,79.8,182.7,78.1,182.4z"/>
				<path class="st16" d="M284.1,165.3l0.2,0c17.6,1.3,34.7,9.3,46.7,22.2c-1.2-0.6-2.5-1.1-3.6-1.8c0.2-0.3,0.3-0.5,0.5-0.8
					c-0.4,0.1-0.8,0.2-1.2,0.3c-0.1,1.9,1.7,3.2,1.7,5.1c-1.4,0.1-2.9,0.3-4.3-0.4c-0.1,0.1-0.3,0.2-0.4,0.2c-0.6-0.8-1.1-1.7-2.1-2
					c-1.8-0.7-3.8-0.8-5.6-1.6c-1.9-0.9-4-0.4-5.9-1.2c-0.7-0.3-1.4-0.7-2.1-0.4c-1.5,0.5-3,0.1-4.5,0.2c-0.9,0.1-1.6-0.5-2.5-0.4
					c-4.2,0.9-8.1,2.9-12.1,4.4c-0.3,0.2-0.7,0.4-1,0.6c-1.2-0.8-1.5-2.2-1.8-3.5c-0.2-1,1-1.6,0.9-2.5c-0.4-0.8-1.1-1.5-1.1-2.5
					c-0.2-1.4,0.3-3-0.3-4.3c-0.7-1.8-0.1-3.8-0.5-5.7C284.9,169.2,285.5,166.9,284.1,165.3z"/>
			</g>
			<g>
				<path class="st17" d="M276,150.2c0.5,0.4,0.9,0.9,1,1.5c0.4,1.6,1.3,3.1,1.7,4.7c0.7,2.6,1.5,5.1,2,7.7c0.1,0.9,1.3,0.8,2,1.1
					c-0.3,0-0.8,0-1.1,0c-1,0-2,0-3,0C278.2,160.1,277.3,155.1,276,150.2z"/>
			</g>
			<g>
				<path class="st18" d="M121.9,165.2c1-0.1,2.1-0.1,3.1-0.1c0,0.6,0,1.1,0,1.7c-0.2,2.2-0.1,4.3-0.2,6.5c-0.5-1.8-0.1-3.7-0.4-5.6
					c-0.7,3.3-0.6,6.8-1.4,10.1c-0.3,1.5-0.9,3.1-0.6,4.7c0.4,1.9-0.1,3.8-0.2,5.7c-0.7,2.5-1.2,5-1.1,7.5c0.1,2.1-0.2,4.3,0.3,6.4
					c0.4,1.5-0.5,3,0.1,4.5c0.4,0.9,0.4,1.9,0.1,2.9c-5.1-0.4-10.2-0.1-15.4-0.2c-1,0-2.3-0.2-2.7,0.9c-0.4,1.1-1.2,2.3-0.5,3.4
					c0.7,1.1,1.3,2.3,1.7,3.5c-2.7,0-5.4,0.1-8.1,0c0.2-1.3,0.6-2.5,0.6-3.8c-0.4-1.5-1.6-2.7-2.3-4.2c-0.9-2.1-2.3-3.9-3.7-5.6
					c-0.4-0.5-1.1-0.5-1.6-0.5c-2.9-0.1-5.9-0.1-8.8,0c-2.2,0.2-4.3-1.5-6.5-0.8c-2.1,1.6-3.4,4-5.4,5.6c-0.7,0.6-1.2,1.2-1.7,1.9
					c-1.9-0.4-3.8-0.3-5.7-0.4c1.2-2.6,3.6-4.4,4.7-7.1c-1.1,0.2-2.2,0.3-3.3,0.4c-0.2-0.2-0.3-0.5-0.4-0.7c-0.3,0.5-0.7,0.8-1.2,1
					c0.6-1.1,1.2-2.3,1.9-3.3c1.8,0.1,3.6-0.4,5.4-0.3c0.5,0.4,0.8,1.1,1.5,1.1c1.4,0,2.8,0.2,4.1,0.1c1-0.4,1.8-1.2,2.9-1.3
					c3.6-0.4,7.2-0.1,10.9-0.3c1.4-0.3,1.8,1.5,2.8,2.1c1.5,0.1,3-0.2,4.4-0.3c-0.4-1.8-1.6-3.4-2.1-5.2c2.6,0.5,5.3,0.1,8,0.3
					c0,2.1-1.2,4.3,0,6.3c0.1-0.3,0.3-0.6,0.4-0.9c1.2-0.1,2.4,0,3.7-0.2c1.1-1.5,0.8-3.7,2-5.2c1.5-0.4,3,0.3,4.5,0.3
					c2,0,4,0,6.1-0.1c0.6-1.4,0.5-3,0.9-4.4c0.7-2.1,0.8-4.4,1.3-6.6c0.3-1.4-0.9-2.7-0.5-4c0.6-2.7,1.3-5.3,1.3-8
					C121,170.3,121.4,167.8,121.9,165.2z"/>
			</g>
			<g>
				<path class="st19" d="M278.6,165.2c1,0,2,0,3,0c0.7,3,1,6.1,1.3,9.1c0.7,2.6,0.2,5.4,0.6,8c0.2,1.3,0.3,2.5,0.2,3.8
					c-0.4,4,0.2,8.1-0.5,12.1c0,1.9,0,3.9,0.1,5.8c-0.1,0.7,0,1.3,0.3,1.9c1-0.4,1.2-1.7,1.5-2.6c0.3-1.3,0.6-2.6,1.2-3.8
					c2.8-0.9,5.7,0.1,8.5,0.3c1.7,0.2,3.3-0.4,5-0.4c1.2,0,2.4,0.3,3.6,0.4c2.8,0.2,5.6-0.2,8.5,0.2c1.1,0.2,2.2-0.2,3.4-0.1
					c4.6,0.7,9.2,0.1,13.9,0.4c1.3,2,3.3,4,3.1,6.7c2.1,0.1,4.2,0.1,6.3,0c-0.4-0.9-1.1-1.9-0.8-2.9c0.2-0.7,0.4-1.5,0.8-2.1
					c0.7-0.3,1.5-0.4,2.2-0.5c0.1,0.3,0.2,0.6,0.3,0.9c0.4,0.1,0.8,0.2,1.2,0.4c3.8,6.8,6.4,14.2,7.8,21.8c-2.2-0.6-4.5,0-6.8-0.3
					c-1-1-1.8-2-2.9-2.8c-0.2,0.3-0.4,0.7-0.6,1c-1.3-1.3-3.1,0-4.7-0.7c-0.5,0.2-0.9,0.3-1.4,0.5c-1.7,0-3.4,0-5.1-0.1
					c0.2-2.3,0.8-4.6,1.1-6.9c-2,0.4-4.1-0.3-6.1-0.2c-4.3,0.1-8.6,0-12.9,0c-2,0.1-4.1-0.5-6.1-0.4c-3.5,0.2-7-0.3-10.4,0.3
					c-1.5,0.3-3.1-0.2-4.6,0.1c0.7,2.3,2.3,4.1,2.9,6.4c-1.2-0.1-2.4-0.3-3.6-0.2c-0.5,0-1.2,0.2-1.5-0.4c-1.7-2.1-3-4.5-4.4-6.9
					c-0.4,2-1.1,3.8-1.6,5.8c-0.2,0.7-0.7,1.4-1.5,1.4c-1.1,0-2.9,0.4-3.1-1.1c0.2-1.1,0.9-2.2,0.8-3.4c-0.4-2.9,0.9-5.6,1.6-8.4
					c0.3-2.2,0.8-4.4,1-6.6c1.1-3.4,1.7-7,1.6-10.6c-0.2-5-1.3-10-1.1-15.1c-0.1-2.7-1-5.4-0.6-8.1c-0.4-0.3-0.7-0.6-1.1-0.8
					C278.7,166.2,278.7,165.7,278.6,165.2z"/>
			</g>
			<g>
				<path class="st20" d="M278.8,166.7c0.4,0.3,0.7,0.6,1.1,0.8c-0.3,2.7,0.6,5.4,0.6,8.1c-0.2,5,1,10,1.1,15.1
					c0.1,3.6-0.4,7.2-1.6,10.6c-0.3,2.2-0.7,4.4-1,6.6c-0.6,2.8-1.9,5.5-1.6,8.4c0.2,1.2-0.6,2.2-0.8,3.4c0.1,1.5,2,1.2,3.1,1.1
					c0.8,0,1.3-0.7,1.5-1.4c0.5-1.9,1.2-3.8,1.6-5.8c1.3,2.4,2.7,4.7,4.4,6.9c0.3,0.5,1,0.3,1.5,0.4c1.2-0.1,2.4,0.2,3.6,0.2
					c-0.6-2.3-2.2-4.2-2.9-6.4c1.5-0.2,3.1,0.2,4.6-0.1c3.4-0.6,6.9-0.1,10.4-0.3c2-0.1,4.1,0.5,6.1,0.4c4.3-0.1,8.6,0,12.9,0
					c2-0.1,4.1,0.6,6.1,0.2c-0.3,2.3-0.8,4.6-1.1,6.9c1.7,0.1,3.4,0.1,5.1,0.1c-0.3,1.3-0.3,2.8-1.2,3.8c-1.5,1-3.4,1.3-5,2.2
					c-2.3,1.4-4.9,2.2-7.4,3.3c0,0.3,0,0.6,0,1c-4.1,0.1-8.2,0-12.3,0.1c-1.1,0.1-2-0.7-3-0.8c-2-0.3-4-0.9-6-0.8
					c-3,0.2-6,0.3-8.9-0.1c-3.8-0.4-7.7,0.2-11.5-0.4c-1.6-0.3-3.3,0.1-4.9,0.1c1.5,1.2,2.9,2.5,4.2,3.8c-0.2,2.3-0.9,4.6-1.9,6.7
					c-0.1-0.3-0.3-0.6-0.4-0.9c-0.1,0.2-0.3,0.7-0.4,0.9c-1.4,0.1-2.8-0.1-4.1,0.6c0-0.4,0-0.9,0-1.3c0.5-1.4,0.9-2.8,1-4.2
					c-0.2-0.7-1-1.1-1.5-1.6c-1.4-1-2.5-2.2-3.7-3.5c0.5-0.9,0.9-1.9,1.4-2.8c0.6-1.3,2.8,0.5,3.1-1.2c-0.8-0.2-1.6-0.3-2.4-0.5
					c1.1-1.2,1.4-2.8,2-4.3c0.6-0.4,1.4-0.5,1.9-0.9c0.7-1.8,0.9-3.8,1.5-5.7c0.4-1.2,0.2-2.5,0.7-3.6c1-2.2,0.7-4.7,1.3-7
					c0.5-1.7-0.5-3.3-0.4-5c-0.1-1.7,0.2-3.3,0.7-4.9c0.3-0.7-0.4-1.2-0.9-1.6C278.1,184.9,279.2,175.8,278.8,166.7z"/>
			</g>
			<g>
				<path class="st21" d="M123.1,177.8c0.8-3.3,0.7-6.8,1.4-10.1c0.3,1.9,0,3.8,0.4,5.6c0.1,1.3,0.2,2.7,0.3,4
					c-0.4,0.4-1.1,0.8-1,1.5c0,1-0.4,2-0.5,3c0.4,1.5,0.5,3.1,0.4,4.6c-0.1,1.6-1.1,3.1-0.9,4.8c0.2,1.6-0.3,3.2,0,4.7
					c0.3,1.7,0,3.5,0.6,5.1c0.4,1.1-0.6,2.1-0.3,3.2c0.4,1.6,1.2,3.1,1.3,4.8c0.1,1.8,0.8,3.6,0.8,5.4c0,1.2,0.3,2.3,0.3,3.5
					c-1.6,0.2-3.7-0.5-4.8,1c-1.1,0.3-2.3,0.1-3.4,0.1c-0.9-1.5-2.8-1.5-4.3-1.3c-2.3,0.4-4.6,0.3-6.9,0c0.1,1.9,1.4,3.3,2.2,4.9
					c0.7,1.5,1.6,2.9,2.2,4.4c-1.7-0.2-3.4,0-5-0.6c-1.4-1.1-2-3-3.2-4.3c-0.5-0.3-1.2-0.4-1.8-0.5c-0.4,1.7-0.8,3.4-1.3,5.1
					c-1.6-0.1-3.2-0.2-4.8-0.4c0.1-1.3,0.2-2.5,0.3-3.7c-3.2-0.3-6.5,0.2-9.8-0.3c-2-0.3-4-0.1-6-0.1c-1.5,0-3-0.2-4.4,0.4
					c1,1.3,2.2,2.3,3.4,3.3c-2,0.4-4.1,0.3-6.1,0.2c-1.3,0-2.2-1.1-3.1-1.9c-1.8-1.6-3.9-2.8-5.7-4.3c-1.2,0.2-2.5,0.2-3.7,0.1
					c-0.8,0.9-1.7,1.6-2.2,2.7c-0.1,1-0.1,2-0.2,3.1c-0.9,0.2-1.9,0.2-2.7-0.4c0,0.5-0.1,1-0.1,1.5c-0.3-0.4-0.5-0.7-0.8-1.1
					c1.3-8,3.9-15.8,7.9-22.8c0.5-0.2,0.9-0.6,1.2-1c0.1,0.2,0.3,0.5,0.4,0.7c1.1-0.1,2.2-0.3,3.3-0.4c-1.1,2.7-3.5,4.5-4.7,7.1
					c1.9,0.1,3.8,0,5.7,0.4c0.5-0.7,1.1-1.4,1.7-1.9c2-1.7,3.3-4.1,5.4-5.6c2.2-0.6,4.3,1,6.5,0.8c2.9,0,5.9,0,8.8,0
					c0.6,0.1,1.3,0,1.6,0.5c1.4,1.8,2.8,3.6,3.7,5.6c0.7,1.4,1.8,2.6,2.3,4.2c0,1.3-0.4,2.5-0.6,3.8c2.7,0.1,5.4,0.1,8.1,0
					c-0.4-1.3-1-2.4-1.7-3.5c-0.7-1.1,0.1-2.4,0.5-3.4c0.4-1.1,1.8-0.9,2.7-0.9c5.1,0.1,10.2-0.2,15.4,0.2c0.3-1,0.3-2-0.1-2.9
					c-0.6-1.5,0.3-3-0.1-4.5c-0.5-2.1-0.3-4.3-0.3-6.4c0-2.6,0.5-5.1,1.1-7.5c0.1-1.9,0.5-3.8,0.2-5.7
					C122.3,180.9,122.8,179.4,123.1,177.8z"/>
			</g>
			<g>
				<path class="st22" d="M201.9,169.3l0.1-0.1c0.5,0.8,1,1.5,1.6,2.2l-0.1,0.1c-0.5,0.6-0.9,1.2-1.5,1.8l-0.1,0.2
					c-0.5-0.7-1-1.3-1.6-2c0,0,0.1-0.1,0.1-0.1C200.8,170.6,201.3,169.9,201.9,169.3z"/>
			</g>
			<g>
				<path class="st23" d="M201.8,173.5l0.1-0.2c6.7,8.9,11,19.6,12,30.7c-0.4-1.2-0.6-2.4-0.8-3.5c-0.2-0.8-0.3-1.6-0.6-2.4
					c-0.2-0.7-0.4-1.4-0.6-2.1c-0.1-0.2-0.1-0.4-0.2-0.6c-1-3.6-2.3-7-4-10.3c-0.7-1.4-1.3-2.7-2.1-4c-1.2-2-2.4-3.9-3.8-5.8
					l-0.1-0.2c-3.5,4.5-6,9.5-8.2,14.7c-0.6,2-1.5,3.8-1.9,5.9c0,0.1-0.1,0.2-0.1,0.3c-0.5,1.5-0.7,3.1-1.5,4.5
					c1.1-7.4,3.7-14.5,7.5-21C199,177.3,200.2,175.2,201.8,173.5z"/>
				<path class="st23" d="M201.6,186.1c0.3-3.4-0.1-6.8,0.4-10.2c0.1,2.6,0.1,5.1,0.2,7.7c0,1,0.1,1.9,0.1,2.9
					c0.1,4.2,0.2,8.4,0.3,12.6v0.3c0,0.5,0,1,0,1.4c0,1.6,0.1,3.1,0.1,4.7c-0.5,0-1,0-1.5,0C201.2,199,201.4,192.6,201.6,186.1z"/>
			</g>
			<g>
				<path class="st24" d="M193.7,189.7c2.1-5.2,4.7-10.3,8.2-14.7l0.1,0.2c0,0.2-0.1,0.5-0.1,0.7c-0.5,3.4-0.2,6.8-0.4,10.2
					c-0.1,6.5-0.3,12.9-0.4,19.4c-3.8,0-7.6-0.6-11.4-1.5c0-1.2,0.1-2.5,0.5-3.7c0.7-1.4,0.9-3,1.5-4.5c0.8,1.5,0.8,3.2,1.4,4.8
					c0.2-0.1,0.7-0.2,0.9-0.3c1.9,1.5,5,0.1,5.3-2.2c0.4-1.7-0.1-3.3-0.1-5c-0.9-0.3-1.8-0.5-2.6-1.1c-0.2-0.5-0.3-1.1-0.4-1.6
					c-0.5,0.3-1,0.8-1,1.5c-1.8,0.5-2.6,2.3-3.6,3.6C192.3,193.5,193.1,191.6,193.7,189.7z"/>
			</g>
			<g>
				<path class="st25" d="M202.1,175.2c1.4,1.8,2.6,3.8,3.8,5.8c-1.3,0.1-2.5,0.6-3.6,1.1c0.3,0.4,0.9,0.2,1.4,0.3
					c0.1,0.5,0.1,0.9,0.2,1.4c-0.5-0.1-1.1-0.2-1.6-0.3c-0.1-2.6-0.1-5.1-0.2-7.7C202,175.7,202.1,175.4,202.1,175.2z"/>
			</g>
			<g>
				<path class="st26" d="M124.2,178.8c-0.1-0.7,0.6-1.1,1-1.5c0.4,4.1,1,8.1,2,12c-0.6,0.3-1.2,0.5-1.7,0.7
					c0.4,2.5,0.7,4.9,0.5,7.4c0.7,2.9,1,6,1.2,9c0.5,2.7,1.1,5.4,1.6,8.1c0.6,2,1,4,1.5,5.9c0.4,1.6,1,3.2,1.3,4.8
					c0.2,1.7,1.7,2.9,1.3,4.7c-3.8,0.1-7.6,0.3-11.4-0.3c-2.2-0.1-4.4-0.1-6.5,0.1c1.4,1,3.2,1.3,4.9,1.9c2.3,0.7,4.5,1.8,6.8,2.4
					c0.8,0.2,1.5,0.6,2.2,1c-1.6,0.6-3.2,0.3-4.9,0.3c-3.1,0.2-6.1-0.7-9.1-0.3c-2-0.7-4.2-0.9-5.9-2.3c-1.3-1.2-3.3-0.6-4.9-0.4
					c-1.8,0.5-3.6-0.5-5.5-0.1c-3.7,0.9-7.5,0.4-11.3,0.6c2.4,2.1,4.7,4.2,7.1,6.1c0.3,0.3,0.6,0.6,0.9,0.9
					c-2.2,0.3-4.4,0.1-6.6-0.1c-0.6,0-1-0.4-1.4-0.8c-2.1-1.9-4.4-3.5-6.6-5.2c-0.9-0.8-2.2-0.5-3.3-0.6c-2.5-0.1-5,0.4-7.5,0.4
					c-3.6,0-7.1,0-10.7,0.4c0.2,1.7,0.6,3.5,0.6,5.2c-1.4,0.1-2.8,0.2-4.2,0c-0.5-0.2-0.5-0.7-0.7-1.1c-0.4-1.4-0.6-2.8-1.1-4.1
					c-0.4,0.3-0.7,0.6-1.1,1v-1.3c0.2-2.7,0.5-5.4,0.9-8.1c0.3,0.3,0.5,0.7,0.8,1.1c0-0.5,0.1-1,0.1-1.5c0.8,0.6,1.8,0.6,2.7,0.4
					c0.1-1,0.1-2.1,0.2-3.1c0.5-1,1.4-1.8,2.2-2.7c1.2,0.1,2.5,0.1,3.7-0.1c1.8,1.6,3.9,2.8,5.7,4.3c1,0.7,1.8,1.8,3.1,1.9
					c2,0.2,4.1,0.2,6.1-0.2c-1.2-1.1-2.4-2-3.4-3.3c1.4-0.6,2.9-0.4,4.4-0.4c2,0.1,4-0.2,6,0.1c3.2,0.6,6.5,0,9.8,0.3
					c-0.1,1.3-0.2,2.5-0.3,3.7c1.6,0.2,3.2,0.2,4.8,0.4c0.5-1.7,0.9-3.4,1.3-5.1c0.6,0.2,1.3,0.2,1.8,0.5c1.2,1.3,1.8,3.2,3.2,4.3
					c1.6,0.6,3.4,0.4,5,0.6c-0.7-1.5-1.5-2.9-2.2-4.4c-0.8-1.6-2.1-3-2.2-4.9c2.3,0.3,4.6,0.4,6.9,0c1.5-0.2,3.5-0.2,4.3,1.3
					c1.1,0,2.3,0.2,3.4-0.1c1.1-1.5,3.2-0.8,4.8-1c0-1.2-0.2-2.3-0.3-3.5c0-1.8-0.6-3.6-0.8-5.4c-0.1-1.7-1-3.2-1.3-4.8
					c-0.3-1.1,0.7-2.1,0.3-3.2c-0.5-1.7-0.3-3.4-0.6-5.1c-0.2-1.6,0.2-3.2,0-4.7c-0.2-1.7,0.8-3.2,0.9-4.8c0.1-1.5,0-3.1-0.4-4.6
					C123.8,180.8,124.2,179.8,124.2,178.8z"/>
				<path class="st26" d="M335,221.5c1.5,0.6,3.3-0.7,4.7,0.7c0.2-0.3,0.4-0.7,0.6-1c1.1,0.8,1.9,1.9,2.9,2.8
					c2.3,0.3,4.6-0.3,6.8,0.3c0.7,4.1,1.1,8.2,1.3,12.3c-1-0.5-2.1-1.1-3.2-0.9c-2.6,0.5-5.2-0.4-7.8-0.3c-2.4,0.1-4.7-0.1-7.1,0.1
					c0.1,0.8,0.2,1.5,0.2,2.3c-2.4,0.2-4.8,0.4-7.1,0.2c-1.2,0-2.3-0.8-3.4-0.3c-2.6-1.1-5.4-1.7-8-2.7c-0.8-0.2-1.7-0.8-2.5-0.3
					c-4.1,1.8-8,3.7-12.2,5.4c-0.8,0.2-0.7,1-0.6,1.6c-0.1,0.3-0.2,0.9-0.3,1.2c-1.5-0.1-2.9-0.2-4.4-0.5c-0.7-1.4-0.8-3-1.1-4.6
					c-0.2-0.6,0.6-0.8,1-1c3.4-1.5,7-2.9,10.3-4.7c-0.1-0.2-0.3-0.6-0.4-0.8c1,0.2,1.9,0.9,3,0.8c4.1-0.1,8.2,0.1,12.3-0.1
					c0-0.3,0-0.6,0-1c2.4-1.1,5.1-1.9,7.4-3.3c1.6-0.9,3.4-1.2,5-2.2c0.9-1,1-2.5,1.2-3.8C334.1,221.8,334.5,221.7,335,221.5z"/>
			</g>
			<g>
				<path class="st27" d="M202.2,182.1c1.1-0.6,2.3-1.1,3.6-1.1c0.7,1.3,1.4,2.6,2.1,4c-1.2,0-2.4-0.3-3.6-0.5
					c-0.1,0.7-0.1,1.5-0.2,2.2c-0.7-0.1-1.3-0.2-2-0.2c0-1,0-1.9-0.1-2.9c0.5,0.1,1.1,0.2,1.6,0.3c-0.1-0.5-0.1-0.9-0.2-1.4
					C203.2,182.3,202.5,182.5,202.2,182.1z"/>
			</g>
			<g>
				<path class="st28" d="M204.4,184.4c1.2,0.3,2.4,0.5,3.6,0.5c1.6,3.3,3,6.8,4,10.3c-0.8-0.2-0.8-1.2-1.2-1.7
					c-0.7-0.8-1.6-1.8-2.8-1.5c-1.1,0.2-2.3,0.6-3,1.5c-0.5,1.1-0.5,2.3-0.7,3.4c-0.2,0.9-0.4,2.1-1.6,2.1
					c-0.2-4.2-0.2-8.4-0.3-12.6c0.6,0.1,1.3,0.2,2,0.2C204.2,185.9,204.3,185.2,204.4,184.4z"/>
			</g>
			<g>
				<path class="st29" d="M229,202.4c6.7-4.2,12.3-9.9,16.5-16.6c0.3,0.5,1.1,0.9,0.7,1.5c-0.9,2.4-0.2,5.1-0.3,7.6
					c0.3,0,0.6-0.1,1-0.1c-1.1,1.6-2.3,3.2-3.6,4.7c-3.5,3.8-7.5,7.3-11.9,10c-0.2-0.1-0.7-0.2-0.9-0.2c0.3-2,0.3-4.1,0.1-6.2
					c-0.2,0-0.5,0-0.7-0.1C229.7,202.8,229.3,202.6,229,202.4z"/>
			</g>
			<g>
				<g>
					<path class="st30" d="M195.4,191.9c0-0.7,0.4-1.1,1-1.5c0.1,0.5,0.2,1.1,0.4,1.6c0.7,0.6,1.7,0.8,2.6,1.1
						c-0.1,1.7,0.4,3.3,0.1,5c-0.4,2.3-3.4,3.7-5.3,2.2c-0.2,0.1-0.7,0.2-0.9,0.3c-0.6-1.5-0.6-3.3-1.4-4.8c0-0.1,0.1-0.2,0.1-0.3
						C192.8,194.2,193.6,192.4,195.4,191.9z M195,194.5c-1.5,0.9-1.2,3.7,0.6,4.2c1.4,0.3,2.5-1.3,2.2-2.5
						C197.7,194.8,196.1,193.8,195,194.5z"/>
				</g>
			</g>
			<g>
				<g>
					<path class="st31" d="M207.9,192c1.2-0.2,2.1,0.7,2.8,1.5c0.4,0.5,0.4,1.5,1.2,1.7c0.1,0.2,0.1,0.4,0.2,0.6
						c-0.3,0.9-0.6,1.8-0.8,2.8c-0.7,3.2-5.8,2.7-6.8,0c-0.1-0.6-0.2-1.1-0.3-1.7c0.2-1.1,0.2-2.4,0.7-3.4
						C205.6,192.6,206.8,192.2,207.9,192z M207.2,194.5c-1.2,0.6-1.5,2.5-0.6,3.6c0.7,1,2.6,0.8,2.9-0.5
						C210.4,196.1,209,193.5,207.2,194.5z"/>
				</g>
			</g>
			<g>
				<path class="st32" d="M275.5,193.5c0.5,0.4,1.2,0.8,0.9,1.6c-0.5,1.6-0.7,3.3-0.7,4.9c-0.2,1.7,0.9,3.3,0.4,5
					c-0.6,2.3-0.3,4.8-1.3,7c-0.5,1.1-0.3,2.4-0.7,3.6c-0.6,1.9-0.8,3.9-1.5,5.7c-0.6,0.4-1.3,0.5-1.9,0.9c-0.6,1.5-0.9,3.1-2,4.3
					c0.8,0.2,1.6,0.3,2.4,0.5c-0.3,1.7-2.5-0.1-3.1,1.2c-0.5,0.9-0.9,1.8-1.4,2.8c1.2,1.2,2.3,2.5,3.7,3.5c0.5,0.5,1.3,0.9,1.5,1.6
					c-0.1,1.5-0.5,2.9-1,4.2c-1,2.3-1.2,5-2,7.4c0-0.2-0.1-0.5-0.1-0.7c-0.2,0.1-0.3,0.2-0.5,0.3c-1.4-0.6-3-0.3-4.4-0.5
					c-2.3-0.3-4.6-0.4-6.9,0.1c-0.5,0.1-0.8-0.4-1.2-0.6c0.3-0.3,0.7-0.7,1-1c-0.1-0.1-0.3-0.4-0.4-0.5c0.9-1.8,1.6-3.7,2.9-5.2
					c1.5-2,2.3-4.4,3.6-6.5c-0.2,0-0.6-0.1-0.8-0.2c0.7-1.1,1.3-2.2,1.9-3.4c-0.5-0.5-1-1-1.3-1.6c0.4-1.8,1.1-3.7,2.4-5.1
					c0.6-0.5,1.4-0.7,2.1-1c1.5-2.9,2.5-6.1,3.1-9.3c0.1-1.7,1.3-3.1,1-4.9c-0.5,0.1-1,0.1-1.5,0.2C272,203,274.1,198.3,275.5,193.5
					z"/>
			</g>
			<g>
				<path class="st33" d="M195,194.5c1.1-0.7,2.8,0.3,2.7,1.6c0.3,1.3-0.8,2.8-2.2,2.5C193.8,198.2,193.5,195.5,195,194.5z"/>
			</g>
			<g>
				<path class="st34" d="M207.2,194.5c1.8-1,3.3,1.6,2.4,3.1c-0.3,1.2-2.2,1.5-2.9,0.5C205.6,197,205.9,195.1,207.2,194.5z"/>
			</g>
			<g>
				<path class="st35" d="M156.9,194.9c1.8,2.4,3.7,4.7,5.7,6.9c0.2,0.4,0.3,0.8,0.4,1.3c-0.2,0.3-0.3,0.6-0.5,1
					c0.1,0.3,0.3,0.6,0.4,0.9c-0.6,1.9-0.7,4.2,0.2,6c-0.2,0.5-0.4,0.9-0.6,1.4c-2.1-1.9-4-4-5.8-6.2c0.2-0.3,0.4-0.5,0.6-0.8
					c-0.5-0.7-1-1.4-1.6-2c1.7-0.7,0.7-2.8,1.2-4.2C157.5,197.7,157.3,196.3,156.9,194.9z"/>
			</g>
			<g>
				<path class="st36" d="M211.2,198.7c0.3-0.9,0.5-1.9,0.8-2.8c0.2,0.7,0.4,1.4,0.6,2.1C212.2,198.2,211.7,198.4,211.2,198.7z"/>
			</g>
			<g>
				<path class="st37" d="M202.6,199.1c1.2,0,1.4-1.2,1.6-2.1c0.1,0.6,0.2,1.1,0.3,1.7c-0.1,0.3-0.1,0.6-0.2,0.9
					c-0.5-0.1-1.1-0.1-1.6-0.2V199.1z"/>
			</g>
			<g>
				<path class="st38" d="M212.6,198c0.2,0.8,0.4,1.6,0.6,2.4c-0.2-0.1-0.6-0.2-0.8-0.3c-0.9,0.9-2,1.5-3.3,1.6
					c0,0.1-0.1,0.3-0.2,0.5c-0.8-0.5-1.6-0.6-2.4-0.1c-0.4-0.6-0.9-1.1-1.4-1.5c-0.5,0.3-1.1,0.7-1.6,1c-0.3-0.2-0.6-0.5-0.9-0.7
					c0-0.5,0-1,0-1.4c0.5,0.1,1.1,0.1,1.6,0.2c0.1-0.3,0.2-0.6,0.2-0.9c1.1,2.7,6.1,3.1,6.8,0C211.7,198.4,212.2,198.2,212.6,198z"
					/>
			</g>
			<g>
				<path class="st39" d="M231.4,209.5c4.4-2.8,8.3-6.2,11.9-10c0.4,2.2-0.3,4.5-0.1,6.7c0.1,1.2-0.2,2.6,0.7,3.6
					c-5.3,5.6-11.8,10.1-18.9,13.1c-0.6-0.1-1.2-0.3-1.8-0.4c0.3-2.3,0.5-4.6,0.3-6.9c-0.6-0.1-1.1-0.1-1.7-0.2
					c0.7-0.3,1.3-0.6,1.9-0.9c0-0.2-0.1-0.6-0.2-0.8c0.1,0,0.2-0.1,0.3-0.1C226.5,212.4,229.1,211.2,231.4,209.5z"/>
			</g>
			<g>
				<path class="st40" d="M171.2,199.9c4.3,3.2,9,5.7,14,7.5c-0.3,0.6-0.7,1.1-0.6,1.8c0.2,1.8,0.3,3.7,0.1,5.5
					c-0.3,0.1-0.8,0.2-1.1,0.3c-0.2-0.1-0.5-0.2-0.7-0.2c-2.3-0.8-4.5-1.8-6.7-2.9c-1.9-1-3.7-2.1-5.4-3.3c0.7-2.2,0.2-4.5,0.5-6.7
					c0.4-0.1,0.7-0.3,1.1-0.4c-0.4-0.2-0.9-0.5-1.3-0.7C171.1,200.5,171.2,200.1,171.2,199.9z"/>
			</g>
			<g>
				<path class="st41" d="M209.1,201.7c1.3-0.1,2.4-0.7,3.3-1.6c0.2,0.1,0.6,0.2,0.8,0.3c0.2,1.2,0.4,2.4,0.8,3.5
					c-3.7,0.9-7.5,1.6-11.3,1.5c-0.1-1.5-0.1-3.1-0.1-4.7c0.3,0.2,0.6,0.5,0.9,0.7c0.5-0.3,1.1-0.7,1.6-1c0.5,0.4,1,1,1.4,1.5
					c0.8-0.5,1.7-0.4,2.4,0.1C209,202,209.1,201.8,209.1,201.7z"/>
			</g>
			<g>
				<path class="st42" d="M162.7,201.8c2.2,2.1,4.4,4.1,6.8,5.8c-0.1,2,0.1,4-0.1,6c-0.3,0.3-0.7,0.6-1.1,0.9
					c0.3,0.6,0.7,1.2,1.1,1.8c-0.1,0.4-0.3,0.7-0.4,1.1c-2.3-1.5-4.3-3.3-6.4-5.1c0.2-0.5,0.4-0.9,0.6-1.4c-0.9-1.8-0.8-4.1-0.2-6
					c-0.1-0.3-0.3-0.6-0.4-0.9c0.2-0.3,0.3-0.6,0.5-1C163,202.6,162.8,202.2,162.7,201.8z"/>
			</g>
			<g>
				<path class="st43" d="M222.4,205.9c2.2-1,4.5-2.1,6.6-3.5c0.4,0.2,0.7,0.4,1,0.7c0.2,0,0.4,0,0.7,0.1c0.1,2.1,0.2,4.1-0.1,6.2
					c0.2,0.1,0.7,0.2,0.9,0.2c-2.4,1.6-5,2.9-7.6,4c0.5-2.3,0.4-4.6,0.3-7c-0.6-0.3-1.2-0.2-1.7,0.1
					C222.4,206.5,222.4,206.1,222.4,205.9z"/>
			</g>
			<g>
				<path class="st44" d="M169.4,207.6c0.5,0.3,0.9,0.6,1.4,0.9c1.7,1.2,3.6,2.3,5.4,3.3c-0.4,0.6-1,1.1-0.8,1.9
					c0.2,1.9,0.1,3.9-0.1,5.8c-0.2,1.1,1,1.7,1.6,2.4c-2.9-1.2-5.5-2.9-8-4.6c0.1-0.4,0.3-0.7,0.4-1.1c-0.4-0.6-0.8-1.2-1.1-1.8
					c0.4-0.3,0.8-0.6,1.1-0.9C169.6,211.6,169.4,209.6,169.4,207.6z"/>
			</g>
			<g>
				<path class="st45" d="M185.2,207.4c4.7,1.6,9.6,2.5,14.6,2.8c0.4,0.2,0.7,0.3,1.1,0.5c0.1,2.3,0.2,4.7-0.2,7
					c-3.3,0-6.5-0.3-9.7-0.8c-2.5-0.4-4.9-1.1-7.2-1.9c0.3-0.1,0.8-0.2,1.1-0.3c0.2-1.8,0.1-3.7-0.1-5.5
					C184.6,208.5,185,207.9,185.2,207.4z"/>
			</g>
			<g>
				<path class="st46" d="M199.8,210.2c2.7,0.1,5.4-0.1,8.1-0.3c-0.8,2.2-0.4,4.7-0.3,7c-0.7,0.3-1.4,0.7-2.1,0.9
					c-1.6-0.2-3.2-0.1-4.8-0.1c0.4-2.3,0.4-4.7,0.2-7C200.5,210.5,200.2,210.3,199.8,210.2z"/>
			</g>
			<g>
				<path class="st47" d="M176.3,211.9c2.2,1.1,4.4,2.1,6.7,2.9c-0.1,0.2-0.2,0.6-0.2,0.7c0.1,0.2,0.3,0.5,0.5,0.7
					c-0.4,0-0.7,0.1-1.1,0.1c0.6,1.2,0.4,2.6,1.1,3.7c0.5,1-0.1,2.1-0.8,2.9c0.2,0.6,0.4,1.1,0.6,1.7c-2.1-0.7-4.2-1.5-6.1-2.5
					c-0.6-0.7-1.8-1.3-1.6-2.4c0.2-1.9,0.2-3.9,0.1-5.8C175.3,213,175.9,212.4,176.3,211.9z"/>
			</g>
			<g>
				<path class="st48" d="M183,214.7c0.2,0.1,0.5,0.2,0.7,0.2c2.4,0.8,4.8,1.5,7.2,1.9c-0.5,0.7-1.1,1.3-1,2.2c0,1.5,0.1,3-0.2,4.6
					c-0.2,1,0.2,1.9,0.3,2.8c-2.4-0.5-4.7-1.1-6.9-1.9c-0.2-0.6-0.4-1.1-0.6-1.7c0.6-0.8,1.3-1.8,0.8-2.9c-0.7-1.1-0.5-2.5-1.1-3.7
					c0.4,0,0.7-0.1,1.1-0.1c-0.2-0.2-0.3-0.5-0.5-0.7C182.8,215.3,183,214.9,183,214.7z"/>
			</g>
			<g>
				<g>
					<path class="st49" d="M178.4,125.1c1.7-1.6,3.4-3,5.2-4.4c0.1,0.2,0.4,0.5,0.5,0.7c0.2-0.1,0.4-0.2,0.7-0.3
						c0.7,0.9,1.2,2,2.3,2.5c1.3,0.5,1.4,2.1,2.6,2.7c0.8,0.4,1.4,1,1.8,1.8c0.5,1.2,2,1.3,2.6,2.4c0.4,0.8,1,1.4,1.8,1.8
						c1.2,0.6,1.3,2.3,2.7,2.7c1,0.4,1.4,1.5,2,2.3c0.9,0.6,2,1.1,2.4,2.2c0.5,1.2,2.1,1.3,2.6,2.4c0.4,0.7,0.9,1.3,1.6,1.7
						c1.3,0.6,1.5,2.3,2.9,2.9c1.4,0.6,1.5,2.3,2.9,2.9c1,0.5,1.5,1.4,1.9,2.4c1.4,0.4,2.2,1.6,2.7,2.9c-1.7,1.1-3.3,2.4-5,3.6
						c-1.4-1-2.5-2.2-3.6-3.4c-9-9-17.9-17.9-26.9-26.9C181,126.9,180,125.5,178.4,125.1z"/>
					<path class="st49" d="M100.9,255.1c1.2-0.5,2.4-1.4,3.7-1.6c0.7,0.3,1.3,0.8,1.9,1.3c1.9,1.6,4.1,3,5.9,4.7
						c0.7,0.6,1.3,1.2,2,1.8c1.4,1.2,1.2,3.2,1.6,4.8c0.3,1,0.3,2.4,1.3,3c1.2,0.3,2.5,0.4,3.7,0.1c0-0.9,0.1-1.8,0.3-2.6
						c0.1,0.1,0.2,0.2,0.3,0.3c0,3.4,0.7,6.8,1.2,10.2h-4.9c-0.9-2.8-0.7-5.9-2-8.5c-0.1,0.2-0.3,0.7-0.5,0.9
						c-2.2,0-4.4,0.3-6.6,0.5c-1.1,0.2-2-0.8-3.1-0.6c-1.9,0.2-3.9,0.2-5.9,0.2c-1,0-1.8-0.7-2.9-0.7c-2.2-0.1-4.3,0.1-6.5-0.1
						c-0.7,0-1.8-0.1-2.1,0.8c-0.5,1.5-1.1,3-1.1,4.6c0.7,1.2,1.9,2,3,2.9h-7.3c-0.7-0.5-1.7-1.1-1.5-2.1c0.4-2.2,1.1-4.4,1.6-6.6
						c1.8,0.2,3.6,0.3,5.4-0.3c0.6-2.4,1.4-4.7,2-7c0.2-1.1,1.3-1.6,2.1-2.1C95.5,257.7,98.1,256.3,100.9,255.1z"/>
				</g>
				<g>
					<path class="st50" d="M125.5,190.1c0.6-0.3,1.2-0.5,1.7-0.7c0.9,3.7,2.1,7.3,3.5,10.8c-0.7,0.1-1.3,0.4-1.6,1.1
						c0.1,1.5,0.8,2.8,0.8,4.3c0,1.7,0.7,3.3,1,5c0.2,1,0.5,1.9,0.9,2.9c0.4,1,0.2,2.2,0.8,3.1c1.2,2.5,1.6,5.4,2.9,7.8
						c1.2,2.3,1.9,4.9,3.3,7.1c0.8-0.2,1.6-0.4,2.4-0.6c0.8,1.4,1.6,2.7,2.3,4.1c-0.2,0.5-0.6,0.9-1,1.3c0.6,1.2,1.5,2.4,2.4,3.4
						c1.8,1.2,4,1.6,5.8,2.8c0.8,0.6,1.2,1.5,1.5,2.5c0.6,2.3,1,4.7,1.4,7.1c-1.7,0.4-3.4,0.3-5.2,0.1c0-2-0.7-3.8-0.9-5.8
						c-1-1-2.6-0.9-3.8-1.5c-2.5-1.5-5.4-1.8-8.1-2.9c-1.5-0.4-3.2-1.4-4.7-0.7c-3.8,1.6-7.5,3.3-11.2,4.9c-0.6,0.3-1.6,0.5-1.6,1.4
						c-0.1,0.4-0.1,0.9-0.2,1.3c-1.6-0.3-3.4,0.3-4.7-1c-0.5-1.3-0.8-2.7-0.8-4c0.9-0.8,2-1.1,3.1-1.6c2.9-1.2,5.6-2.6,8.5-3.7
						c0-0.1,0-0.2,0-0.3c-2.9-1.1-6-1.9-9-2.9c3.1-0.5,6.1,0.4,9.1,0.3c1.6-0.1,3.3,0.2,4.9-0.3c-0.7-0.4-1.4-0.8-2.2-1
						c-2.3-0.6-4.5-1.8-6.8-2.4c-1.6-0.6-3.4-0.9-4.9-1.9c2.2-0.2,4.4-0.2,6.5-0.1c3.8,0.5,7.6,0.3,11.4,0.3c0.4-1.8-1.1-3-1.3-4.7
						c-0.2-1.7-0.9-3.2-1.3-4.8c-0.5-2-0.9-4-1.5-5.9c-0.5-2.7-1.1-5.4-1.6-8.1c-0.2-3-0.5-6-1.2-9
						C126.2,195.1,125.9,192.6,125.5,190.1z"/>
				</g>
				<g>
					<path class="st51" d="M129.1,201.3c0.3-0.7,0.9-1,1.6-1.1c1.9,4.7,4.3,9.2,7.1,13.4c-0.4,0.5-1.2,1-0.9,1.8
						c0.8,2.1,1.7,4.1,2.3,6.3c1.1,2.6,2.4,5.1,3.7,7.6c0.7,0,1.4,0,2,0c0.9,1.3,2.2,2.3,3.1,3.7c-0.7,0.5-1.4,1-2.2,1.5
						c0.9,1.7,2.1,3.3,3.2,4.9c0.6,0.9,1.4,1.4,2.2,2.1c0.9,0.6,0.8,2,1.7,2.6c1.6,1.3,3,2.8,4.1,4.5c1.1-0.8,2-2,3.3-2.5
						c1.5,2.2,4,3.3,5.9,5.1c1.5,1.3,3.6,1.4,5,2.8c-3.1-0.3-5.8-2.1-8.9-2.7c-0.2,0.3-0.5,0.6-0.7,0.9c-0.3-1.4-1.6-2-2.7-2.6
						c-0.1-0.4-0.3-0.8-0.4-1.3c-1.9,1.1-3.3,3-4.7,4.7c-0.1-0.3-0.3-0.6-0.4-1c-0.4-2.4-0.8-4.8-1.4-7.1c-0.2-0.9-0.6-1.9-1.5-2.5
						c-1.8-1.2-4-1.6-5.8-2.8c-0.9-1-1.7-2.1-2.4-3.4c0.3-0.4,0.7-0.8,1-1.3c-0.7-1.4-1.5-2.7-2.3-4.1c-0.8,0.2-1.6,0.4-2.4,0.6
						c-1.5-2.2-2.1-4.8-3.3-7.1c-1.3-2.5-1.7-5.3-2.9-7.8c-0.5-1-0.4-2.1-0.8-3.1c-0.4-0.9-0.7-1.9-0.9-2.9c-0.3-1.7-1-3.3-1-5
						C129.9,204.1,129.2,202.7,129.1,201.3z"/>
				</g>
				<g>
					<path class="st52" d="M207.9,209.8c5-0.6,9.9-1.9,14.5-3.9c0,0.2,0,0.6,0,0.8c0.5-0.4,1.1-0.4,1.7-0.1c0.1,2.3,0.1,4.7-0.3,7
						c-0.1,0-0.2,0.1-0.3,0.1c-2.4,1-5,1.6-7.3,2.6c0.2,1.9,0,3.9,0.3,5.9c0.2,1.2-0.2,2.4,0.2,3.6c-3.6,0.9-7.3,1.6-11,1.7
						c-0.7-0.1-1.4-0.2-2.1-0.3c0.1-0.2,0.3-0.4,0.4-0.6c-0.6-0.4-1.3-0.7-2-1c0.4-0.1,0.9-0.2,1.3-0.3c-0.1-2.3,0.4-4.6,0.4-6.9
						c-0.2-0.1-0.7-0.3-1-0.3c0.9-0.1,1.8-0.1,2.6-0.4c0.7-0.2,1.4-0.6,2.1-0.9C207.4,214.6,207.1,212.1,207.9,209.8L207.9,209.8z"
						/>
					<path class="st52" d="M309.8,259.6c1.3-0.2,3,0.4,4-0.7c2.8-0.2,5.7,0,8.6-0.1c0.9,0,1.8-0.2,2.6,0.3c-0.9,1.5-2.1,2.7-3.1,4.1
						c-1.1,1.3-2,2.8-3.4,3.9c-1.5-1.4-3.3-2.5-4.8-3.9c-1.2-1.1-2.5-2-3.7-3.1C310,260,309.9,259.7,309.8,259.6z"/>
					<path class="st52" d="M337.9,258.9c0.4,0,0.8,0,1.2,0c0.1,0.4,0.2,0.9,0.3,1.3c2.1,0,4.4,0.5,6.3-0.6c1.5-0.2,3.1-0.1,4.6,0
						c0.4,0.3,0.7,0.7,1.1,1c0,2,0,4.1,0,6.1c-0.5-0.5-0.9-1.3-1.7-1.1c-3.8-0.1-7.6,0.1-11.3-0.1c-0.4-1.8-0.6-3.6-0.8-5.4
						c0.1-0.1,0.4-0.1,0.6-0.2C338,259.6,337.9,259.2,337.9,258.9z"/>
				</g>
				<g>
					<path class="st53" d="M269.7,207.4c0.5-0.1,1-0.1,1.5-0.2c0.3,1.7-0.9,3.2-1,4.9c-0.6,3.2-1.7,6.4-3.1,9.3
						c-0.7,0.3-1.5,0.5-2.1,1c-1.3,1.4-1.9,3.3-2.4,5.1c0.3,0.6,0.8,1.1,1.3,1.6c-0.6,1.1-1.2,2.3-1.9,3.4c0.2,0.1,0.6,0.1,0.8,0.2
						c-1.4,2.1-2.1,4.5-3.6,6.5c-1.3,1.5-2,3.4-2.9,5.2c0.1,0.1,0.3,0.4,0.4,0.5c-0.3,0.3-0.7,0.7-1,1c0.4,0.2,0.7,0.7,1.2,0.6
						c2.3-0.5,4.6-0.4,6.9-0.1c1.5,0.3,3-0.1,4.4,0.5c0.2-0.1,0.3-0.2,0.5-0.3c0,0.2,0.1,0.5,0.1,0.7c-0.2,0.6-0.3,1.3-0.5,1.9
						c-0.6,0.9-1.6,1.3-2.6,1.8c-3.7,1.8-7.3,3.8-11,5.5c-2.8-1.9-5.1-4.5-8-6.3c-0.7-0.4-1.4-1.3-2.3-1.1c-1,0.8-2,1.7-3.2,2.3
						c0.1,0.1,0.3,0.2,0.4,0.3c-0.6,0.6-1.2,1.1-1.8,1.7c-0.2-1-0.1-1.9-0.3-2.9c-0.8-1.2-2.5-1.5-2.9-2.9c0.2-1,1.4-1.4,2.1-1.9
						c1.4-1,2.8-2,4-3.3c0.3,1.1,0.7,2.2,1.1,3.2c1.3-1.1,2.6-2.3,3.6-3.7c1.2-1.1,2.3-2.4,2.9-3.9c2-1.7,3.9-3.7,4.9-6.2
						c0.3-0.9,1.1-1.3,1.7-1.9c0.5-0.8,0.6-1.8,0.8-2.6c-0.9-0.3-1.7-0.6-2.6-0.9C261,220.9,265.9,214.5,269.7,207.4z"/>
				</g>
				<g>
					<g>
						<path class="st54" d="M136.9,215.4c-0.3-0.8,0.5-1.3,0.9-1.8c4.3,6.5,9.6,12.3,15.7,17.2c-0.6,0.7-1.4,1.3-1.7,2.3
							c0.8,1,1.9,1.8,2.7,2.8c1.3,1.6,3.1,2.9,4.3,4.6c1,1.5,2.9,2.1,3.4,3.9c1.1,0.4,1.8,1.4,2.5,2.2c0.2-0.1,0.4-0.2,0.6-0.3
							c0.5,0.6,1.1,1.1,1.8,1.4c2.2,0.9,4.3,1.9,6.5,2.6c-0.5-1-1-2.1-1.4-3.2c1.5,0.8,2.8,1.9,4.4,2.4c1.8,0.6,3.2,2,4.4,3.4
							c1.2,0.8,2.7,1.1,4.1,1.7c3.9,1.3,7.6,2.8,11.5,4c1.1-0.8,1.9-2.1,3.1-2.7c3.4-0.5,7.1,0.3,10.3-1c0.4,1.6,0.6,3.3,1.5,4.7
							c1.4-0.5,2.9-0.9,4.4-1.3c1.8-0.4,3.3-1.9,5.2-1.6c-0.2-0.2-0.3-0.3-0.5-0.5c2-0.7,3.7-2.2,5.9-2.3c0.1-0.2,0.2-0.3,0.4-0.5
							c1.6-0.2,2.7-1.3,4.1-1.9c0.6-0.2,1-0.8,1.3-1.4c1.3-0.5,2.5-1.2,3.7-2c-0.8-0.9-1.6-1.7-2.5-2.6c1.1-1.2,2.6-2,4.2-2.3
							c0.8-0.6,1-1.6,1.8-2.2c0.8-0.6,1.6-1.1,2.4-1.8c0.4,0.7,0.9,1.4,1.3,2c0.9-1,1.8-2,3.1-2.5c0.4-1.2,1.4-1.9,2-2.9
							c0.5-0.8,1-1.9,2.1-2c-0.1-0.4-0.1-0.7-0.1-1c0.6-0.4,1.2-0.7,1.8-1.1c0.6-0.3,0.5-1.1,0.6-1.7c-0.3-0.1-0.9-0.3-1.2-0.3
							c1.2-1,2.4-2.1,3.5-3.2c0.9,0.3,1.7,0.6,2.6,0.9c-0.2,0.9-0.3,1.9-0.8,2.6c-0.6,0.6-1.5,1-1.7,1.9c-1,2.5-2.9,4.5-4.9,6.2
							c-0.7,1.5-1.7,2.8-2.9,3.9c-1,1.4-2.3,2.5-3.6,3.7c-0.4-1-0.8-2.1-1.1-3.2c-1.1,1.3-2.6,2.3-4,3.3c-0.8,0.6-1.9,0.9-2.1,1.9
							c0.4,1.4,2.1,1.8,2.9,2.9c0.1,1,0.1,1.9,0.3,2.9c0.6,3,1,6,1.9,8.9c-1.1,1.1-2.6,1.4-3.9,2c-3.2,1.5-6.4,3-9.6,4.4
							c-0.6,0.3-1.2,0.1-1.7-0.1c-4.8-1.7-9.6-3.4-14.6-4.8c-0.4-1.3-0.5-2.7-1.1-4c-1.1,0.9-2.6,0.6-4,0.5
							c-0.5,2.3,0.2,4.6,0.7,6.9c0.7,0.3,1.4,0.6,2.1,0.8c-0.1,1.1-0.1,2.1-0.1,3.2c-0.1,0-0.4,0-0.6,0c-0.1-0.2-0.4-0.5-0.5-0.7
							c-0.8,0.2-2.2-0.4-2.2,0.7c-0.3-0.5-0.5-1.1-0.8-1.6c0-0.5,0-1,0-1.5c-0.2,0-0.5,0-0.7,0c-0.3,0.3-0.5,0.7-0.8,1
							c-0.1,0-0.3-0.1-0.4-0.2c-0.2-0.3-0.4-0.5-0.6-0.8c-0.2,0-0.6-0.1-0.8-0.2c-0.1,1.1-0.1,2.1-0.1,3.2c-0.3-0.9-0.6-1.9-1.1-2.7
							c-0.5,0.7-1,1.4-1.6,2.1c-0.1-0.8,0.2-1.9-0.7-2.3c-0.7-0.3-1.4-0.2-2.2-0.3c0.5,1.1-0.3,2.2,0,3.4c-0.5,0.1-0.9,0.1-1.4,0.2
							c-0.1-0.1-0.3-0.3-0.4-0.5c0.2,0,0.7,0.1,1,0.2c-0.4-1-0.7-1.9-1.2-2.8c-0.2-0.5-0.7-0.4-1.1-0.4c-0.4,1.1-0.9,2.2-1.3,3.3
							c0.2,0,0.7,0,0.9,0c-1,2.2-3,3.7-4.3,5.7h-6.7c1.3-1.8,2.7-3.5,4-5.3c-1.7,0.4-3.4-0.4-5.1-0.4c0.1-0.2,0.3-0.6,0.4-0.7
							c0.9,0.2,1.7,0.5,2.4,0.8c-0.4-1.1-0.9-2.2-1.4-3.3c-0.2,0-0.7-0.1-0.9-0.1c-0.4,1-0.9,1.9-1.3,2.9c-0.1-0.2-0.2-0.5-0.3-0.7
							c-0.4,0.2-0.8,0.4-1.1,0.5c0-0.2-0.1-0.5-0.1-0.7c-4.6-0.1-9.2,0-13.7,0c-1-0.1-1.9,0.4-2.8,0.8c-0.2-0.3-0.4-0.7-0.6-1
							c-1.3-0.2-2.6-0.2-3.9-0.2c-0.2-0.4-0.3-0.9-0.5-1.3c-0.1,2.9,0,5.8,0.7,8.6h-4.9c-0.6-2.9-1.1-5.7-1.6-8.6c1.7,0,3.3,0.1,5,0
							c-0.4-2.9-1-5.7-1.2-8.6c2.5-2.3,4.6-5,6.7-7.6c0.2-0.3,0.5-0.6,0.7-0.9c3,0.6,5.7,2.4,8.9,2.7c-1.4-1.4-3.5-1.6-5-2.8
							c-1.9-1.8-4.4-2.9-5.9-5.1c-1.3,0.6-2.2,1.7-3.3,2.5c-1.1-1.8-2.5-3.3-4.1-4.5c-1-0.6-0.8-2-1.7-2.6c-0.8-0.6-1.6-1.2-2.2-2.1
							c-1.1-1.6-2.2-3.2-3.2-4.9c0.7-0.5,1.5-1,2.2-1.5c-0.9-1.3-2.2-2.3-3.1-3.7c-0.7,0-1.4,0-2,0c-1.3-2.5-2.6-5-3.7-7.6
							C138.6,219.6,137.7,217.5,136.9,215.4z M184.9,268.3c-0.9,0.2-0.8,1.7,0.1,1.8c0.4,0.2,1.3-0.2,1.3,0.6
							c-0.7,0.2-2-0.3-1.9,0.8c0.9-0.1,1.9,0.3,2.6-0.3c0.3-0.5,0.3-1.4-0.4-1.6c-0.5-0.2-1.3,0.2-1.5-0.5c0.7-0.1,2,0.3,2-0.8
							C186.4,268.2,185.7,268.2,184.9,268.3z M188,268.2c0.1,0.2,0.3,0.6,0.4,0.7c0.6,0,1.1,0,1.7,0c0,0.5-0.1,1.1-0.2,1.6
							c-0.7,0.1-1.7-0.1-1.9,0.8c0.9,0.1,2.1,0.2,2.7-0.6c0.3-0.8,0.2-1.7,0.2-2.5C189.9,268.2,189,268.2,188,268.2z M206.4,268.3
							c0,0.2-0.1,0.5-0.1,0.7c0.9-0.1,2.1,0.4,2.5-0.6C208,268.3,207.2,268.3,206.4,268.3z M206.2,269.5c0.1,0.2,0.2,0.5,0.2,0.6
							c0.7-0.1,2,0.5,2.1-0.6C207.8,269.5,207,269.5,206.2,269.5z"/>
					</g>
				</g>
				<g>
					<path class="st55" d="M216.2,216.3c2.4-1,5-1.6,7.3-2.6c0,0.2,0.1,0.6,0.2,0.8c-0.6,0.3-1.3,0.6-1.9,0.9
						c0.6,0.1,1.1,0.1,1.7,0.2c0.2,2.3,0,4.6-0.3,6.9c0.6,0.2,1.2,0.3,1.8,0.4c-2.7,1.3-5.5,2.1-8.3,2.9c-0.4-1.2,0-2.4-0.2-3.6
						C216.2,220.2,216.4,218.3,216.2,216.3z"/>
					<path class="st55" d="M221.1,270.1c0.4-0.2,1.1-0.2,1.3,0.3C222.3,271.2,220.6,270.8,221.1,270.1z"/>
				</g>
				<g>
					<path class="st56" d="M230.2,242.5c7.8-3.1,15.1-7.5,21.5-12.9c0.3,0.1,0.9,0.3,1.2,0.3c-0.1,0.6,0,1.4-0.6,1.7
						c-0.6,0.4-1.2,0.8-1.8,1.1c0,0.3,0.1,0.7,0.1,1c-1.1,0.1-1.6,1.2-2.1,2c-0.6,1-1.6,1.8-2,2.9c-1.3,0.4-2.2,1.5-3.1,2.5
						c-0.5-0.7-0.9-1.3-1.3-2c-0.7,0.7-1.5,1.2-2.4,1.8c-0.8,0.6-1.1,1.6-1.8,2.2c-1.6,0.3-3,1.1-4.2,2.3c0.8,0.9,1.7,1.7,2.5,2.6
						c-1.2,0.8-2.4,1.4-3.7,2c-0.3,0.6-0.7,1.1-1.3,1.4c-1.4,0.6-2.6,1.7-4.1,1.9c-0.1,0.2-0.2,0.3-0.4,0.5
						c-2.2,0.1-3.9,1.6-5.9,2.3c0.2,0.1,0.3,0.3,0.5,0.5c-1.9-0.2-3.4,1.3-5.2,1.6c-1.5,0.3-2.9,0.8-4.4,1.3
						c-0.9-1.4-1.1-3.1-1.5-4.7c-3.3,1.3-6.9,0.5-10.3,1c-1.2,0.6-2,1.9-3.1,2.7c-3.9-1.2-7.6-2.8-11.5-4c-1.4-0.5-2.9-0.9-4.1-1.7
						c-1.2-1.5-2.6-2.9-4.4-3.4c-1.6-0.5-2.9-1.6-4.4-2.4c0.4,1.1,0.9,2.2,1.4,3.2c-2.2-0.7-4.4-1.7-6.5-2.6
						c-0.7-0.3-1.3-0.8-1.8-1.4c-0.2,0.1-0.4,0.2-0.6,0.3c-0.8-0.8-1.5-1.8-2.5-2.2c-0.5-1.8-2.5-2.4-3.4-3.9c-1.2-1.8-3-3-4.3-4.6
						c-0.8-1-1.9-1.8-2.7-2.8c0.2-0.9,1.1-1.6,1.7-2.3c6.3,5.1,13.4,9.2,21,12.1c-0.6,0.3-1.1,0.7-1.6,1c1.1,0.2,2.4,0.2,3.1,1.2
						c1.5,1.9,2.9,4,4.6,5.8c0.6,0.1,1.2,0.1,1.7,0.2c0.6,1.1,2,0.9,3,1.6c1.6,1.1,3.7,2.2,5.6,1.2c0.6,0.4,1.2,0.9,2,0.8
						c2,0,3.9,0.7,5.9,0.4c2.1-0.6,2.9-3,4.8-3.7c1.9,0.3,3.9-0.1,5.7-0.8c0.4,1.4,0.9,2.8,1.5,4.2c1,0.1,2.1,0.3,3-0.4
						c1.4-0.9,3.1-1.4,4.8-1.4c0.2-0.3,0.3-0.8,0.8-0.9c1.4-0.4,2.8-0.6,4.1-1.2c0-0.3,0-0.6,0-0.8c1.3-0.5,2.5-1,3.7-1.6
						c1.2-0.7,2.4-1.5,3.7-2c-0.1-0.1-0.3-0.4-0.4-0.5c0.7,0,1.4-0.1,2.1-0.1C232.3,244.4,231,243.6,230.2,242.5z"/>
				</g>
				<g>
					<path class="st57" d="M273.4,230.3c1.7,0,3.3-0.4,4.9-0.1c3.8,0.6,7.7,0,11.5,0.4c3,0.4,6,0.3,8.9,0.1c2-0.1,4,0.5,6,0.8
						c0.1,0.2,0.3,0.6,0.4,0.8c-3.3,1.8-6.9,3.1-10.3,4.7c-0.4,0.2-1.1,0.4-1,1c0.3,1.5,0.4,3.2,1.1,4.6c1.4,0.3,2.9,0.4,4.4,0.5
						c0.1-0.3,0.2-0.9,0.3-1.2c0.5,3.1,1,6.3,1.4,9.5c0.2,0.9,0.2,1.9,1,2.4c1.2,1,2.5,1.9,3.5,3.1c-2.5-0.5-5.1-0.1-7.6-0.5
						c-0.8-0.1-1.1-0.9-1.6-1.4c-2.6-2.2-5.4-4-7.9-6.3c-0.8-0.6-1.6-1.4-2.5-1.7c-2.1,0.8-3.9,2-6,2.9c-1.6-0.2-3.2,0.1-4.8,0.3
						c-1.2,0.2-2.1-0.8-3.2-0.8c-0.7,0-1.3,0.4-1.9,0.7c-0.6-0.2-1.2-0.5-1.8-0.7c0.2-0.6,0.4-1.3,0.5-1.9c0.9-2.4,1-5,2-7.4
						c0,0.4,0,0.9,0,1.3c1.2-0.7,2.7-0.6,4.1-0.6c0.1-0.2,0.3-0.7,0.4-0.9c0.1,0.3,0.3,0.6,0.4,0.9c1-2.1,1.7-4.4,1.9-6.7
						C276.3,232.8,274.8,231.5,273.4,230.3z"/>
				</g>
				<g>
					<path class="st58" d="M98.6,232.5c1.8-0.5,3.6,0.5,5.5,0.1c1.6-0.1,3.5-0.7,4.9,0.4c1.7,1.4,3.9,1.6,5.9,2.3c3,1.1,6,1.8,9,2.9
						c0,0.1,0,0.2,0,0.3c-2.9,1.2-5.6,2.6-8.5,3.7c-1,0.5-2.2,0.8-3.1,1.6c0.1,1.4,0.3,2.8,0.8,4c1.3,1.3,3.1,0.6,4.7,1
						c0.1-0.4,0.1-0.9,0.2-1.3c0.3,1.3,0.4,2.7,0.7,4.1c0.4,1.9,0.5,3.9,0.8,5.8c0.3,0.9-0.7,1.7-1.6,1.8c-1.8,0.2-3.7-0.2-5.4,0.3
						c-1.9-1.7-4-3.1-5.9-4.7c-0.6-0.5-1.2-1-1.9-1.3c-1.3,0.3-2.4,1.1-3.7,1.6c-2.7,1.1-5.3,2.6-8,3.8c-0.8-0.2-1.7-0.4-2.5-0.3
						c-2.5,0.3-5.2,0.5-7.6-0.4c1.1-0.7,2.3-1.2,3.4-1.8c1-0.5,0.9-1.8,1.2-2.7c0.4-2.8,1.7-5.4,1.9-8.2c-1.3-0.4-2.6,0.1-4,0
						c-1.4,0-2.9,0-4.3,0c-1.7,0-3.3-0.4-5-0.4c-4.9,0.1-9.8-0.1-14.7,0.1c0.1,3.1,0.9,6.1,1.1,9.1c1.4,1.2,3,2.2,4.2,3.6
						c-2.9-0.1-5.7,0.6-8.5,0.4c-0.1-0.8-0.1-1.7-0.7-2.2c-1.5-1.3-3.2-2.3-4.7-3.6v-17.5c0.4-0.3,0.7-0.7,1.1-1
						c0.5,1.3,0.7,2.8,1.1,4.1c0.2,0.4,0.3,0.9,0.7,1.1c1.4,0.2,2.8,0.1,4.2,0c0-1.8-0.4-3.5-0.6-5.2c3.5-0.4,7.1-0.5,10.7-0.4
						c2.5,0.1,5-0.4,7.5-0.4c1.1,0.1,2.4-0.2,3.3,0.6c2.2,1.7,4.5,3.3,6.6,5.2c0.4,0.3,0.8,0.7,1.4,0.8c2.2,0.2,4.4,0.4,6.6,0.1
						c-0.3-0.3-0.6-0.6-0.9-0.9c-2.5-1.9-4.8-4-7.1-6.1C91.1,232.9,94.9,233.4,98.6,232.5z"/>
				</g>
				<g>
					<path class="st59" d="M312.4,234.9c0.8-0.5,1.7,0.1,2.5,0.3c2.6,1,5.4,1.6,8,2.7c1.9,0.8,3.8,1.3,5.7,1.8
						c0.4,1.5,0.7,3,0.9,4.5c0.2,2,0.8,4,1.1,6c-0.1,0.1-0.3,0.4-0.5,0.6c-0.9-0.6-2.1-0.5-3.2-0.5c-1.5,0-2.9-0.4-4.3-0.4
						c-6.6,0.1-13.1,0-19.7,0c-1-0.2-1.5,0.9-2,1.5c-0.4-3.2-0.9-6.3-1.4-9.5c-0.1-0.6-0.2-1.5,0.6-1.6
						C304.3,238.6,308.3,236.7,312.4,234.9z"/>
				</g>
				<g>
					<path class="st60" d="M333.3,235.6c2.4-0.2,4.7,0,7.1-0.1c2.6-0.1,5.2,0.7,7.8,0.3c1.2-0.3,2.2,0.4,3.2,0.9c0,3.6,0,7.2,0,10.8
						c-2.6-0.6-4.9-1.7-7.4-2.5c-2,2.2-3.7,4.6-5.8,6.7c-2.4,0.2-4.7-0.1-7.1-0.2c-0.1-0.4-0.3-0.9-0.4-1.3c-0.3-2-0.9-4-1.1-6
						c-0.2-1.5-0.5-3-0.9-4.5c-1.9-0.6-3.9-1.1-5.7-1.8c1.1-0.5,2.3,0.3,3.4,0.3c2.4,0.2,4.8-0.1,7.1-0.2
						C333.4,237.1,333.4,236.4,333.3,235.6z"/>
				</g>
				<g>
					<path class="st61" d="M130.8,241.3c1.6-0.8,3.2,0.3,4.7,0.7c2.7,1.1,5.6,1.4,8.1,2.9c1.2,0.7,2.8,0.5,3.8,1.5
						c0.2,1.9,0.9,3.8,0.9,5.8c-2.5-0.2-5.1-0.2-7.6,0.1c-3.1-0.3-6.2-0.1-9.3-0.2c-2.8-0.4-5.6-0.5-8.5-0.2
						c-1.5,0.2-2.9-0.2-4.4-0.2c-0.3-1.3-0.4-2.7-0.7-4.1c0-0.9,1-1.1,1.6-1.4C123.3,244.6,127,242.9,130.8,241.3z"/>
				</g>
				<g>
					<path class="st62" d="M174.5,242.9c17.7,6.8,38,6.7,55.6-0.3c0.9,1,2.1,1.9,2.4,3.3c-0.7,0.1-1.4,0.1-2.1,0.1
						c0.1,0.1,0.3,0.4,0.4,0.5c-1.3,0.5-2.5,1.3-3.7,2c-1.2,0.6-2.5,1.1-3.7,1.6c0,0.3,0,0.6,0,0.8c-1.3,0.6-2.7,0.8-4.1,1.2
						c-0.4,0.1-0.5,0.6-0.8,0.9c-1.7,0-3.3,0.5-4.8,1.4c-0.9,0.7-2,0.5-3,0.4c-0.6-1.4-1.1-2.7-1.5-4.2c-1.8,0.7-3.8,1-5.7,0.8
						c-1.9,0.8-2.8,3.2-4.8,3.7c-2,0.3-3.9-0.5-5.9-0.4c-0.8,0.1-1.4-0.4-2-0.8c-1.9,1-4-0.2-5.6-1.2c-0.9-0.7-2.4-0.5-3-1.6
						c-0.6-0.1-1.2-0.1-1.7-0.2c-1.7-1.8-3.1-3.8-4.6-5.8c-0.7-1-2-1-3.1-1.2C173.4,243.5,174,243.2,174.5,242.9z"/>
				</g>
				<g>
					<g>
						<path class="st63" d="M343.9,245c2.5,0.8,4.8,1.9,7.4,2.5c0,4.4,0,8.8,0,13.2c-0.4-0.4-0.7-0.8-1.1-1c-1.5-0.1-3.1-0.2-4.6,0
							c-1.9,1.1-4.2,0.6-6.3,0.6c-0.1-0.4-0.2-0.9-0.3-1.3c-0.4,0-0.8,0-1.2,0c0,0.4,0.1,0.8,0.1,1.1c-0.1,0.1-0.4,0.1-0.6,0.2
							c0.3,1.8,0.5,3.6,0.8,5.4c0.5,2.1,0.5,4.2,1.1,6.3c-1.7,0.2-3.8,0.9-5.2-0.4c-0.6-4-1.4-7.8-2.2-11.8
							c-3.2,3.5-6.1,7.2-9.2,10.8c0.3,0.2,0.6,0.5,0.9,0.7c-0.6,0.7-1.5,0.5-2.4,0.5c-1.9,0-3.9-0.4-5.6,0.5
							c-0.2-0.3-0.3-0.6-0.5-0.9c0.1-0.2,0.3-0.5,0.3-0.6c-0.9-0.9-1.8-1.7-2.9-2.5c-3.3-2.5-6.4-5.3-9.9-7.6
							c0.7,3.2,0.7,6.4,1.5,9.6c-0.2,0.3-0.4,0.7-0.6,1c-0.9,0-1.9,0.1-2.8,0.1c-0.3,0.3-0.6,0.6-0.9,0.9c-0.2-0.4-0.4-0.7-0.5-1.1
							c-0.5-2.6-1.1-5.2-1.5-7.8c-0.5-2.8-0.8-5.7-1.7-8.4c0.5,0.5,0.9,1.3,1.6,1.4c2.5,0.3,5.1,0,7.6,0.5c-1-1.2-2.3-2.1-3.5-3.1
							c-0.8-0.6-0.8-1.6-1-2.4c0.5-0.6,1-1.7,2-1.5c6.6,0,13.1,0,19.7,0c1.5,0,2.9,0.4,4.3,0.4c1.1,0,2.2-0.1,3.2,0.5
							c0.1-0.1,0.3-0.4,0.5-0.6c0.1,0.4,0.2,0.9,0.4,1.3c2.3,0.1,4.7,0.3,7.1,0.2C340.2,249.6,341.9,247.2,343.9,245z M309.8,259.6
							c0.1,0.1,0.1,0.4,0.2,0.5c1.2,1,2.5,2,3.7,3.1c1.5,1.4,3.3,2.5,4.8,3.9c1.4-1,2.3-2.6,3.4-3.9c1-1.4,2.3-2.6,3.1-4.1
							c-0.8-0.5-1.7-0.3-2.6-0.3c-2.9,0.1-5.7-0.1-8.6,0.1C312.8,260,311.2,259.4,309.8,259.6z"/>
					</g>
				</g>
				<g>
					<path class="st64" d="M61.3,245.3c4.9-0.1,9.8,0,14.7-0.1c1.7,0,3.3,0.4,5,0.4c1.4,0,2.9,0,4.3,0c1.3,0,2.7-0.4,4,0
						c-0.2,2.8-1.4,5.4-1.9,8.2c-0.3,0.9-0.2,2.2-1.2,2.7c-1.1,0.6-2.3,1.1-3.4,1.8c2.5,0.9,5.1,0.6,7.6,0.4
						c0.8-0.1,1.7,0.1,2.5,0.3c-0.9,0.5-2,1-2.1,2.1c-0.6,2.4-1.4,4.7-2,7c-1.7,0.6-3.6,0.5-5.4,0.3c0.5-1.7,0.9-3.4,1.2-5.1
						c-3.9,1.9-7.7,3.9-11.7,5.6c-3-2.4-5.9-4.8-9-7c0.2,1.6,0.5,3.2,0.8,4.8c-0.1,0.5-0.2,1-0.3,1.5c-1.5,0.2-3-0.1-4.5-0.3
						c-0.3-1.2-0.6-2.3-0.7-3.5c-0.3-1.9-0.9-3.8-1-5.8c2.9,0.2,5.7-0.5,8.5-0.4c-1.2-1.4-2.8-2.4-4.2-3.6
						C62.1,251.4,61.4,248.4,61.3,245.3z"/>
					<path class="st64" d="M206.9,260.5c1.4,0.1,2.8,0.4,4-0.5c0.6,1.3,0.7,2.7,1.1,4c4.9,1.4,9.7,3.2,14.6,4.8
						c0.6,0.2,1.2,0.4,1.7,0.1c3.2-1.4,6.4-2.9,9.6-4.4c1.3-0.6,2.8-0.9,3.9-2c0.1,0.3,0.2,0.6,0.3,1c1.1,0,2.3,0,3.4,0.1
						c0.6-0.1,0.7,0.6,1,0.9c0.1-0.5,0.1-1,0.2-1.5c0.3,1.1,0.3,2.2,0.2,3.3c-4,1.6-7.9,3.4-11.9,5.1c-1.3-0.3-2.6,0-3.9,0
						c-2.1,0.1-4.1-0.3-6.1-0.5c-0.1-0.2-0.2-0.4-0.3-0.6c-0.5,0.3-1,0.5-1.5,0.8c-0.1-0.8-0.1-1.6-0.1-2.5
						c-0.7-0.6-1.8-0.2-2.7-0.3c0,1.1,0,2.1,0,3.2c-0.2,0-0.5,0-0.7,0c-0.5-1-0.8-2.1-1.4-3c-0.3-0.1-0.6-0.1-0.9-0.2
						c-0.4,1-0.9,1.9-1.3,2.9c-0.1-0.2-0.2-0.7-0.3-0.9c-0.2-0.1-0.7-0.3-0.9-0.4c0-0.2,0-0.5,0-0.6c0.4-0.3,0.8-0.5,1.2-0.8
						c-0.9-0.1-1.8-0.1-2.8-0.1c-0.1,0.2-0.2,0.5-0.3,0.7c-0.2,0.1-0.6,0.2-0.8,0.2c0-0.2,0-0.7,0-0.9c-0.2,0-0.5-0.1-0.6-0.1
						c-0.1,0.4-0.1,0.8-0.2,1.3c-0.2,0-0.7,0-0.9,0c-0.1-0.4-0.2-0.7-0.3-1.1c-0.1-0.1-0.4-0.2-0.5-0.2c-0.7-0.3-1.4-0.5-2.1-0.8
						C207.1,265.1,206.4,262.8,206.9,260.5z"/>
				</g>
				<g>
					<path class="st65" d="M279.9,250c2-0.9,3.9-2.1,6-2.9c1,0.3,1.7,1,2.5,1.7c2.5,2.3,5.3,4.2,7.9,6.3c0.9,2.7,1.2,5.6,1.7,8.4
						c-3.7-0.4-7.4,0.6-11.1,0.4c-2.1,0-4-0.9-6.1-0.8c-3.4,0.1-6.8-0.2-10.2,0.2c-1,1-1.3,2.5-1.7,3.8c-0.1,0.4-0.3,0.8,0,1.2
						c0.8,0.9,1.9,1.5,2.8,2.3c-0.5,0.3-1,0.6-1.6,0.5c-1.8-0.2-3.7-0.4-5.5-0.2c-0.5-0.4-1.1-0.8-1.5-1.3c-0.1-1.1,0.5-2.1,0.7-3.1
						c0.4-1.5,0.6-3.1,1.1-4.6c0.9,1.1,2.3,0.1,3.4,0.3c0.5,0.2,1,0.5,1.6,0.7c1-2.1,1.4-4.5,2.1-6.7c0.4-1.1,0.3-2.6,1.6-3.1
						C275.7,252,277.9,251.2,279.9,250z"/>
				</g>
				<g>
					<path class="st66" d="M153.9,253.1c1.4-1.7,2.8-3.5,4.7-4.7c0.1,0.4,0.3,0.8,0.4,1.3c1.1,0.6,2.4,1.2,2.7,2.6
						c-2.2,2.6-4.2,5.3-6.7,7.6c-2,0.1-4.1,0.1-6.1,0c1.2-2.5-0.3-5.2-0.5-7.7c1.7,0.2,3.5,0.3,5.2-0.1
						C153.6,252.5,153.7,252.8,153.9,253.1z"/>
				</g>
				<g>
					<path class="st67" d="M241.2,251.5c1.2-0.6,2.1-1.5,3.2-2.3c0.9-0.2,1.6,0.7,2.3,1.1c2.9,1.8,5.2,4.4,8,6.3
						c3.7-1.7,7.3-3.7,11-5.5c0.9-0.5,2-0.9,2.6-1.8c0.6,0.2,1.2,0.5,1.8,0.7c0.6-0.3,1.2-0.7,1.9-0.7c1.1,0,2.1,1,3.2,0.8
						c1.6-0.2,3.2-0.5,4.8-0.3c-2,1.2-4.2,2-6.4,3c-1.3,0.5-1.2,2-1.6,3.1c-0.7,2.2-1.1,4.6-2.1,6.7c-0.5-0.3-1-0.5-1.6-0.7
						c-1.1-0.2-2.5,0.8-3.4-0.3c0.5-1.5,0.8-3.1,1.1-4.7c-3.3,1.5-6.6,3-9.9,4.7c-0.7,0.3-1.5,0.9-2.2,0.3c-2.9-2-5.5-4.5-8.5-6.4
						c0.3,2.5,0.6,4.9,1.1,7.4c-0.1,0.5-0.1,1-0.2,1.5c-0.3-0.4-0.4-1-1-0.9c-1.1-0.1-2.3-0.1-3.4-0.1c-0.1-0.3-0.2-0.7-0.3-1
						c-0.9-2.9-1.3-6-1.9-8.9c0.6-0.6,1.2-1.1,1.8-1.7C241.5,251.8,241.3,251.6,241.2,251.5z"/>
				</g>
				<g>
					<path class="st68" d="M118.6,251.6c1.5,0,2.9,0.4,4.4,0.2c2.8-0.3,5.7-0.2,8.5,0.2c3.1,0.1,6.2-0.1,9.3,0.2
						c2.5-0.3,5-0.3,7.6-0.1c0.1,2.6,1.7,5.2,0.5,7.7c2,0.1,4.1,0.1,6.1,0c0.2,2.9,0.8,5.7,1.2,8.6c-1.7,0.1-3.3,0.1-5,0
						c-0.1-0.9-0.3-1.7-0.5-2.6c-1.3,0.8-1.9,2.4-3,3.4c-2.3,2.5-4.5,5.1-6.6,7.8h-6.9c-4-3.6-8.6-6.5-12.5-10.2
						c-0.1-0.1-0.2-0.2-0.3-0.3c-0.2,0.8-0.3,1.7-0.3,2.6c-1.2,0.2-2.5,0.2-3.7-0.1c-1-0.6-1.1-2-1.3-3c-0.4-1.6-0.2-3.6-1.6-4.8
						c-0.6-0.6-1.3-1.2-2-1.8c1.8-0.5,3.6-0.1,5.4-0.3c0.9-0.1,1.8-0.8,1.6-1.8C119.1,255.5,119,253.5,118.6,251.6z"/>
				</g>
				<g>
					<path class="st69" d="M52.6,252.7c1.5,1.3,3.2,2.3,4.7,3.6c0.7,0.5,0.6,1.4,0.7,2.2c0.1,2,0.8,3.8,1,5.8
						c-0.3-0.2-0.5-0.5-0.8-0.7c-2,0.2-3.9-0.5-5.7-1.3V252.7z"/>
				</g>
				<g>
					<path class="st70" d="M245.4,255.6c3,1.9,5.6,4.4,8.5,6.4c0.7,0.6,1.5,0,2.2-0.3c3.2-1.7,6.5-3.2,9.9-4.7
						c-0.3,1.6-0.6,3.2-1.1,4.7c-0.5,1.5-0.7,3.1-1.1,4.6c-0.3-0.5-0.5-1.2-1.2-1c-5.1,0-10.1-0.6-15.2-0.3
						c-0.1,0.4-0.2,0.8-0.4,1.2l-0.3,0.1c0.1-1.1,0.1-2.2-0.2-3.3C246.1,260.6,245.8,258.1,245.4,255.6z"/>
				</g>
				<g>
					<path class="st71" d="M322.8,270.5c3.1-3.6,6-7.3,9.2-10.8c0.8,3.9,1.7,7.8,2.2,11.8c0.2,1.1,0.4,2.3,0.4,3.5
						c-2.1,0-4.2,0.3-6.3,0c-1.7-0.9-3-2.5-4.6-3.6C323.4,271,323.1,270.7,322.8,270.5z"/>
				</g>
				<g>
					<path class="st72" d="M302.8,260.7c3.5,2.3,6.5,5.1,9.9,7.6c1,0.7,2,1.5,2.9,2.5c-0.1,0.2-0.3,0.5-0.3,0.6
						c-1.1,1.5-2.3,2.9-3.5,4.3c-2.1,0-4.3,0-6.5,0c-0.6-1.7-0.5-3.6-0.9-5.4C303.5,267.1,303.5,263.9,302.8,260.7z"/>
					<path class="st72" d="M270.6,263.3c3.4-0.4,6.8-0.1,10.2-0.2c2.1-0.1,4,0.8,6.1,0.8c3.7,0.2,7.4-0.7,11.1-0.4
						c0.4,2.6,1,5.2,1.5,7.8c0,1.6,0.5,3.1,0.7,4.7c-2.5,0.2-5-0.1-7.5,0.2c-4,0.6-8.1-0.1-12.2,0.6c-1.1,0.3-1.9-0.6-2.7-1.2
						c-1.9-1.8-4.1-3.3-6.1-5c-0.9-0.8-2-1.4-2.8-2.3c-0.3-0.3-0.1-0.8,0-1.2C269.4,265.7,269.7,264.3,270.6,263.3z"/>
				</g>
				<g>
					<path class="st73" d="M63.8,261.8c3.1,2.2,6.1,4.6,9,7c4-1.7,7.8-3.7,11.7-5.6c-0.3,1.7-0.7,3.4-1.2,5.1
						c-0.5,2.2-1.2,4.4-1.6,6.6c-0.3,1,0.8,1.6,1.5,2.1H55c3-1.6,6.2-2.8,9.2-4.2c0.5-0.2,1.1-0.5,1-1.2c0-1.7-0.3-3.4-0.6-5.1
						C64.3,265,64,263.4,63.8,261.8z"/>
					<path class="st73" d="M147.7,269.3c1.1-1,1.7-2.6,3-3.4c0.2,0.9,0.4,1.7,0.5,2.6c0.4,2.9,1,5.7,1.6,8.6h-11.6
						C143.1,274.4,145.4,271.9,147.7,269.3z"/>
					<path class="st73" d="M156.9,268.5c0.2,0.4,0.3,0.9,0.5,1.3c1.3,0,2.6,0.1,3.9,0.2c0.2,0.3,0.4,0.7,0.6,1
						c0.9-0.4,1.8-0.9,2.8-0.8c4.6,0,9.2,0,13.7,0c0,0.2,0.1,0.5,0.1,0.7c0.4-0.2,0.8-0.4,1.1-0.5c0.1,0.2,0.2,0.5,0.3,0.7
						c0,0.1,0.1,0.2,0.1,0.3c0.1,0,0.4,0,0.6,0c1.7,0,3.4,0.8,5.1,0.4c-1.3,1.8-2.7,3.5-4,5.3h-24.2
						C157,274.3,156.9,271.4,156.9,268.5z"/>
					<path class="st73" d="M200.9,268.7c0.6,0.8,0.8,1.8,1.1,2.7c0.2,0,0.6,0,0.8,0.1c0-0.6-0.1-1.2-0.1-1.8
						c0.4,0.2,0.9,0.4,1.3,0.6c-0.2-0.3-0.4-0.8-0.6-1.1c0.1,0,0.3,0.1,0.4,0.2c0.2,0.1,0.5,0.3,0.7,0.4c0,0.6,0.1,1.1,0.1,1.7
						c0.2,0,0.6-0.1,0.8-0.1c0-0.5,0-1,0-1.5c0.3,0.5,0.6,1,0.8,1.6c0.9,0,1.8,0,2.7,0c0.1,0,0.4,0,0.6,0c0.2,0,0.6,0,0.8,0
						c0-0.3,0-0.9,0-1.2c0.4-0.1,0.7-0.1,1.1-0.2c0,0.5,0,1,0,1.5c1.2,0,0.6-1.5,0.7-2.2c0.2-0.1,0.6-0.2,0.8-0.2c0.3,0,0.8,0,1.1,0
						c0,0.8,0,1.7,0,2.5c1,0,0.7-1,0.7-1.7c0.2,0.1,0.7,0.3,0.9,0.4c0.1,0.2,0.2,0.7,0.3,0.9l0.1,0.4c0.4-0.2,0.8-0.5,1.1-0.9
						c0.8,0.2,1.5,0.5,2.3,0.8c0.5,0.2,1,0.3,1.4,0.5c-3.4,1.9-7.1,3.2-10.5,5.1h-21.9c1.3-2,3.3-3.5,4.3-5.7
						c0.1-0.2,0.2-0.6,0.3-0.7c0.4,0.1,0.8,0.1,1.2,0.2c0.1,0.1,0.2,0.3,0.3,0.4c0.1,0.1,0.3,0.3,0.4,0.5c0.5-0.1,0.9-0.1,1.4-0.2
						c1-0.1,2.1,0,2.8-0.8C199.9,270.1,200.4,269.4,200.9,268.7z"/>
				</g>
				<g>
					<path class="st74" d="M52.6,262.3c1.8,0.8,3.7,1.4,5.7,1.3c0.3,0.2,0.5,0.5,0.8,0.7c0.1,1.2,0.4,2.4,0.7,3.5
						c-0.1,0.5,0.1,1.3-0.5,1.6c-2.1,1.3-4.5,2.1-6.7,3.1V262.3z"/>
					<path class="st74" d="M247.4,265c5.1-0.3,10.1,0.3,15.2,0.3c0.7-0.1,0.9,0.6,1.2,1c-0.3,1-0.8,2-0.7,3.1c0.5,0.5,1,0.9,1.5,1.3
						c2.5,2.2,5.3,4.2,7.8,6.4h-21.8c-0.6-0.4-1.1-0.7-1.8-0.9c-3.2-1.1-6.4-2.1-9.6-3.3c-1.4-0.5-2.9-0.8-4.3-1.5
						c4-1.7,7.9-3.5,11.9-5.1l0.3-0.1C247.2,265.8,247.3,265.4,247.4,265z"/>
				</g>
				<g>
					<path class="st75" d="M338.3,265.6c3.8,0.2,7.6,0,11.3,0.1c0.8-0.1,1.2,0.7,1.7,1.1c0,2.5,0,5,0,7.5c-3.9-0.2-7.8,0.6-11.7,0.3
						c-0.1-0.9-0.1-1.8-0.3-2.7C338.8,269.8,338.8,267.6,338.3,265.6z"/>
				</g>
				<g>
					<path class="st76" d="M64.6,266.6c0.3,1.7,0.6,3.4,0.6,5.1c0.1,0.7-0.5,0.9-1,1.2c-3.1,1.4-6.2,2.6-9.2,4.2h-2.4v-4.5
						c2.2-1.1,4.6-1.9,6.7-3.1c0.6-0.3,0.4-1.1,0.5-1.6c1.5,0.2,3,0.5,4.5,0.3C64.4,267.6,64.5,267.1,64.6,266.6z"/>
				</g>
				<g>
					<path class="st77" d="M122.8,277.1c-0.5-3.4-1.2-6.8-1.2-10.2c4,3.7,8.5,6.6,12.5,10.2H122.8z"/>
					<path class="st77" d="M227.9,274.8c0.9-0.3,1.8,0.1,2.6,0.3c1.9,0.7,3.8,1.2,5.7,2h-13.6C224.4,276.2,226.1,275.4,227.9,274.8z
						"/>
				</g>
				<g>
					<g>
						<path class="st78" d="M181.3,268.2c0.2,0,0.7,0.1,0.9,0.1c0.5,1.1,0.9,2.2,1.4,3.3c-0.8-0.3-1.6-0.7-2.4-0.8
							c-0.1,0.2-0.3,0.6-0.4,0.7c-0.1,0-0.4,0-0.6,0c0-0.1-0.1-0.2-0.1-0.3C180.4,270.1,180.9,269.2,181.3,268.2z M181.7,269.7"/>
					</g>
					<path class="st78" d="M184.9,268.3c0.7-0.1,1.5-0.1,2.3-0.1c-0.1,1.1-1.3,0.7-2,0.8c0.2,0.7,1,0.4,1.5,0.5
						c0.7,0.2,0.6,1.1,0.4,1.6c-0.7,0.6-1.8,0.3-2.6,0.3c-0.1-1.1,1.2-0.6,1.9-0.8c0-0.7-0.9-0.4-1.3-0.6
						C184.1,270,184.1,268.4,184.9,268.3z"/>
					<path class="st78" d="M206.4,268.3c0.8,0,1.6,0,2.5,0c-0.4,1-1.7,0.5-2.5,0.6C206.3,268.8,206.4,268.4,206.4,268.3z"/>
					<path class="st78" d="M213.3,268.3c0.9-0.1,1.8,0,2.8,0.1c-0.4,0.3-0.8,0.5-1.2,0.8c0,0.2,0,0.5,0,0.6
						c-0.1,0.7,0.3,1.7-0.7,1.7c0-0.9,0-1.7,0-2.5c-0.3,0-0.8,0-1.1,0C213.1,268.8,213.2,268.5,213.3,268.3z"/>
				</g>
				<g>
					<path class="st79" d="M188,268.2c1,0,1.9,0,2.9,0c0,0.8,0.1,1.7-0.2,2.5c-0.6,0.9-1.8,0.7-2.7,0.6c0.2-0.9,1.2-0.7,1.9-0.8
						c0.1-0.5,0.2-1.1,0.2-1.6c-0.6,0-1.1,0-1.7,0C188.3,268.8,188.1,268.4,188,268.2z"/>
				</g>
				<g>
					<g>
						<path class="st80" d="M193.3,268.2c0.4,0.1,1-0.1,1.1,0.4c0.5,0.9,0.8,1.9,1.2,2.8c-0.2,0-0.7-0.1-1-0.2
							c-0.1-0.1-0.2-0.3-0.3-0.4c-0.4-0.1-0.8-0.2-1.2-0.2c-0.1,0.2-0.2,0.6-0.3,0.7c-0.2,0-0.7,0-0.9,0
							C192.3,270.4,192.8,269.3,193.3,268.2z M193.5,269.6c-0.2,0.6,0,0.8,0.6,0.6C194.3,269.6,194.1,269.4,193.5,269.6z"/>
					</g>
				</g>
				<g>
					<g>
						<path class="st81" d="M196.4,268.1c0.7,0.1,1.5,0,2.2,0.3c0.9,0.4,0.6,1.5,0.7,2.3c-0.7,0.8-1.9,0.7-2.8,0.8
							C196.1,270.4,196.9,269.2,196.4,268.1z M197.1,270.7c1.4,0.5,1.8-1.9,0.3-1.9C197.3,269.4,197.2,270.1,197.1,270.7z"/>
					</g>
				</g>
				<g>
					<path class="st82" d="M202.1,268.2c0.2,0,0.6,0.1,0.8,0.2c0.2,0.3,0.4,0.5,0.6,0.8c0.1,0.3,0.4,0.8,0.6,1.1
						c-0.4-0.2-0.9-0.4-1.3-0.6c0,0.6,0.1,1.2,0.1,1.8c-0.2,0-0.6,0-0.8-0.1C202,270.3,202,269.2,202.1,268.2z"/>
				</g>
				<g>
					<path class="st83" d="M204.7,268.3c0.2,0,0.5,0,0.7,0c0,0.5,0,1,0,1.5c0,0.5,0,1,0,1.5c-0.2,0-0.6,0.1-0.8,0.1
						c0-0.6,0-1.2-0.1-1.7c-0.2-0.1-0.5-0.3-0.7-0.4C204.1,269,204.4,268.6,204.7,268.3z"/>
					<path class="st83" d="M206.2,269.5c0.8,0,1.6,0,2.4,0c-0.1,1.1-1.4,0.5-2.1,0.6C206.4,269.9,206.3,269.6,206.2,269.5z"/>
				</g>
				<g>
					<path class="st84" d="M209.6,268.2c0.1,0.1,0.4,0.2,0.5,0.2c0.1,0.4,0.2,0.7,0.3,1.1c0.2,0,0.7,0,0.9,0
						c0.1-0.4,0.1-0.8,0.2-1.3c0.2,0,0.5,0.1,0.6,0.1c0,0.2,0,0.7,0,0.9c-0.1,0.7,0.5,2.3-0.7,2.2c0-0.5,0-1,0-1.5
						c-0.4,0.1-0.7,0.1-1.1,0.2c0,0.3,0,0.9,0,1.2c-0.2,0-0.6,0-0.8,0C209.6,270.3,209.6,269.2,209.6,268.2z"/>
					<g>
						<path class="st84" d="M217.3,268.2c0.3,0.1,0.6,0.1,0.9,0.2c0.6,0.9,0.9,2,1.4,3c-0.8-0.3-1.5-0.6-2.3-0.8
							c-0.3,0.4-0.7,0.7-1.1,0.9l-0.1-0.4C216.5,270.2,216.9,269.2,217.3,268.2z M217.5,269.6c-0.2,0.6,0,0.8,0.5,0.7
							C218.3,269.6,218.1,269.4,217.5,269.6z"/>
					</g>
					<g>
						<path class="st84" d="M220.3,268.3c0.9,0.1,1.9-0.2,2.7,0.3c0,0.8,0,1.6,0.1,2.5c-0.9,0.4-1.9,0.3-2.8,0.4
							C220.3,270.4,220.3,269.3,220.3,268.3z M221,268.9c-0.3,1.2,1.7,1,1.5,0C221.9,268.9,221.5,268.9,221,268.9z M221.1,270.1
							c-0.4,0.7,1.3,1,1.3,0.3C222.2,269.9,221.5,269.9,221.1,270.1z"/>
					</g>
				</g>
				<g>
					<path class="st85" d="M88.5,269.6c0.3-0.9,1.3-0.9,2.1-0.8c2.2,0.1,4.3,0,6.5,0.1c1,0,1.8,0.8,2.9,0.7c2,0,3.9,0,5.9-0.2
						c1.1-0.2,2,0.8,3.1,0.6c2.2-0.2,4.4-0.5,6.6-0.5c0.1-0.2,0.3-0.7,0.5-0.9c1.3,2.7,1.1,5.7,2,8.5H90.4c-1-0.9-2.3-1.7-3-2.9
						C87.4,272.6,88.1,271.1,88.5,269.6z"/>
				</g>
				<g>
					<path class="st86" d="M221,268.9c0.5,0,1,0,1.5,0C222.6,269.9,220.6,270.1,221,268.9z"/>
				</g>
				<g>
					<path class="st87" d="M197.1,270.7c0.1-0.6,0.2-1.3,0.3-1.9C198.9,268.9,198.6,271.2,197.1,270.7z"/>
				</g>
				<g>
					<path class="st88" d="M181.7,269.7"/>
				</g>
				<g>
					<path class="st89" d="M193.5,269.6c0.6-0.2,0.8,0,0.6,0.6C193.5,270.4,193.3,270.2,193.5,269.6z"/>
				</g>
				<g>
					<path class="st90" d="M217.5,269.6c0.6-0.2,0.8,0.1,0.5,0.7C217.5,270.4,217.3,270.2,217.5,269.6z"/>
				</g>
				<g>
					<path class="st91" d="M223.1,271.1c0.5-0.2,1-0.5,1.5-0.8c0.1,0.2,0.2,0.4,0.3,0.6c2,0.2,4.1,0.6,6.1,0.5c1.3,0,2.6-0.2,3.9,0
						c1.4,0.6,2.9,1,4.3,1.5c3.2,1.2,6.4,2.2,9.6,3.3c0.6,0.2,1.2,0.6,1.8,0.9h-14.4c-1.8-0.8-3.8-1.3-5.7-2
						c-0.8-0.3-1.8-0.7-2.6-0.3c-1.8,0.7-3.6,1.5-5.3,2.3h-12.2c3.4-1.9,7.1-3.2,10.5-5.1c-0.5-0.2-1-0.3-1.4-0.5c0.2,0,0.5,0,0.7,0
						C221.2,271.4,222.2,271.5,223.1,271.1z"/>
				</g>
				<g>
					<path class="st92" d="M271.7,270.5c1.9,1.8,4.1,3.3,6.1,5c0.8,0.6,1.6,1.5,2.7,1.2c4-0.7,8.1,0,12.2-0.6c2.5-0.3,5,0.1,7.5-0.2
						c-0.2-1.6-0.7-3.1-0.7-4.7c0.2,0.4,0.4,0.7,0.5,1.1c0.3-0.3,0.6-0.6,0.9-0.9c0.9,0,1.8-0.1,2.8-0.1c0.2-0.3,0.4-0.7,0.6-1
						c0.4,1.8,0.3,3.7,0.9,5.4c2.1,0.1,4.3,0,6.5,0c1.2-1.4,2.4-2.9,3.5-4.3c0.2,0.3,0.3,0.6,0.5,0.9c1.8-0.9,3.8-0.5,5.6-0.5
						c0.8,0,1.8,0.2,2.4-0.5c1.6,1.1,2.9,2.7,4.6,3.6c2.1,0.3,4.2,0.1,6.3,0c0-1.2-0.1-2.3-0.4-3.5c1.4,1.3,3.5,0.6,5.2,0.4
						c0.2,0.9,0.2,1.8,0.3,2.7c3.9,0.3,7.8-0.5,11.7-0.3c0,1,0,1.9,0,2.9h-78.9c-2.5-2.2-5.3-4.1-7.8-6.4c1.8-0.2,3.7,0,5.5,0.2
						C270.7,271.1,271.3,270.8,271.7,270.5z"/>
				</g>
				<g>
					<path class="st93" d="M206.3,271.4c0-1.2,1.5-0.6,2.2-0.7c0.1,0.2,0.4,0.5,0.5,0.7C208.1,271.4,207.2,271.4,206.3,271.4z"/>
				</g>
			</g>
		</g>
	</g>
	<g>
		<path class="st34" d="M101.4,290.1c-0.2,1-0.6,1.8-1.1,2.4c-0.5,0.6-1.2,1.1-2.1,1.5c-0.8,0.3-1.9,0.5-3.1,0.5
			c-0.5,0-0.9,0-1.4-0.1c-0.5-0.1-0.9-0.2-1.3-0.4v-3.8c0.2,0.2,0.5,0.3,0.8,0.3c0.3,0,0.6,0.1,1,0.1c0.5,0,0.9-0.3,1.1-0.9
			c0.2-0.6,0.3-1.5,0.3-2.8v-12.3h6.3v7c0,0.3,0.1,0.6,0.2,0.8c0.1,0.2,0.3,0.4,0.5,0.5s0.4,0.2,0.7,0.2s0.5,0.1,0.8,0.1h0.9
			c0.2,0,0.3,0,0.4,0.1c0.1,0,0.2,0.2,0.2,0.4v3.6c0,0.2-0.2,0.3-0.6,0.3h-0.6c-0.6,0-1-0.2-1.4-0.5s-0.7-0.8-0.9-1.4h-0.1v1.4
			C101.7,288,101.6,289.1,101.4,290.1z"/>
		<path class="st34" d="M104.2,286.9v-3.6c0-0.2,0.1-0.3,0.2-0.4c0.1,0,0.3-0.1,0.4-0.1h4.5v-8.5h6.3v12.8h-10.7
			C104.4,287.2,104.2,287.1,104.2,286.9z M115.7,290.1v3.5h-5.6v-3.5H115.7z"/>
		<path class="st34" d="M126.9,283c0.1,0,0.2,0.2,0.2,0.4v3.6c0,0.2-0.2,0.3-0.6,0.3h-7.8v-21.5h6.3v17.2h1.5
			C126.7,282.9,126.8,283,126.9,283z"/>
		<path class="st34" d="M148.1,283c0.1,0,0.2,0.2,0.2,0.4v3.6c0,0.2-0.2,0.3-0.6,0.3h-21.2c-0.4,0-0.6-0.1-0.6-0.3v-3.6
			c0-0.2,0.1-0.3,0.2-0.4c0.1,0,0.3-0.1,0.4-0.1h2.8v-0.1c-0.8-0.9-1.1-1.9-1.1-2.9c0-1.3,0.2-2.4,0.7-3.3s1.1-1.7,1.8-2.3
			c0.8-0.6,1.7-1.1,2.8-1.4c1.1-0.3,2.2-0.4,3.5-0.4s2.4,0.1,3.5,0.4c1.1,0.3,2,0.7,2.8,1.3s1.4,1.4,1.9,2.3
			c0.5,0.9,0.7,2.1,0.7,3.4c0,1-0.4,2-1.1,2.9v0.1h2.9C147.8,282.9,148,283,148.1,283z M136,265.7v3.5h-4.8v-3.5H136z M134.5,281.2
			c0.1,0.4,0.2,0.7,0.4,1c0.2,0.3,0.5,0.5,0.8,0.7c0.3,0.2,0.7,0.3,1.2,0.3s0.9-0.1,1.2-0.3c0.3-0.2,0.6-0.4,0.8-0.7s0.3-0.6,0.4-1
			c0.1-0.4,0.1-0.8,0.1-1.3c0-0.4,0-0.9-0.1-1.3c-0.1-0.4-0.2-0.8-0.4-1.1c-0.2-0.3-0.5-0.5-0.8-0.7c-0.3-0.2-0.7-0.3-1.2-0.3
			s-0.9,0.1-1.2,0.3s-0.6,0.4-0.8,0.7c-0.2,0.3-0.3,0.7-0.4,1.1c-0.1,0.4-0.1,0.8-0.1,1.3C134.4,280.3,134.4,280.8,134.5,281.2z
			 M142.1,265.7v3.5h-4.8v-3.5H142.1z"/>
		<path class="st34" d="M155.1,287.5c-1.3-0.4-2.4-1.1-3.2-2.1c-0.3,0.6-0.7,1.1-1.3,1.4c-0.6,0.3-1.2,0.5-1.9,0.5h-1.1
			c-0.4,0-0.6-0.1-0.6-0.3v-3.6c0-0.2,0.1-0.3,0.2-0.4c0.1,0,0.3-0.1,0.4-0.1h0.9c0.3,0,0.5,0,0.7-0.1c0.2-0.1,0.4-0.2,0.6-0.3
			s0.3-0.4,0.4-0.6c0.1-0.3,0.1-0.7,0.1-1.1c0-1.3,0.2-2.5,0.7-3.4c0.5-0.9,1.1-1.7,1.9-2.3s1.8-1,2.8-1.3s2.3-0.4,3.5-0.4
			s2.4,0.1,3.5,0.4s2,0.7,2.8,1.3c0.8,0.6,1.4,1.4,1.9,2.3c0.5,0.9,0.7,2.1,0.7,3.4c0,0.5,0,0.9,0.1,1.1c0.1,0.3,0.2,0.5,0.4,0.6
			s0.4,0.3,0.6,0.3c0.2,0,0.5,0.1,0.7,0.1h0.9c0.2,0,0.3,0,0.4,0.1c0.1,0,0.2,0.2,0.2,0.4v3.6c0,0.2-0.2,0.3-0.6,0.3h-1.1
			c-0.7,0-1.3-0.2-1.9-0.5c-0.6-0.3-1-0.8-1.3-1.4c-0.8,1-1.9,1.7-3.2,2.1c-1.3,0.4-2.7,0.7-4.2,0.7S156.4,287.9,155.1,287.5z
			 M160.5,283.8c0.3-0.2,0.6-0.4,0.8-0.7c0.2-0.3,0.3-0.6,0.4-1c0.1-0.4,0.1-0.8,0.1-1.3c0-0.4,0-0.9-0.1-1.3
			c-0.1-0.4-0.2-0.8-0.4-1.1c-0.2-0.3-0.5-0.5-0.8-0.7c-0.3-0.2-0.7-0.3-1.2-0.3s-0.9,0.1-1.2,0.3c-0.3,0.2-0.6,0.4-0.8,0.7
			s-0.3,0.7-0.4,1.1c-0.1,0.4-0.1,0.8-0.1,1.3c0,0.5,0,0.9,0.1,1.3c0.1,0.4,0.2,0.7,0.4,1s0.5,0.5,0.8,0.7c0.3,0.2,0.7,0.3,1.2,0.3
			S160.2,284,160.5,283.8z"/>
		<path class="st34" d="M170.3,286.9v-3.6c0-0.2,0.1-0.3,0.2-0.4c0.1,0,0.3-0.1,0.4-0.1h1.7c0.4,0,0.8-0.1,1.1-0.4
			c0.4-0.3,0.5-0.8,0.5-1.5v-15.3h6.3v15.2c0,0.8,0.1,1.3,0.4,1.6s0.7,0.4,1.1,0.4h1.6c0.2,0,0.3,0,0.4,0.1c0.1,0,0.2,0.2,0.2,0.4
			v3.6c0,0.2-0.2,0.3-0.6,0.3h-1.6c-0.8,0-1.4-0.2-2-0.5c-0.6-0.4-1-0.9-1.4-1.5c-0.4,0.4-0.8,0.8-1.2,1c-0.5,0.3-0.9,0.5-1.4,0.6
			c-0.5,0.2-1,0.3-1.5,0.3c-0.5,0.1-1,0.1-1.4,0.1h-2.3C170.5,287.2,170.3,287.1,170.3,286.9z"/>
		<path class="st34" d="M187,265.7h6.3v21.5h-9.6c-0.4,0-0.6-0.1-0.6-0.3v-3.6c0-0.2,0.1-0.3,0.2-0.4c0.1,0,0.3-0.1,0.4-0.1h3.4
			V265.7z"/>
		<path class="st34" d="M216.6,291.2c0.7-0.1,1.3-0.2,1.8-0.4c0.5-0.2,0.9-0.5,1.2-0.9s0.5-0.8,0.5-1.4c0-0.3-0.1-0.6-0.2-0.8
			s-0.4-0.4-0.7-0.5c-0.3-0.2-0.7-0.3-1.2-0.5c-0.5-0.2-1-0.4-1.7-0.7c-0.8-0.3-1.6-0.7-2.3-1.2s-1.4-1-1.9-1.7
			c-0.6-0.6-1-1.3-1.3-1.9c-0.3-0.7-0.5-1.4-0.5-2.1c0-2,0.7-3.6,2.1-4.8c1.4-1.2,3.4-1.8,5.9-1.8c1,0,1.9,0.1,2.7,0.4
			c0.9,0.3,1.6,0.7,2.3,1.2c0.7,0.5,1.2,1.2,1.6,2c0.4,0.8,0.6,1.7,0.7,2.7h-5.1c-0.2-1.5-1-2.2-2.2-2.2c-0.5,0-0.9,0.2-1.2,0.7
			s-0.5,1.1-0.5,1.9c0,0.2,0.1,0.5,0.2,0.7s0.3,0.5,0.6,0.8c0.3,0.3,0.7,0.5,1.2,0.8c0.5,0.3,1.1,0.6,1.9,0.8c1.1,0.4,2,0.8,2.8,1.2
			s1.4,0.9,1.8,1.4c0.5,0.5,0.8,1.1,1,1.7c0.2,0.6,0.3,1.2,0.3,1.9c0,2.2-1,4-3,5.3c-2,1.3-5,1.9-9,1.9c-2.4,0-4.4-0.3-5.9-0.9
			s-2.8-1.4-3.7-2.4s-1.5-2.3-1.9-3.8s-0.6-3.1-0.6-4.9h4.9c0,1.3,0.1,2.5,0.4,3.5s0.6,1.8,1.2,2.4c0.6,0.6,1.3,1.1,2.2,1.4
			s2.1,0.4,3.4,0.4C215.2,291.3,215.9,291.3,216.6,291.2z"/>
		<path class="st34" d="M227.3,282.9h7.2v-2c0-1.3-0.2-2.3-0.6-2.9c-0.4-0.6-1.1-1-2.1-1h-3.1V273h3.1c1.2,0,2.3,0.1,3.4,0.4
			c1.1,0.3,2.1,0.7,2.9,1.3c0.8,0.6,1.5,1.4,2,2.4s0.8,2.2,0.8,3.6v6.5h-13.5V282.9z"/>
		<path class="st34" d="M260,282.3c0,0.2,0,0.4,0,0.7h2.6c0.2,0,0.3,0,0.4,0.1c0.1,0,0.2,0.2,0.2,0.4v3.6c0,0.2-0.2,0.3-0.6,0.3
			h-3.2c-0.6,2.4-1.7,4.2-3.2,5.4c-1.6,1.2-3.8,1.8-6.6,1.8c-0.4,0-0.8,0-1.2-0.1c-0.4-0.1-0.7-0.1-1-0.2c-0.4-0.1-0.7-0.2-1-0.2
			V290c0.2,0.1,0.4,0.1,0.6,0.2c0.3,0.1,0.5,0.1,0.8,0.2c0.3,0,0.5,0.1,0.7,0.1c0.2,0,0.5,0,0.6,0c1.3,0,2.2-0.3,2.9-0.8
			c0.7-0.5,1.1-1.3,1.3-2.5h-2.7c-1,0-2-0.2-2.9-0.5s-1.7-0.8-2.4-1.4s-1.3-1.3-1.7-2.2c-0.4-0.9-0.6-1.8-0.6-2.9
			c0-1.1,0.2-2.2,0.5-3.2s0.8-1.8,1.5-2.5s1.6-1.2,2.6-1.6c1.1-0.4,2.4-0.6,3.9-0.6c1.5,0,2.8,0.2,3.9,0.5c1.1,0.4,1.9,0.9,2.6,1.7
			c0.7,0.7,1.2,1.7,1.5,2.8c0.3,1.2,0.5,2.5,0.5,4.1V282.3z M249.5,281.4c0,0.3,0.2,0.6,0.3,0.8c0.2,0.2,0.4,0.4,0.7,0.5
			c0.3,0.1,0.7,0.2,1.1,0.2h2.2v-1.5c0-0.7,0-1.4-0.1-2c-0.1-0.6-0.2-1.1-0.3-1.6c-0.2-0.4-0.4-0.8-0.7-1c-0.3-0.2-0.7-0.4-1.1-0.4
			c-0.4,0-0.8,0.1-1,0.3c-0.3,0.2-0.5,0.5-0.7,0.9c-0.2,0.4-0.3,0.8-0.4,1.2s-0.1,0.9-0.1,1.3C249.4,280.7,249.4,281.1,249.5,281.4z
			"/>
		<path class="st34" d="M262,286.9v-3.6c0-0.2,0.1-0.3,0.2-0.4c0.1,0,0.3-0.1,0.4-0.1h3.8c0.4,0,0.8-0.1,1.1-0.4
			c0.4-0.3,0.5-0.8,0.5-1.5v-6.6h6.3v6.5c0,0.8,0.1,1.3,0.4,1.6s0.7,0.4,1.1,0.4h1.7c0.2,0,0.3,0,0.4,0.1c0.1,0,0.2,0.2,0.2,0.4v3.6
			c0,0.2-0.2,0.3-0.6,0.3h-1.7c-0.8,0-1.4-0.2-2-0.5c-0.6-0.4-1-0.9-1.4-1.5c-0.4,0.4-0.8,0.8-1.2,1c-0.5,0.3-0.9,0.5-1.4,0.6
			s-1,0.3-1.5,0.3c-0.5,0.1-1,0.1-1.4,0.1h-4.3C262.2,287.2,262,287.1,262,286.9z M274.4,290.1v3.5h-5.6v-3.5H274.4z"/>
		<path class="st34" d="M276.9,286.9v-3.6c0-0.2,0.1-0.3,0.2-0.4c0.1,0,0.3-0.1,0.4-0.1h1.7c0.4,0,0.8-0.1,1.1-0.4
			c0.4-0.3,0.5-0.8,0.5-1.5v-15.3h6.3v15.2c0,0.8,0.1,1.3,0.4,1.6c0.3,0.3,0.7,0.4,1.1,0.4h1.6c0.2,0,0.3,0,0.4,0.1
			c0.1,0,0.2,0.2,0.2,0.4v3.6c0,0.2-0.2,0.3-0.6,0.3h-1.6c-0.8,0-1.4-0.2-2-0.5c-0.6-0.4-1-0.9-1.4-1.5c-0.4,0.4-0.8,0.8-1.2,1
			c-0.5,0.3-0.9,0.5-1.4,0.6c-0.5,0.2-1,0.3-1.5,0.3c-0.5,0.1-1,0.1-1.4,0.1h-2.3C277.1,287.2,276.9,287.1,276.9,286.9z"/>
		<path class="st34" d="M293.6,265.7h6.3v21.5h-9.6c-0.4,0-0.6-0.1-0.6-0.3v-3.6c0-0.2,0.1-0.3,0.2-0.4c0.1,0,0.3-0.1,0.4-0.1h3.4
			V265.7z"/>
		<path class="st34" d="M302.8,265.7h6.3v21.5h-6.3V265.7z"/>
	</g>
</g>
</svg>
