<?xml version="1.0" encoding="utf-8"?>
<!-- Generator: Adobe Illustrator 22.0.0, SVG Export Plug-In . SVG Version: 6.00 Build 0)  -->
<svg version="1.1" id="Layer_1" xmlns="http://www.w3.org/2000/svg" xmlns:xlink="http://www.w3.org/1999/xlink" x="0px" y="0px"
	 viewBox="0 0 400 400" style="enable-background:new 0 0 400 400;" xml:space="preserve">
<style type="text/css">
	.st0{clip-path:url(#SVGID_2_);}
	.st1{fill:#F9C216;}
	.st2{fill:#B99214;}
	.st3{fill:#6ACAE4;}
	.st4{fill:#7BD8E8;}
	.st5{fill:#8FE8ED;}
	.st6{fill:#5BBDE0;}
	.st7{fill:#E5F4FB;}
	.st8{fill:#3AA4D8;}
	.st9{fill:#359FD7;}
	.st10{fill:#2B98D4;}
	.st11{fill:#E0F1F9;}
	.st12{fill:#8EE7EC;}
	.st13{fill:#7FDBE9;}
	.st14{fill:#2E9BD5;}
	.st15{fill:#2A96D4;}
	.st16{fill:#9CF2F1;}
	.st17{fill:#CCE9F5;}
	.st18{fill:#85DFEA;}
	.st19{fill:#82DDEA;}
	.st20{fill:#76D3E7;}
	.st21{fill:#7AD6E8;}
	.st22{fill:#F8C215;}
	.st23{fill:#875E03;}
	.st24{fill:#C49A16;}
	.st25{fill:#FAC419;}
	.st26{fill:#70CEE6;}
	.st27{fill:#F9CC33;}
	.st28{fill:#F8C61D;}
	.st29{fill:#6CCCE4;}
	.st30{fill:#B78701;}
	.st31{fill:#F7B600;}
	.st32{fill:#61C6E2;}
	.st33{fill:#996A01;}
	.st34{fill:#E69901;}
	.st35{fill:#80DCEA;}
	.st36{fill:#F8D04D;}
	.st37{fill:#FED752;}
	.st38{fill:#F9C829;}
	.st39{fill:#3FA8D9;}
	.st40{fill:#349FD7;}
	.st41{fill:#F9C318;}
	.st42{fill:#79D6E8;}
	.st43{fill:#5FC2E1;}
	.st44{fill:#72D1E6;}
	.st45{fill:#3EA7D9;}
	.st46{fill:#47AFDB;}
	.st47{fill:#6CCBE4;}
	.st48{fill:#64C6E2;}
	.st49{fill:#4CB2DC;}
	.st50{fill:#67C9E4;}
	.st51{fill:#56C0E0;}
	.st52{fill:#50B6DE;}
	.st53{fill:#54BDDF;}
	.st54{fill:#4BB4DD;}
	.st55{fill:#49AFDB;}
	.st56{fill:#3EAFDC;}
	.st57{fill:#67C7E3;}
	.st58{fill:#60C2E1;}
	.st59{fill:#61C2E2;}
	.st60{fill:#68C8E4;}
	.st61{fill:#5ABDE0;}
	.st62{fill:#36ABDA;}
	.st63{fill:#59BCE0;}
	.st64{fill:#56B9DF;}
	.st65{fill:#55B8DF;}
	.st66{fill:#5EBFE1;}
	.st67{fill:#5FC0E1;}
	.st68{fill:#51B6DE;}
	.st69{fill:#4EB3DD;}
	.st70{fill:#4FB4DD;}
	.st71{fill:#4AB0DC;}
	.st72{fill:#49B0DB;}
	.st73{fill:#42ABDA;}
	.st74{fill:#47AEDB;}
	.st75{fill:#49B0DC;}
	.st76{fill:#4FB3DD;}
	.st77{fill:#41AADA;}
	.st78{fill:#FCFFFD;}
	.st79{fill:#FBFEFF;}
	.st80{fill:#FAFFFC;}
	.st81{fill:#FCFEFE;}
	.st82{fill:#EBFAFC;}
	.st83{fill:#FEFEFC;}
	.st84{fill:#FBFFFF;}
	.st85{fill:#42AADA;}
	.st86{fill:#97CFE3;}
	.st87{fill:#5CB4D9;}
	.st88{fill:#62A9C5;}
	.st89{fill:#A7D4E1;}
	.st90{fill:#9DD0DF;}
	.st91{fill:#50B4DD;}
	.st92{fill:#51B4DE;}
	.st93{fill:#DEF6FC;}
</style>
<g>
	<defs>
		<rect id="SVGID_1_" x="87" y="95.9" width="228" height="162.4"/>
	</defs>
	<clipPath id="SVGID_2_">
		<use xlink:href="#SVGID_1_"  style="overflow:visible;"/>
	</clipPath>
	<g class="st0">
		<g>
			<path class="st1" d="M196.6,96.8c0.6-2,2.5-3.3,4.5-3.6c-1.4,0.7-2.8,1.6-3.2,3.2c-1,2.7,1.5,5.8,4.3,5.7c2.1,0,3.9-1.7,4.3-3.8
				c0.1,2.7-2.2,5.1-4.9,5.1c0,0.8-0.1,1.7,0.6,2.3c0.7,0.9-0.1,1.8-0.6,2.5c0.7,0.8,0.5,1.8,0,2.7c1,0.7,1.4,2.4,0.1,3
				c-0.5,0-1,0-1.6,0.1c-0.2-0.4-0.7-0.8-0.7-1.3c-0.1-0.8,0.6-1.2,0.8-1.9c-0.2-0.7-0.6-1.4-0.1-2.1c0.6-0.9-0.8-1.4-0.6-2.3
				c0-0.6,0.5-1,0.8-1.5c0.1-0.6,0-1.1,0-1.7C197.4,102.6,195.6,99.5,196.6,96.8z"/>
		</g>
		<g>
			<path class="st2" d="M200.1,114.1c0.5-0.1,1-0.1,1.6-0.1c1.9,0.6,3.7,1.3,5.5,2.1c1.1,0.5,2.4,0.9,3.2,1.9
				c-1.4-0.7-2.9-1.2-4.4-1.5c0.5,0.7,1,1.3,1.4,2c-0.6-0.3-1.2-0.7-1.9-1c-0.6-0.3-1.3-0.5-2-0.7c-0.2,0.5-0.3,1.1-0.5,1.6
				c-0.7-0.6-1.5-1.1-2.2-1.6c-0.8,0.5-1.6,1.1-2.3,1.6c-0.2-0.6-0.3-1.1-0.5-1.7c-1.2,0.5-2.4,1-3.5,1.7l-0.2-0.1
				c0.5-0.6,0.9-1.2,1.4-1.9c-1.6,0.3-3.1,0.9-4.5,1.6c1.1-1,2.5-1.5,3.8-2.1C196.7,115.2,198.4,114.5,200.1,114.1z"/>
		</g>
		<g>
			<path class="st3" d="M191.3,117.9c1.4-0.7,2.9-1.3,4.5-1.6c-0.5,0.6-0.9,1.2-1.4,1.9l0.2,0.1c0.9,0.7,1.6,1.7,2.4,2.5
				c9.1,9.1,18.2,18.2,27.3,27.3c1.5,1.5,3.1,2.9,4.2,4.8c-2,0.8-3.9,1.7-5.9,2.7c0.2-0.4,0.3-0.8,0.5-1.2
				c-10.3-10.3-20.7-20.7-31-31c-0.9-1-1.9-1.9-3.1-2.4c0-0.3-0.1-0.6-0.1-0.9c-0.3-0.1-0.7-0.2-1-0.2
				C189,119.1,190.2,118.5,191.3,117.9z"/>
		</g>
		<g>
			<path class="st4" d="M194.6,118.3c1.1-0.6,2.3-1.2,3.5-1.7c0.2,0.6,0.3,1.1,0.5,1.7c0.7-0.6,1.5-1.1,2.3-1.6
				c0.7,0.5,1.5,1.1,2.2,1.6c0.2-0.5,0.3-1.1,0.5-1.6c0.7,0.2,1.3,0.4,2,0.7c0,0.4,0.1,0.8,0.1,1.2c1,0.7,1.9,1.5,2.7,2.4
				c9.6,9.7,19.4,19.3,29,29.1c-3,0.7-6,1.7-8.9,2.9c-1.1-1.8-2.7-3.3-4.2-4.8c-9.1-9.1-18.2-18.2-27.3-27.3
				C196.3,120,195.5,119,194.6,118.3z"/>
		</g>
		<g>
			<path class="st5" d="M206,116.4c1.5,0.3,3,0.8,4.4,1.5c8.2,4.1,15.4,10,21,17.2c3.5,4.3,6.2,9.2,8.5,14.2
				c-0.7,0.5-1.6,0.6-2.5,0.7c-9.6-9.8-19.4-19.4-29-29.1c-0.8-0.9-1.8-1.6-2.7-2.4c0-0.4-0.1-0.8-0.1-1.2c0.6,0.3,1.2,0.7,1.9,1
				C207,117.7,206.5,117.1,206,116.4z"/>
			<path class="st5" d="M115.9,169.9c0.7,0,1.4-0.1,2.1-0.1c-0.5,2.7-1,5.3-1.2,8c0,2.8-0.8,5.6-1.3,8.3c-0.4,1.4,0.9,2.7,0.5,4.2
				c-0.5,2.3-0.5,4.7-1.3,6.9c-0.5,1.5-0.3,3.1-1,4.6c-2.1,0.1-4.2,0.1-6.3,0.1c-1.6,0-3.1-0.7-4.7-0.3c-1.2,1.5-0.9,3.8-2.1,5.4
				c-1.3,0.2-2.5,0.1-3.8,0.2c-0.1,0.3-0.3,0.6-0.4,0.9c-1.2-2.1,0-4.4,0-6.6c-2.8-0.2-5.6,0.2-8.3-0.3c0.6,1.9,1.8,3.5,2.2,5.4
				c-1.5,0-3.1,0.4-4.6,0.3c-1-0.6-1.4-2.4-2.9-2.2c-3.7,0.3-7.5-0.1-11.3,0.4c-1.1,0.1-2,1-3,1.4c-1.4,0.1-2.9-0.1-4.3-0.1
				c-0.7,0-1.1-0.7-1.6-1.1c-1.9-0.1-3.7,0.4-5.6,0.4c4.1-6.8,9.4-12.8,15.4-18c1.7,0.3,2.5,2,3.1,3.4c1.8,0.1,3.6,0.3,5.4-0.3
				c-0.5-1.7-1.8-3-2.2-4.7c1.7-0.1,3.5-0.7,5.2-0.1c3.9,1.2,7.9-0.5,11.8,0.1c2.4,2.4,6,2.3,9,3.6c1.3,0.6,2.8,0.7,4.2,1.1
				c1,0.2,2.1,1.2,3.1,0.4c0.2,0.1,0.3,0.2,0.5,0.3c0.1-1.1,0.4-2.2,0.7-3.2c0.4-0.9-0.8-1.2-1.3-1.7c0.3-0.6,0.7-1.1,1-1.7
				c-0.5-1.5,1.1-2.8,0.9-4.3c-0.2-1.4,0.1-2.7,0.3-4.1C114.3,174.1,114.5,171.7,115.9,169.9z"/>
			<path class="st5" d="M283.6,169.8c0.3,0,0.8,0,1.1,0c0.5,0,1,0.1,1.5,0.1c1.4,1.7,0.8,4,1.3,6c0.3,1.9-0.3,4,0.5,5.9
				c0.6,1.4,0.1,3,0.4,4.5c0,1,0.8,1.7,1.1,2.6c0.1,1-1.2,1.6-1,2.6c0.3,1.3,0.7,2.8,1.9,3.7c0.3-0.2,0.7-0.4,1-0.6
				c4.2-1.6,8.2-3.6,12.6-4.6c0.9-0.1,1.7,0.5,2.6,0.4c1.5-0.1,3.1,0.2,4.6-0.2c0.8-0.3,1.5,0.2,2.2,0.5c1.9,0.9,4.2,0.4,6.1,1.3
				c1.8,0.9,3.9,1,5.8,1.7c1,0.4,1.5,1.3,2.1,2.1c0.1-0.1,0.3-0.2,0.4-0.2c1.4,0.7,2.9,0.4,4.4,0.4c0-2-1.8-3.3-1.7-5.3
				c0.4-0.1,0.8-0.2,1.2-0.3c-0.2,0.3-0.4,0.5-0.5,0.8c1.2,0.7,2.5,1.2,3.8,1.8c4.5,4.6,8.4,9.9,11.5,15.5c-0.4-0.1-0.9-0.3-1.3-0.4
				c-0.1-0.3-0.2-0.6-0.3-0.9c-0.8,0.1-1.6,0.2-2.3,0.5c-0.4,0.7-0.6,1.5-0.8,2.2c-0.4,1.1,0.4,2.1,0.8,3c-2.2,0.1-4.3,0.1-6.5,0
				c0.2-2.7-1.8-4.8-3.2-6.9c-4.8-0.3-9.6,0.3-14.4-0.4c-1.2-0.1-2.3,0.3-3.5,0.1c-2.9-0.4-5.8,0-8.8-0.2c-1.2-0.1-2.5-0.4-3.7-0.4
				c-1.7,0-3.4,0.6-5.2,0.4c-2.9-0.2-5.9-1.3-8.8-0.3c-0.6,1.3-1,2.6-1.3,4c-0.3,1-0.5,2.3-1.5,2.7c-0.3-0.6-0.4-1.3-0.3-2
				c0-2-0.1-4-0.1-6c0.7-4.2,0.1-8.4,0.5-12.6c0.1-1.3-0.1-2.7-0.2-4c-0.4-2.8,0.1-5.6-0.6-8.3C284.6,176.1,284.3,172.9,283.6,169.8
				z"/>
		</g>
		<g>
			<path class="st6" d="M182,123.6c1.9-1.4,3.8-2.7,5.9-3.8c0.3,0.1,0.7,0.2,1,0.2c0,0.3,0.1,0.6,0.1,0.9c1.2,0.5,2.2,1.5,3.1,2.4
				c10.3,10.3,20.7,20.7,31,31c-0.2,0.4-0.3,0.8-0.5,1.2c-1.9,1-3.8,2.1-5.6,3.3c-0.5-1.4-1.4-2.5-2.8-3c-0.5-1-1-2-2-2.4
				c-1.4-0.6-1.6-2.4-3-3c-1.4-0.6-1.6-2.4-3-3c-0.8-0.4-1.3-1-1.7-1.7c-0.5-1.2-2.2-1.3-2.7-2.5c-0.5-1.1-1.6-1.6-2.5-2.3
				c-0.6-0.8-1-1.9-2.1-2.3c-1.4-0.5-1.5-2.2-2.8-2.8c-0.8-0.4-1.5-1.1-1.9-1.9c-0.6-1.2-2.1-1.3-2.7-2.5c-0.4-0.8-1-1.5-1.9-1.9
				c-1.2-0.6-1.4-2.3-2.7-2.8c-1.1-0.5-1.7-1.7-2.4-2.6c-0.2,0.1-0.5,0.2-0.7,0.3C182.4,124.2,182.1,123.8,182,123.6z"/>
			<path class="st6" d="M189.5,223.4c3.3,0.6,6.7,0.8,10.1,0.9c1.6,0,3.3-0.1,4.9,0.1c-0.9,0.3-1.8,0.4-2.7,0.4
				c0.3,0.1,0.8,0.3,1,0.3c0,2.4-0.5,4.7-0.4,7.1c-0.5,0.1-0.9,0.2-1.4,0.3c0.7,0.2,1.4,0.6,2.1,1c-0.1,0.2-0.3,0.4-0.4,0.6
				c0.7,0.1,1.4,0.2,2.2,0.3c-5.4,0.5-10.9,0-16.3-1.1c-0.2-1-0.5-1.9-0.4-2.9c0.3-1.6,0.2-3.2,0.2-4.7
				C188.4,224.8,189.1,224.1,189.5,223.4z"/>
		</g>
		<g>
			<path class="st7" d="M264.2,127.3c0.2-0.1,0.6-0.4,0.8-0.5c2.1,2.7,4.5,5.2,6.5,8c4.4,6.5,8.2,13.5,11,20.9
				c1.7,4.6,2.8,9.4,4,14.2l-0.2,0c-0.5,0-1-0.1-1.5-0.1c-0.7-0.3-2-0.2-2.1-1.1c-0.5-2.7-1.4-5.3-2.1-8c-0.5-1.7-1.4-3.2-1.8-4.9
				c-0.1-0.7-0.5-1.2-1-1.6c-0.3-0.7-0.5-1.3-0.7-2c-1.7-5.8-4.3-11.3-7.2-16.5C268.1,132.8,266.1,130,264.2,127.3z"/>
		</g>
		<g>
			<path class="st8" d="M167.9,138.3c2.5-3.7,5.4-7,8.6-10.1c1.6,0.5,2.6,1.9,3.8,3c9.3,9.3,18.6,18.6,27.9,27.9
				c1.2,1.3,2.3,2.5,3.8,3.6c-4.1,3.3-7.8,7.2-11,11.3l-0.1,0.1c-1.6-2-3.3-4-5-5.8c0.4-0.5,0.9-0.9,1.1-1.6
				c-0.9-0.8-1.9-1.7-2.4-2.9c-0.2,0.1-0.3,0.3-0.5,0.4c-0.3-0.5-0.5-0.9-1-1.3c-1.4-1.2-2.6-2.6-3.9-3.9
				c-6.4-6.3-12.7-12.7-19.1-19.1C169.6,139.2,168.8,138.6,167.9,138.3z"/>
		</g>
		<g>
			<path class="st9" d="M242.8,131.3c4.1,3.7,7.5,8.2,10.3,13c7.4,12.6,9.8,28,6.8,42.3c-2.2,11-7.7,21.3-15.4,29.4
				c-0.9-1-0.5-2.5-0.7-3.7c-0.2-2.3,0.5-4.6,0.1-6.9c1.3-1.5,2.6-3.1,3.7-4.8c7.5-10.8,11-24.2,9.5-37.3
				c-0.8-8.2-3.6-16.2-7.9-23.3c-0.9-1.4-1.7-2.8-2.9-3.9C245.1,134.5,244.1,132.8,242.8,131.3z"/>
		</g>
		<g>
			<path class="st10" d="M158.3,132.1c-0.2,0.5-0.5,0.9-0.8,1.3c-6.6,9.5-9.9,21.1-9.4,32.6c0.6,15.5,8.6,30.5,21,39.8
				c-0.1,0.2-0.2,0.6-0.2,0.8c0.5,0.2,0.9,0.5,1.4,0.7c-0.4,0.1-0.7,0.3-1.1,0.4c-0.3,2.3,0.3,4.7-0.5,7c-0.5-0.3-1-0.6-1.4-1
				c-2.5-1.8-4.8-3.9-7-6c-2.1-2.3-4.1-4.7-6-7.2c-5.9-8.7-9.4-19-9.8-29.6c-0.5-11.5,2.8-23.2,9.2-32.8c0.5-0.8,1-1.6,1.5-2.4
				C156,134.4,157.2,133.2,158.3,132.1z"/>
		</g>
		<g>
			<path class="st11" d="M131.7,134.1c0.3,0,0.7,0.1,1,0.1c-1,2.3-2.4,4.4-3.5,6.7c-3.3,7-5.7,14.4-6.9,22c-0.6,2.8-0.6,5.8-1,8.6
				c0-0.6,0-1.2,0-1.8c-1.1,0-2.2,0-3.3,0.1c-0.7,0-1.4,0.1-2.1,0.1l-0.2,0c0.5-1.1,0.8-2.2,1-3.4c0.5-2.6,1.5-5,2.1-7.6
				c1.3-4,3-8,4.8-11.8c1.1-2.2,2.4-4.3,3.6-6.5C128.7,138.5,130.1,136.2,131.7,134.1z"/>
		</g>
		<g>
			<path class="st12" d="M154,136.7c0.3-0.4,0.6-0.8,1.2-0.9c-0.4,0.8-0.9,1.7-1.5,2.4c-6.4,9.6-9.6,21.3-9.2,32.8
				c0.3,10.5,3.8,20.9,9.8,29.6c0.4,1.4,0.6,2.9,0.1,4.4c-0.5,1.4,0.5,3.6-1.2,4.3c0.6,0.6,1.2,1.3,1.6,2.1
				c-0.2,0.3-0.4,0.6-0.6,0.9c-11.4-13.9-15.9-33-12-50.5C144,152.6,148.2,144,154,136.7z"/>
		</g>
		<g>
			<path class="st13" d="M246.3,136.1c1.2,1.1,2,2.5,2.9,3.9c4.3,7.1,7,15.1,7.9,23.3c1.4,13-2.1,26.5-9.5,37.3
				c-0.3,0-0.7,0.1-1,0.1c0.1-2.6-0.7-5.3,0.3-7.9c0.4-0.7-0.4-1.1-0.8-1.6c3.4-5.7,5.9-12,7-18.6c2.1-11.8,0-24.4-6-34.8
				C246.7,137.2,246.5,136.7,246.3,136.1z"/>
		</g>
		<g>
			<path class="st14" d="M161.9,149.5c1.6-4,3.7-7.7,6.1-11.2c0.9,0.4,1.6,0.9,2.2,1.7c6.4,6.3,12.7,12.8,19.1,19.1
				c1.3,1.3,2.5,2.7,3.9,3.9c0.4,0.3,0.7,0.8,1,1.3c0.2-0.1,0.3-0.3,0.5-0.4c0.5,1.2,1.4,2,2.4,2.9c-0.2,0.6-0.7,1.1-1.1,1.6
				C186.8,158.7,174.8,152.1,161.9,149.5z"/>
		</g>
		<g>
			<path class="st15" d="M153.1,153.6c12.8,0.4,25.5,4.9,35.7,12.6c3.9,2.9,7.3,6.4,10.5,10c0,0-0.1,0.1-0.1,0.1
				c-6.8,9.8-10.9,21.5-11.5,33.4c-7.2-2-13.9-5.7-19.5-10.8c-8.9-8-14.7-19.5-15.8-31.5C152,162.9,152.3,158.2,153.1,153.6z"/>
		</g>
		<g>
			<path class="st16" d="M236.4,155.3c4-0.9,8.2-1.7,12.3-1.5c1.6,8.8,0.9,18-2.3,26.3c-5.3,14.2-17.6,25.7-32.3,29.6
				c-0.8-11.9-4.7-23.6-11.6-33.3l0.1-0.1C211.1,165.8,223.3,158.3,236.4,155.3z"/>
			<path class="st16" d="M72.5,187.6c12-10.3,27.3-16.6,43.1-17.7l0.2,0c-1.3,1.8-1.5,4.2-1.7,6.4c-0.2,1.4-0.4,2.7-0.3,4.1
				c0.2,1.5-1.4,2.8-0.9,4.3c-0.4,0.5-0.7,1.1-1,1.7c0.5,0.5,1.7,0.8,1.3,1.7c-0.4,1-0.7,2.1-0.7,3.2c-0.2-0.1-0.3-0.2-0.5-0.3
				c-1,0.8-2-0.2-3.1-0.4c-1.4-0.3-2.8-0.5-4.2-1.1c-3-1.3-6.6-1.2-9-3.6c-3.9-0.6-8,1.1-11.8-0.1c-1.7-0.6-3.5,0-5.2,0.1
				c0.4,1.7,1.8,3,2.2,4.7c-1.7,0.6-3.6,0.4-5.4,0.3C75,189.6,74.2,188,72.5,187.6z"/>
			<path class="st16" d="M286.2,169.9l0.2,0c18.3,1.3,36,9.7,48.5,23c-1.3-0.6-2.6-1.1-3.8-1.8c0.2-0.3,0.4-0.5,0.5-0.8
				c-0.4,0.1-0.8,0.2-1.2,0.3c-0.1,2,1.8,3.3,1.7,5.3c-1.5,0.1-3,0.3-4.4-0.4c-0.1,0.1-0.3,0.2-0.4,0.2c-0.6-0.8-1.2-1.8-2.1-2.1
				c-1.9-0.7-3.9-0.8-5.8-1.7c-1.9-0.9-4.2-0.4-6.1-1.3c-0.7-0.3-1.4-0.8-2.2-0.5c-1.5,0.5-3.1,0.1-4.6,0.2
				c-0.9,0.1-1.7-0.5-2.6-0.4c-4.4,1-8.4,3-12.6,4.6c-0.3,0.2-0.7,0.4-1,0.6c-1.2-0.8-1.6-2.3-1.9-3.7c-0.3-1,1.1-1.6,1-2.6
				c-0.4-0.9-1.1-1.6-1.1-2.6c-0.2-1.5,0.3-3.1-0.4-4.5c-0.8-1.9-0.2-3.9-0.5-5.9C286.9,174,287.6,171.6,286.2,169.9z"/>
		</g>
		<g>
			<path class="st17" d="M277.7,154.3c0.5,0.4,0.9,0.9,1,1.6c0.4,1.7,1.3,3.2,1.8,4.9c0.7,2.7,1.6,5.3,2.1,8c0.1,1,1.4,0.9,2.1,1.1
				c-0.3,0-0.8,0-1.1,0c-1,0-2.1,0-3.1,0C280,164.6,279.1,159.4,277.7,154.3z"/>
		</g>
		<g>
			<path class="st18" d="M118,169.8c1.1-0.1,2.2-0.1,3.3-0.1c0,0.6,0,1.2,0,1.8c-0.2,2.2-0.1,4.5-0.2,6.7c-0.5-1.9-0.1-3.9-0.4-5.8
				c-0.8,3.4-0.7,7-1.5,10.4c-0.4,1.6-0.9,3.2-0.6,4.9c0.4,2-0.1,4-0.2,6c-0.7,2.5-1.2,5.2-1.2,7.8c0.1,2.2-0.2,4.5,0.3,6.6
				c0.4,1.5-0.5,3.1,0.1,4.6c0.4,1,0.4,2,0.1,3c-5.3-0.4-10.6-0.1-15.9-0.2c-1,0-2.4-0.2-2.8,1c-0.4,1.1-1.2,2.4-0.5,3.6
				c0.7,1.2,1.4,2.3,1.8,3.6c-2.8,0-5.6,0.1-8.4,0c0.2-1.3,0.6-2.6,0.6-3.9c-0.5-1.6-1.7-2.8-2.3-4.3c-1-2.1-2.4-4-3.8-5.9
				c-0.4-0.6-1.1-0.5-1.7-0.5c-3.1-0.1-6.1-0.1-9.2,0c-2.3,0.2-4.4-1.5-6.7-0.9c-2.2,1.6-3.5,4.1-5.6,5.9c-0.7,0.6-1.3,1.3-1.8,2
				c-1.9-0.4-3.9-0.3-5.9-0.4c1.2-2.7,3.8-4.6,4.9-7.4c-1.1,0.2-2.2,0.3-3.4,0.5c-0.2-0.3-0.3-0.5-0.5-0.8c-0.3,0.5-0.8,0.8-1.3,1.1
				c0.6-1.2,1.2-2.3,1.9-3.5c1.9,0.1,3.7-0.4,5.6-0.4c0.5,0.4,0.9,1.1,1.6,1.1c1.4,0,2.9,0.2,4.3,0.1c1-0.4,1.9-1.2,3-1.4
				c3.7-0.4,7.5-0.1,11.3-0.4c1.5-0.3,1.9,1.6,2.9,2.2c1.5,0.1,3.1-0.2,4.6-0.3c-0.4-1.9-1.6-3.5-2.2-5.4c2.7,0.5,5.5,0.1,8.3,0.3
				c0,2.2-1.3,4.5,0,6.6c0.1-0.3,0.3-0.6,0.4-0.9c1.3-0.1,2.5,0,3.8-0.2c1.2-1.5,0.9-3.8,2.1-5.4c1.6-0.4,3.1,0.3,4.7,0.3
				c2.1,0,4.2,0,6.3-0.1c0.6-1.5,0.5-3.1,1-4.6c0.8-2.2,0.8-4.6,1.3-6.9c0.3-1.5-0.9-2.7-0.5-4.2c0.6-2.8,1.4-5.5,1.3-8.3
				C117,175.2,117.5,172.5,118,169.8z"/>
		</g>
		<g>
			<path class="st19" d="M280.4,169.8c1,0,2.1,0,3.1,0c0.7,3.1,1,6.3,1.4,9.4c0.7,2.7,0.2,5.6,0.6,8.3c0.2,1.3,0.3,2.6,0.2,4
				c-0.4,4.2,0.2,8.4-0.5,12.6c0,2,0,4,0.1,6c-0.1,0.7,0,1.3,0.3,2c1.1-0.4,1.3-1.7,1.5-2.7c0.3-1.4,0.6-2.7,1.3-4
				c2.9-1,5.9,0.1,8.8,0.3c1.7,0.2,3.4-0.4,5.2-0.4c1.2,0,2.5,0.3,3.7,0.4c2.9,0.2,5.9-0.2,8.8,0.2c1.2,0.2,2.3-0.2,3.5-0.1
				c4.8,0.7,9.6,0.1,14.4,0.4c1.4,2.1,3.4,4.2,3.2,6.9c2.2,0.1,4.3,0.1,6.5,0c-0.4-1-1.2-2-0.8-3c0.2-0.8,0.4-1.5,0.8-2.2
				c0.7-0.3,1.5-0.4,2.3-0.5c0.1,0.3,0.2,0.6,0.3,0.9c0.4,0.1,0.9,0.2,1.3,0.4c3.9,7,6.7,14.7,8.1,22.6c-2.3-0.7-4.7,0-7-0.3
				c-1-1-1.9-2.1-3-2.9c-0.2,0.4-0.5,0.7-0.7,1.1c-1.4-1.4-3.3,0-4.9-0.7c-0.5,0.2-1,0.3-1.4,0.5c-1.8,0-3.5,0-5.3-0.1
				c0.2-2.4,0.8-4.8,1.1-7.2c-2.1,0.4-4.2-0.3-6.3-0.2c-4.5,0.1-8.9,0-13.4,0c-2.1,0.1-4.2-0.6-6.3-0.4c-3.6,0.2-7.2-0.3-10.8,0.3
				c-1.6,0.3-3.2-0.2-4.8,0.1c0.7,2.4,2.4,4.3,3,6.7c-1.2-0.1-2.5-0.3-3.7-0.2c-0.5,0-1.2,0.2-1.6-0.4c-1.7-2.2-3.1-4.7-4.5-7.1
				c-0.4,2-1.1,4-1.7,6c-0.2,0.7-0.7,1.5-1.5,1.4c-1.1,0-3.1,0.4-3.2-1.2c0.2-1.2,1-2.3,0.8-3.5c-0.4-3,1-5.8,1.6-8.7
				c0.3-2.3,0.8-4.6,1.1-6.8c1.2-3.5,1.8-7.3,1.6-11c-0.2-5.2-1.3-10.4-1.2-15.6c-0.1-2.8-1-5.6-0.6-8.4c-0.4-0.3-0.8-0.6-1.2-0.9
				C280.6,170.9,280.5,170.3,280.4,169.8z"/>
		</g>
		<g>
			<path class="st20" d="M280.6,171.4c0.4,0.3,0.8,0.6,1.2,0.9c-0.3,2.8,0.6,5.6,0.6,8.4c-0.2,5.2,1,10.4,1.2,15.6
				c0.1,3.7-0.5,7.5-1.6,11c-0.3,2.3-0.8,4.6-1.1,6.8c-0.6,2.9-2,5.7-1.6,8.7c0.2,1.2-0.6,2.3-0.8,3.5c0.1,1.6,2.1,1.2,3.2,1.2
				c0.8,0,1.3-0.7,1.5-1.4c0.6-2,1.3-3.9,1.7-6c1.4,2.5,2.8,4.9,4.5,7.1c0.3,0.6,1,0.3,1.6,0.4c1.2-0.1,2.5,0.2,3.7,0.2
				c-0.6-2.4-2.3-4.3-3-6.7c1.6-0.3,3.2,0.2,4.8-0.1c3.6-0.6,7.2-0.1,10.8-0.3c2.1-0.2,4.2,0.5,6.3,0.4c4.5-0.1,8.9,0,13.4,0
				c2.1-0.1,4.2,0.6,6.3,0.2c-0.3,2.4-0.9,4.8-1.1,7.2c1.7,0.1,3.5,0.1,5.3,0.1c-0.3,1.3-0.3,2.9-1.3,4c-1.6,1-3.5,1.3-5.2,2.3
				c-2.4,1.5-5.1,2.2-7.6,3.4c0,0.3,0,0.7,0,1c-4.3,0.1-8.5,0-12.8,0.1c-1.1,0.1-2-0.7-3.1-0.9c-2.1-0.3-4.1-0.9-6.2-0.9
				c-3.1,0.2-6.2,0.4-9.2-0.1c-4-0.4-8,0.2-11.9-0.4c-1.7-0.3-3.4,0.1-5.1,0.1c1.5,1.2,3,2.6,4.4,4c-0.2,2.4-1,4.8-2,6.9
				c-0.1-0.3-0.3-0.6-0.4-1c-0.1,0.2-0.3,0.7-0.4,0.9c-1.4,0.1-2.9-0.1-4.2,0.7c0-0.5,0-0.9,0-1.4c0.5-1.4,1-2.9,1-4.4
				c-0.2-0.8-1-1.2-1.6-1.7c-1.4-1-2.6-2.3-3.8-3.6c0.5-1,0.9-2,1.4-2.9c0.7-1.4,2.9,0.5,3.2-1.2c-0.8-0.2-1.7-0.3-2.5-0.5
				c1.2-1.2,1.5-2.9,2.1-4.4c0.6-0.4,1.4-0.5,2-0.9c0.7-1.9,0.9-4,1.5-5.9c0.4-1.2,0.2-2.5,0.7-3.7c1.1-2.3,0.8-4.8,1.4-7.2
				c0.6-1.7-0.6-3.4-0.4-5.2c-0.1-1.7,0.2-3.5,0.7-5.1c0.3-0.8-0.4-1.2-0.9-1.6C279.9,190.2,281.1,180.8,280.6,171.4z"/>
		</g>
		<g>
			<path class="st21" d="M119.2,182.9c0.8-3.4,0.7-7,1.5-10.4c0.3,1.9,0,3.9,0.4,5.8c0.1,1.4,0.2,2.8,0.3,4.2
				c-0.5,0.4-1.1,0.8-1,1.5c0,1.1-0.4,2.1-0.5,3.1c0.4,1.6,0.5,3.2,0.4,4.8c-0.1,1.7-1.2,3.2-1,5c0.2,1.6-0.3,3.3,0,4.9
				c0.3,1.8,0,3.6,0.6,5.3c0.4,1.1-0.6,2.2-0.3,3.3c0.4,1.7,1.3,3.2,1.4,5c0.2,1.9,0.8,3.7,0.8,5.6c0,1.2,0.3,2.4,0.3,3.6
				c-1.7,0.3-3.8-0.5-4.9,1.1c-1.2,0.3-2.4,0.1-3.5,0.1c-0.9-1.5-2.9-1.6-4.5-1.4c-2.4,0.5-4.8,0.3-7.2,0c0.1,1.9,1.5,3.4,2.3,5.1
				c0.7,1.5,1.6,3,2.3,4.6c-1.7-0.2-3.6,0-5.2-0.6c-1.5-1.2-2.1-3.1-3.3-4.5c-0.5-0.4-1.2-0.4-1.8-0.5c-0.4,1.8-0.9,3.5-1.4,5.3
				c-1.7-0.1-3.3-0.2-5-0.4c0.1-1.3,0.2-2.6,0.3-3.9c-3.4-0.3-6.8,0.2-10.1-0.3c-2.1-0.3-4.1-0.1-6.2-0.1c-1.5,0-3.1-0.2-4.5,0.4
				c1,1.3,2.3,2.3,3.5,3.4c-2.1,0.4-4.2,0.3-6.3,0.2c-1.4,0-2.2-1.2-3.2-1.9c-1.9-1.6-4-2.9-5.9-4.5c-1.3,0.2-2.6,0.2-3.8,0.1
				c-0.8,0.9-1.7,1.7-2.3,2.8c-0.1,1.1-0.1,2.1-0.2,3.2c-1,0.2-2,0.2-2.8-0.4c0,0.5-0.1,1-0.1,1.6c-0.3-0.4-0.6-0.7-0.9-1.1
				c1.3-8.3,4.1-16.3,8.2-23.7c0.5-0.2,1-0.6,1.3-1.1c0.1,0.3,0.3,0.5,0.5,0.8c1.1-0.1,2.2-0.3,3.4-0.5c-1.1,2.8-3.7,4.7-4.9,7.4
				c2,0.1,3.9,0,5.9,0.4c0.5-0.7,1.1-1.4,1.8-2c2.1-1.7,3.4-4.2,5.6-5.9c2.3-0.7,4.4,1,6.7,0.9c3.1,0,6.1,0,9.2,0
				c0.6,0.1,1.3,0,1.7,0.5c1.5,1.8,2.9,3.7,3.8,5.9c0.7,1.5,1.9,2.7,2.3,4.3c0,1.3-0.4,2.6-0.6,3.9c2.8,0.1,5.6,0.1,8.4,0
				c-0.4-1.3-1.1-2.5-1.8-3.6c-0.7-1.1,0.1-2.5,0.5-3.6c0.4-1.2,1.8-0.9,2.8-1c5.3,0.1,10.6-0.2,15.9,0.2c0.3-1,0.3-2-0.1-3
				c-0.6-1.5,0.3-3.1-0.1-4.6c-0.5-2.2-0.3-4.4-0.3-6.6c0-2.7,0.5-5.3,1.2-7.8c0.1-2,0.5-4,0.2-6
				C118.3,186.1,118.8,184.5,119.2,182.9z"/>
		</g>
		<g>
			<path class="st22" d="M200.9,174.1l0.1-0.1c0.5,0.8,1.1,1.6,1.6,2.3l-0.1,0.1c-0.5,0.6-1,1.3-1.5,1.9l-0.2,0.2
				c-0.5-0.7-1.1-1.4-1.6-2c0,0,0.1-0.1,0.1-0.1C199.8,175.5,200.3,174.7,200.9,174.1z"/>
		</g>
		<g>
			<path class="st23" d="M200.8,178.4l0.2-0.2c6.9,9.2,11.4,20.3,12.4,31.8c-0.4-1.2-0.6-2.4-0.8-3.7c-0.2-0.9-0.4-1.7-0.6-2.5
				c-0.2-0.7-0.4-1.5-0.6-2.2c-0.1-0.2-0.1-0.4-0.2-0.6c-1-3.7-2.4-7.3-4.1-10.7c-0.7-1.4-1.4-2.8-2.1-4.1c-1.2-2.1-2.5-4.1-3.9-6
				l-0.2-0.3c-3.6,4.6-6.3,9.9-8.5,15.3c-0.6,2-1.5,4-2,6.1c0,0.1-0.1,0.2-0.1,0.3c-0.5,1.5-0.8,3.2-1.5,4.6
				c1.1-7.7,3.9-15.1,7.8-21.7C197.9,182.4,199.2,180.2,200.8,178.4z"/>
			<path class="st23" d="M200.6,191.5c0.3-3.5-0.1-7.1,0.4-10.5c0.1,2.6,0.1,5.3,0.2,8c0,1,0.1,2,0.1,3c0.1,4.4,0.2,8.7,0.3,13.1
				v0.3c0,0.5,0,1,0,1.5c0,1.6,0.1,3.2,0.1,4.8c-0.5,0-1.1,0-1.6,0C200.2,204.9,200.4,198.2,200.6,191.5z"/>
		</g>
		<g>
			<path class="st24" d="M192.4,195.2c2.2-5.4,4.9-10.6,8.5-15.3l0.2,0.3c0,0.2-0.1,0.6-0.1,0.8c-0.5,3.5-0.2,7-0.4,10.5
				c-0.1,6.7-0.4,13.4-0.4,20.1c-4,0-7.9-0.6-11.8-1.5c0-1.3,0.1-2.6,0.5-3.8c0.8-1.5,1-3.1,1.5-4.6c0.8,1.5,0.8,3.4,1.4,5
				c0.2-0.1,0.7-0.2,0.9-0.3c1.9,1.6,5.2,0.1,5.5-2.3c0.4-1.7-0.1-3.5-0.1-5.2c-0.9-0.3-1.9-0.5-2.6-1.2c-0.2-0.6-0.3-1.1-0.4-1.7
				c-0.5,0.4-1,0.8-1,1.5c-1.8,0.5-2.7,2.3-3.7,3.8C190.9,199.2,191.8,197.2,192.4,195.2z"/>
		</g>
		<g>
			<path class="st25" d="M201.1,180.2c1.5,1.9,2.7,3.9,3.9,6c-1.3,0.1-2.6,0.6-3.8,1.2c0.3,0.4,1,0.2,1.4,0.4c0.1,0.5,0.1,1,0.2,1.4
				c-0.6-0.1-1.1-0.2-1.7-0.3c-0.1-2.6-0.1-5.3-0.2-8C201,180.8,201.1,180.4,201.1,180.2z"/>
		</g>
		<g>
			<path class="st26" d="M120.3,183.9c-0.1-0.7,0.6-1.1,1-1.5c0.4,4.2,1,8.4,2.1,12.5c-0.6,0.3-1.2,0.5-1.8,0.8
				c0.4,2.5,0.7,5.1,0.5,7.7c0.7,3.1,1,6.2,1.2,9.3c0.5,2.8,1.1,5.6,1.6,8.4c0.6,2,1.1,4.1,1.6,6.2c0.4,1.7,1.1,3.3,1.3,5
				c0.2,1.7,1.8,3.1,1.3,4.9c-3.9,0.1-7.9,0.3-11.8-0.3c-2.3-0.1-4.5-0.1-6.8,0.1c1.5,1.1,3.4,1.3,5,2c2.4,0.7,4.7,1.9,7.1,2.5
				c0.8,0.2,1.6,0.6,2.3,1c-1.6,0.6-3.4,0.3-5,0.3c-3.2,0.2-6.3-0.8-9.4-0.3c-2-0.8-4.4-1-6.1-2.4c-1.4-1.2-3.4-0.6-5-0.5
				c-1.9,0.5-3.8-0.6-5.7-0.1c-3.8,1-7.8,0.5-11.7,0.7c2.4,2.1,4.8,4.3,7.4,6.3c0.3,0.3,0.6,0.6,0.9,1c-2.3,0.3-4.6,0.1-6.9-0.1
				c-0.6,0-1-0.4-1.5-0.8c-2.2-1.9-4.6-3.6-6.9-5.4c-1-0.8-2.3-0.5-3.5-0.6c-2.6-0.1-5.2,0.4-7.8,0.4c-3.7,0-7.4,0-11.1,0.5
				c0.2,1.8,0.6,3.6,0.6,5.4c-1.5,0.1-2.9,0.2-4.4,0c-0.5-0.2-0.6-0.7-0.7-1.1c-0.4-1.4-0.6-2.9-1.1-4.3c-0.4,0.3-0.8,0.7-1.1,1
				v-1.3c0.2-2.8,0.5-5.6,0.9-8.4c0.3,0.4,0.6,0.7,0.9,1.1c0-0.5,0.1-1.1,0.1-1.6c0.8,0.6,1.8,0.6,2.8,0.4c0.1-1.1,0.1-2.1,0.2-3.2
				c0.6-1.1,1.5-1.9,2.3-2.8c1.3,0.1,2.6,0.1,3.8-0.1c1.9,1.6,4,2.9,5.9,4.5c1,0.8,1.9,1.9,3.2,1.9c2.1,0.2,4.3,0.2,6.3-0.2
				c-1.2-1.1-2.5-2.1-3.5-3.4c1.4-0.7,3-0.4,4.5-0.4c2.1,0.1,4.2-0.2,6.2,0.1c3.3,0.6,6.8,0,10.1,0.3c-0.1,1.3-0.2,2.6-0.3,3.9
				c1.7,0.2,3.3,0.2,5,0.4c0.5-1.8,1-3.5,1.4-5.3c0.6,0.2,1.3,0.2,1.8,0.5c1.2,1.4,1.8,3.3,3.3,4.5c1.7,0.6,3.5,0.4,5.2,0.6
				c-0.7-1.6-1.6-3.1-2.3-4.6c-0.8-1.7-2.2-3.1-2.3-5.1c2.4,0.3,4.8,0.5,7.2,0c1.6-0.2,3.6-0.2,4.5,1.4c1.2,0,2.4,0.2,3.5-0.1
				c1.1-1.6,3.3-0.8,4.9-1.1c0-1.2-0.3-2.4-0.3-3.6c0-1.9-0.6-3.7-0.8-5.6c-0.1-1.8-1-3.3-1.4-5c-0.3-1.1,0.8-2.2,0.3-3.3
				c-0.6-1.7-0.3-3.6-0.6-5.3c-0.3-1.6,0.3-3.3,0-4.9c-0.2-1.7,0.8-3.3,1-5c0.1-1.6,0-3.2-0.4-4.8C119.9,186,120.3,185,120.3,183.9z
				"/>
			<path class="st26" d="M338.9,228.2c1.6,0.6,3.5-0.7,4.9,0.7c0.2-0.4,0.4-0.7,0.7-1.1c1.1,0.8,2,2,3,2.9c2.3,0.3,4.7-0.3,7,0.3
				c0.7,4.2,1.2,8.5,1.4,12.8c-1.1-0.5-2.1-1.2-3.3-0.9c-2.7,0.5-5.4-0.4-8.1-0.3c-2.4,0.1-4.9-0.1-7.3,0.1c0.1,0.8,0.2,1.6,0.3,2.4
				c-2.5,0.2-4.9,0.4-7.4,0.2c-1.2,0-2.3-0.8-3.5-0.3c-2.7-1.1-5.6-1.7-8.3-2.8c-0.8-0.2-1.8-0.8-2.6-0.3c-4.2,1.9-8.3,3.9-12.6,5.6
				c-0.8,0.2-0.8,1-0.7,1.7c-0.1,0.3-0.2,0.9-0.3,1.2c-1.5-0.1-3-0.3-4.5-0.5c-0.8-1.4-0.9-3.1-1.2-4.7c-0.2-0.6,0.6-0.8,1-1.1
				c3.6-1.6,7.2-3,10.7-4.8c-0.1-0.2-0.3-0.6-0.4-0.8c1.1,0.2,2,1,3.1,0.9c4.3-0.1,8.5,0.1,12.8-0.1c0-0.3,0-0.7,0-1
				c2.5-1.2,5.2-2,7.6-3.4c1.6-1,3.6-1.3,5.2-2.3c1-1.1,1-2.6,1.3-4C338,228.5,338.4,228.4,338.9,228.2z"/>
		</g>
		<g>
			<path class="st27" d="M201.2,187.4c1.2-0.6,2.4-1.1,3.8-1.2c0.8,1.4,1.5,2.7,2.1,4.1c-1.3,0-2.5-0.3-3.7-0.6
				c-0.1,0.8-0.1,1.6-0.2,2.3c-0.7-0.1-1.4-0.2-2-0.2c0-1,0-2-0.1-3c0.6,0.1,1.1,0.2,1.7,0.3c-0.1-0.5-0.1-1-0.2-1.4
				C202.2,187.6,201.6,187.8,201.2,187.4z"/>
		</g>
		<g>
			<path class="st28" d="M203.5,189.8c1.2,0.3,2.4,0.5,3.7,0.6c1.7,3.4,3.1,7,4.1,10.7c-0.8-0.2-0.8-1.2-1.3-1.8
				c-0.7-0.8-1.7-1.9-2.9-1.6c-1.2,0.2-2.4,0.6-3.2,1.6c-0.5,1.1-0.5,2.4-0.7,3.5c-0.2,1-0.4,2.2-1.6,2.2c-0.2-4.4-0.2-8.7-0.3-13.1
				c0.7,0.1,1.3,0.2,2,0.2C203.3,191.3,203.4,190.5,203.5,189.8z"/>
		</g>
		<g>
			<path class="st29" d="M229,208.4c6.9-4.3,12.8-10.3,17.1-17.2c0.3,0.5,1.1,0.9,0.8,1.6c-1,2.5-0.2,5.2-0.3,7.9
				c0.3,0,0.7-0.1,1-0.1c-1.1,1.7-2.4,3.3-3.7,4.8c-3.6,4-7.7,7.5-12.3,10.4c-0.2-0.1-0.7-0.2-0.9-0.2c0.3-2.1,0.3-4.3,0.1-6.4
				c-0.2,0-0.5,0-0.7-0.1C229.7,208.8,229.3,208.6,229,208.4z"/>
		</g>
		<g>
			<g>
				<path class="st30" d="M194.2,197.5c0-0.7,0.4-1.2,1-1.5c0.1,0.6,0.2,1.1,0.4,1.7c0.7,0.7,1.7,0.9,2.6,1.2
					c-0.1,1.7,0.4,3.5,0.1,5.2c-0.4,2.4-3.6,3.9-5.5,2.3c-0.2,0.1-0.7,0.2-0.9,0.3c-0.7-1.6-0.6-3.4-1.4-5c0-0.1,0.1-0.2,0.1-0.3
					C191.5,199.8,192.3,198,194.2,197.5z M193.7,200.2c-1.5,1-1.2,3.8,0.6,4.3c1.4,0.3,2.5-1.3,2.2-2.6
					C196.6,200.5,194.9,199.5,193.7,200.2z"/>
			</g>
		</g>
		<g>
			<g>
				<path class="st31" d="M207.1,197.6c1.2-0.3,2.2,0.8,2.9,1.6c0.5,0.6,0.4,1.6,1.3,1.8c0.1,0.2,0.1,0.4,0.2,0.6
					c-0.3,0.9-0.6,1.9-0.9,2.9c-0.8,3.3-6,2.8-7.1,0c-0.1-0.6-0.2-1.2-0.3-1.8c0.2-1.2,0.2-2.4,0.7-3.5
					C204.7,198.3,205.9,197.8,207.1,197.6z M206.3,200.2c-1.3,0.7-1.6,2.6-0.6,3.7c0.7,1.1,2.7,0.8,3-0.5
					C209.7,201.8,208.2,199.2,206.3,200.2z"/>
			</g>
		</g>
		<g>
			<path class="st32" d="M277.2,199.2c0.5,0.4,1.2,0.9,0.9,1.6c-0.5,1.7-0.7,3.4-0.7,5.1c-0.2,1.8,1,3.4,0.4,5.2
				c-0.6,2.4-0.3,5-1.4,7.2c-0.5,1.2-0.3,2.5-0.7,3.7c-0.6,1.9-0.8,4-1.5,5.9c-0.6,0.4-1.4,0.5-2,0.9c-0.6,1.5-0.9,3.2-2.1,4.4
				c0.8,0.2,1.7,0.3,2.5,0.5c-0.3,1.7-2.6-0.1-3.2,1.2c-0.6,0.9-1,1.9-1.4,2.9c1.2,1.3,2.4,2.6,3.8,3.6c0.6,0.5,1.3,0.9,1.6,1.7
				c-0.1,1.5-0.5,3-1,4.4c-1.1,2.4-1.2,5.1-2.1,7.6c0-0.2-0.1-0.5-0.1-0.7c-0.2,0.1-0.4,0.2-0.5,0.3c-1.4-0.7-3.1-0.3-4.6-0.5
				c-2.4-0.3-4.8-0.4-7.2,0.1c-0.5,0.2-0.8-0.4-1.2-0.6c0.3-0.4,0.7-0.7,1-1c-0.1-0.1-0.3-0.4-0.4-0.6c1-1.8,1.7-3.8,3-5.4
				c1.6-2.1,2.4-4.6,3.8-6.8c-0.2,0-0.6-0.1-0.8-0.2c0.7-1.1,1.3-2.3,2-3.5c-0.5-0.5-1-1-1.4-1.6c0.5-1.9,1.1-3.9,2.4-5.3
				c0.6-0.5,1.4-0.7,2.2-1.1c1.5-3.1,2.6-6.3,3.2-9.7c0.1-1.8,1.4-3.2,1.1-5c-0.5,0.1-1.1,0.1-1.6,0.2
				C273.6,209,275.7,204.2,277.2,199.2z"/>
		</g>
		<g>
			<path class="st33" d="M193.7,200.2c1.2-0.7,2.9,0.3,2.8,1.7c0.3,1.3-0.8,2.9-2.2,2.6C192.5,204.1,192.2,201.2,193.7,200.2z"/>
		</g>
		<g>
			<path class="st34" d="M206.3,200.2c1.9-1,3.4,1.7,2.5,3.2c-0.4,1.3-2.3,1.6-3,0.5C204.8,202.8,205.1,200.9,206.3,200.2z"/>
		</g>
		<g>
			<path class="st35" d="M154.3,200.6c1.9,2.5,3.8,4.9,6,7.2c0.2,0.4,0.3,0.9,0.5,1.3c-0.2,0.3-0.3,0.7-0.5,1
				c0.1,0.3,0.3,0.6,0.4,0.9c-0.6,2-0.8,4.3,0.2,6.2c-0.2,0.5-0.4,0.9-0.7,1.4c-2.2-2-4.1-4.1-6-6.4c0.2-0.3,0.4-0.6,0.6-0.9
				c-0.5-0.8-1-1.5-1.6-2.1c1.8-0.7,0.7-2.9,1.2-4.3C154.8,203.6,154.6,202.1,154.3,200.6z"/>
		</g>
		<g>
			<path class="st36" d="M210.6,204.5c0.3-1,0.5-1.9,0.9-2.9c0.2,0.7,0.4,1.5,0.6,2.2C211.5,204.1,211.1,204.3,210.6,204.5z"/>
		</g>
		<g>
			<path class="st37" d="M201.6,205c1.3,0,1.4-1.2,1.6-2.2c0.1,0.6,0.2,1.2,0.3,1.8c-0.1,0.3-0.1,0.6-0.2,1
				c-0.6-0.1-1.1-0.1-1.7-0.2V205z"/>
		</g>
		<g>
			<path class="st38" d="M212,203.8c0.2,0.8,0.4,1.7,0.6,2.5c-0.2-0.1-0.6-0.3-0.8-0.3c-0.9,0.9-2.1,1.6-3.4,1.6
				c0,0.1-0.1,0.4-0.2,0.5c-0.8-0.5-1.7-0.6-2.5-0.1c-0.4-0.6-0.9-1.1-1.5-1.6c-0.5,0.3-1.1,0.7-1.7,1c-0.3-0.2-0.6-0.5-0.9-0.7
				c0-0.5,0-1,0-1.5c0.6,0.1,1.1,0.1,1.7,0.2c0.1-0.3,0.2-0.6,0.2-1c1.1,2.8,6.3,3.3,7.1,0C211.1,204.3,211.5,204.1,212,203.8z"/>
		</g>
		<g>
			<path class="st39" d="M231.5,215.8c4.6-2.9,8.6-6.4,12.3-10.4c0.4,2.3-0.3,4.6-0.1,6.9c0.1,1.2-0.2,2.7,0.7,3.7
				c-5.5,5.8-12.2,10.5-19.5,13.6c-0.6-0.1-1.3-0.3-1.9-0.5c0.3-2.4,0.6-4.7,0.3-7.1c-0.6-0.1-1.2-0.1-1.7-0.2c0.7-0.3,1.3-0.6,2-1
				c0-0.2-0.1-0.6-0.2-0.8c0.1,0,0.2-0.1,0.3-0.1C226.4,218.8,229.1,217.5,231.5,215.8z"/>
		</g>
		<g>
			<path class="st40" d="M169.1,205.8c4.4,3.3,9.3,5.9,14.5,7.7c-0.3,0.6-0.7,1.1-0.6,1.8c0.2,1.9,0.3,3.8,0.1,5.7
				c-0.3,0.1-0.8,0.2-1.1,0.3c-0.2-0.1-0.5-0.2-0.7-0.2c-2.4-0.8-4.7-1.9-7-3c-2-1-3.9-2.1-5.6-3.4c0.8-2.3,0.2-4.7,0.5-7
				c0.4-0.1,0.7-0.3,1.1-0.4c-0.5-0.2-0.9-0.5-1.4-0.7C168.9,206.4,169,206,169.1,205.8z"/>
		</g>
		<g>
			<path class="st41" d="M208.4,207.6c1.3-0.1,2.5-0.7,3.4-1.6c0.2,0.1,0.6,0.3,0.8,0.3c0.2,1.2,0.4,2.5,0.8,3.7
				c-3.8,1-7.7,1.6-11.7,1.5c-0.1-1.6-0.1-3.2-0.1-4.8c0.3,0.2,0.6,0.5,0.9,0.7c0.6-0.3,1.1-0.7,1.7-1c0.6,0.5,1.1,1,1.5,1.6
				c0.8-0.5,1.7-0.4,2.5,0.1C208.2,208,208.3,207.8,208.4,207.6z"/>
		</g>
		<g>
			<path class="st42" d="M160.2,207.8c2.2,2.1,4.5,4.2,7,6c-0.1,2.1,0.1,4.2-0.1,6.2c-0.4,0.3-0.8,0.6-1.2,0.9
				c0.3,0.6,0.7,1.2,1.1,1.8c-0.2,0.4-0.3,0.7-0.4,1.1c-2.3-1.6-4.5-3.4-6.6-5.3c0.2-0.5,0.4-0.9,0.7-1.4c-0.9-1.9-0.8-4.3-0.2-6.2
				c-0.1-0.3-0.3-0.6-0.4-0.9c0.2-0.3,0.3-0.7,0.5-1C160.5,208.6,160.4,208.2,160.2,207.8z"/>
		</g>
		<g>
			<path class="st43" d="M222.2,212c2.3-1.1,4.6-2.2,6.8-3.6c0.4,0.2,0.7,0.5,1.1,0.8c0.2,0,0.5,0,0.7,0.1c0.1,2.1,0.2,4.3-0.1,6.4
				c0.2,0.1,0.7,0.2,0.9,0.2c-2.5,1.7-5.2,3-7.9,4.2c0.5-2.4,0.4-4.8,0.3-7.2c-0.6-0.3-1.2-0.2-1.8,0.1
				C222.2,212.7,222.2,212.2,222.2,212z"/>
		</g>
		<g>
			<path class="st44" d="M167.2,213.8c0.5,0.3,0.9,0.6,1.4,1c1.8,1.3,3.7,2.4,5.6,3.4c-0.4,0.6-1,1.2-0.9,2c0.2,2,0.1,4-0.1,6
				c-0.2,1.1,1,1.8,1.6,2.5c-3-1.2-5.7-3-8.3-4.8c0.1-0.4,0.3-0.7,0.4-1.1c-0.4-0.6-0.8-1.2-1.1-1.8c0.4-0.3,0.8-0.6,1.2-0.9
				C167.4,218,167.1,215.9,167.2,213.8z"/>
		</g>
		<g>
			<path class="st45" d="M183.6,213.6c4.9,1.7,10,2.6,15.1,2.9c0.4,0.2,0.7,0.3,1.1,0.5c0.1,2.4,0.2,4.9-0.2,7.3
				c-3.4,0-6.8-0.3-10.1-0.9c-2.6-0.4-5.1-1.1-7.5-2c0.3-0.1,0.8-0.2,1.1-0.3c0.2-1.9,0.1-3.8-0.1-5.7
				C182.9,214.7,183.4,214.1,183.6,213.6z"/>
		</g>
		<g>
			<path class="st46" d="M198.7,216.5c2.8,0.1,5.6-0.1,8.4-0.3c-0.8,2.3-0.4,4.8-0.3,7.2c-0.7,0.3-1.5,0.7-2.2,0.9
				c-1.6-0.2-3.3-0.1-4.9-0.1c0.4-2.4,0.4-4.9,0.2-7.3C199.5,216.8,199.1,216.6,198.7,216.5z"/>
		</g>
		<g>
			<path class="st47" d="M174.3,218.2c2.3,1.1,4.6,2.2,7,3c-0.1,0.2-0.2,0.6-0.2,0.8c0.2,0.2,0.3,0.5,0.5,0.7
				c-0.4,0-0.7,0.1-1.1,0.1c0.6,1.2,0.4,2.6,1.1,3.8c0.6,1.1-0.1,2.2-0.8,3c0.2,0.6,0.4,1.2,0.6,1.8c-2.2-0.7-4.4-1.5-6.4-2.6
				c-0.6-0.8-1.9-1.4-1.6-2.5c0.2-2,0.2-4,0.1-6C173.3,219.4,173.9,218.8,174.3,218.2z"/>
		</g>
		<g>
			<path class="st48" d="M181.3,221.2c0.2,0.1,0.5,0.2,0.7,0.2c2.4,0.9,4.9,1.6,7.5,2c-0.5,0.7-1.1,1.4-1.1,2.3
				c0,1.6,0.1,3.2-0.2,4.7c-0.2,1,0.2,2,0.4,2.9c-2.4-0.5-4.9-1.1-7.2-2c-0.2-0.6-0.4-1.2-0.6-1.8c0.7-0.8,1.3-1.9,0.8-3
				c-0.7-1.2-0.5-2.6-1.1-3.8c0.4,0,0.7-0.1,1.1-0.1c-0.2-0.2-0.3-0.5-0.5-0.7C181.1,221.8,181.2,221.4,181.3,221.2z"/>
		</g>
		<g>
			<g>
				<path class="st49" d="M176.6,128.2c1.7-1.6,3.6-3.1,5.4-4.5c0.1,0.2,0.4,0.6,0.5,0.8c0.2-0.1,0.5-0.2,0.7-0.3
					c0.7,1,1.3,2.1,2.4,2.6c1.3,0.5,1.5,2.2,2.7,2.8c0.8,0.4,1.4,1.1,1.9,1.9c0.5,1.2,2.1,1.3,2.7,2.5c0.4,0.8,1.1,1.5,1.9,1.9
					c1.3,0.6,1.3,2.4,2.8,2.8c1,0.4,1.4,1.5,2.1,2.3c0.9,0.7,2.1,1.2,2.5,2.3c0.5,1.2,2.1,1.3,2.7,2.5c0.4,0.7,0.9,1.4,1.7,1.7
					c1.4,0.6,1.6,2.4,3,3c1.4,0.6,1.6,2.4,3,3c1,0.5,1.5,1.5,2,2.4c1.4,0.5,2.3,1.6,2.8,3c-1.8,1.2-3.5,2.4-5.1,3.7
					c-1.4-1-2.6-2.3-3.8-3.6c-9.3-9.3-18.6-18.6-27.9-27.9C179.2,130.1,178.2,128.7,176.6,128.2z"/>
				<path class="st49" d="M96.1,263.1c1.3-0.5,2.4-1.4,3.8-1.7c0.7,0.3,1.4,0.8,2,1.3c2,1.7,4.2,3.1,6.2,4.9c0.7,0.6,1.4,1.2,2,1.8
					c1.4,1.2,1.2,3.3,1.6,5c0.3,1.1,0.3,2.5,1.4,3.2c1.3,0.3,2.6,0.4,3.8,0.2c0-0.9,0.1-1.8,0.3-2.7c0.1,0.1,0.3,0.2,0.3,0.3
					c0,3.6,0.7,7.1,1.2,10.6h-5c-0.9-2.9-0.7-6.1-2.1-8.8c-0.1,0.2-0.4,0.7-0.5,0.9c-2.3,0-4.5,0.4-6.8,0.5
					c-1.2,0.2-2.1-0.9-3.2-0.6c-2,0.3-4,0.2-6.1,0.2c-1.1,0-1.9-0.8-3-0.8c-2.2-0.1-4.5,0.1-6.7-0.1c-0.8,0-1.9-0.1-2.1,0.9
					c-0.5,1.6-1.1,3.1-1.2,4.8c0.7,1.3,2,2.1,3.1,3h-7.5c-0.7-0.6-1.8-1.2-1.5-2.2c0.4-2.3,1.2-4.6,1.7-6.9c1.9,0.2,3.8,0.3,5.6-0.3
					c0.7-2.4,1.5-4.8,2.1-7.3c0.2-1.2,1.3-1.7,2.2-2.2C90.6,265.7,93.3,264.3,96.1,263.1z"/>
			</g>
			<g>
				<path class="st50" d="M121.6,195.7c0.6-0.3,1.2-0.5,1.8-0.8c0.9,3.8,2.2,7.5,3.7,11.2c-0.7,0.1-1.4,0.5-1.7,1.2
					c0.1,1.5,0.9,2.9,0.9,4.4c0,1.8,0.7,3.5,1,5.2c0.2,1,0.5,2,0.9,3c0.4,1.1,0.3,2.2,0.8,3.3c1.2,2.6,1.6,5.6,3,8.1
					c1.2,2.4,1.9,5.1,3.4,7.4c0.8-0.2,1.6-0.4,2.4-0.6c0.8,1.4,1.7,2.8,2.4,4.3c-0.2,0.5-0.6,0.9-1,1.4c0.7,1.3,1.5,2.4,2.5,3.5
					c1.9,1.2,4.2,1.6,6,2.9c0.9,0.6,1.3,1.6,1.5,2.6c0.6,2.4,1.1,4.9,1.5,7.4c-1.8,0.4-3.6,0.3-5.3,0.1c0-2-0.7-4-0.9-6
					c-1-1-2.7-0.9-4-1.6c-2.6-1.5-5.6-1.9-8.4-3c-1.6-0.4-3.3-1.5-4.9-0.7c-3.9,1.6-7.7,3.4-11.7,5c-0.6,0.3-1.7,0.5-1.6,1.5
					c-0.1,0.5-0.1,0.9-0.2,1.4c-1.6-0.4-3.6,0.3-4.9-1c-0.6-1.3-0.8-2.8-0.9-4.2c0.9-0.8,2.1-1.2,3.2-1.7c3-1.2,5.9-2.6,8.8-3.9
					c0-0.1,0-0.2,0-0.3c-3.1-1.2-6.2-1.9-9.3-3c3.2-0.5,6.3,0.5,9.4,0.3c1.7-0.1,3.4,0.2,5-0.3c-0.7-0.4-1.5-0.8-2.3-1
					c-2.4-0.7-4.7-1.9-7.1-2.5c-1.7-0.7-3.6-0.9-5-2c2.3-0.2,4.5-0.2,6.8-0.1c3.9,0.5,7.9,0.4,11.8,0.3c0.5-1.8-1.2-3.2-1.3-4.9
					c-0.3-1.7-1-3.3-1.3-5c-0.5-2.1-1-4.1-1.6-6.2c-0.5-2.8-1.2-5.6-1.6-8.4c-0.2-3.1-0.5-6.2-1.2-9.3
					C122.4,200.8,122.1,198.2,121.6,195.7z"/>
			</g>
			<g>
				<path class="st51" d="M125.4,207.2c0.3-0.7,1-1,1.7-1.2c2,4.9,4.5,9.5,7.4,13.9c-0.5,0.5-1.3,1.1-1,1.9c0.8,2.2,1.8,4.3,2.4,6.5
					c1.2,2.7,2.5,5.3,3.8,7.9c0.7,0,1.4,0,2.1,0c0.9,1.4,2.3,2.4,3.2,3.8c-0.7,0.5-1.5,1.1-2.3,1.6c1,1.8,2.2,3.4,3.3,5.1
					c0.6,0.9,1.5,1.5,2.3,2.1c1,0.7,0.8,2.1,1.8,2.7c1.7,1.3,3.1,2.9,4.3,4.7c1.1-0.9,2-2,3.4-2.6c1.6,2.2,4.2,3.4,6.1,5.3
					c1.5,1.3,3.8,1.5,5.2,2.9c-3.2-0.3-6-2.2-9.2-2.8c-0.3,0.3-0.5,0.6-0.8,0.9c-0.3-1.4-1.6-2.1-2.8-2.7c-0.1-0.4-0.3-0.9-0.4-1.3
					c-2,1.2-3.4,3.1-4.9,4.8c-0.1-0.3-0.3-0.7-0.4-1c-0.4-2.5-0.9-4.9-1.5-7.4c-0.3-1-0.7-2-1.5-2.6c-1.9-1.3-4.1-1.7-6-2.9
					c-0.9-1.1-1.8-2.2-2.5-3.5c0.3-0.4,0.8-0.9,1-1.4c-0.7-1.5-1.6-2.8-2.4-4.3c-0.8,0.2-1.6,0.4-2.4,0.6c-1.5-2.3-2.2-5-3.4-7.4
					c-1.3-2.6-1.7-5.5-3-8.1c-0.5-1-0.4-2.2-0.8-3.3c-0.4-1-0.7-2-0.9-3c-0.3-1.7-1-3.4-1-5.2C126.2,210.1,125.5,208.8,125.4,207.2z
					"/>
			</g>
			<g>
				<path class="st52" d="M207.1,216.1c5.2-0.6,10.3-2,15-4.1c0,0.2,0,0.6,0,0.9c0.6-0.4,1.2-0.4,1.8-0.1c0.1,2.4,0.1,4.9-0.3,7.2
					c-0.1,0-0.2,0.1-0.3,0.1c-2.5,1.1-5.1,1.6-7.6,2.7c0.2,2,0,4.1,0.3,6.1c0.2,1.2-0.2,2.5,0.2,3.8c-3.7,0.9-7.5,1.7-11.4,1.8
					c-0.7-0.1-1.4-0.2-2.2-0.3c0.1-0.2,0.3-0.4,0.4-0.6c-0.6-0.4-1.3-0.7-2.1-1c0.5-0.1,0.9-0.2,1.4-0.3c-0.1-2.4,0.4-4.7,0.4-7.1
					c-0.3-0.1-0.8-0.3-1-0.3c0.9-0.1,1.8-0.2,2.7-0.4c0.8-0.2,1.5-0.6,2.2-0.9C206.6,221,206.3,218.5,207.1,216.1L207.1,216.1z"/>
				<path class="st52" d="M312.8,267.7c1.4-0.2,3.1,0.4,4.2-0.8c3-0.2,5.9,0,8.9-0.1c0.9,0,1.9-0.2,2.7,0.4
					c-0.9,1.6-2.2,2.8-3.3,4.3c-1.2,1.3-2.1,2.9-3.5,4c-1.6-1.5-3.4-2.6-4.9-4.1c-1.2-1.1-2.6-2.1-3.8-3.2
					C313,268.1,312.9,267.9,312.8,267.7z"/>
				<path class="st52" d="M341.9,267c0.4,0,0.8,0,1.2,0c0.1,0.5,0.2,0.9,0.3,1.4c2.2,0,4.5,0.5,6.5-0.6c1.6-0.2,3.2-0.1,4.7,0
					c0.4,0.3,0.8,0.7,1.1,1.1c0,2.1,0,4.2,0,6.3c-0.5-0.5-0.9-1.3-1.8-1.2c-3.9-0.1-7.8,0.1-11.8-0.1c-0.4-1.8-0.6-3.7-0.9-5.6
					c0.1-0.1,0.4-0.2,0.6-0.2C342,267.7,342,267.3,341.9,267z"/>
			</g>
			<g>
				<path class="st53" d="M271.2,213.6c0.5-0.1,1.1-0.1,1.6-0.2c0.3,1.8-1,3.3-1.1,5c-0.6,3.4-1.7,6.6-3.2,9.7
					c-0.7,0.3-1.5,0.6-2.2,1.1c-1.4,1.5-2,3.4-2.4,5.3c0.3,0.6,0.9,1.1,1.4,1.6c-0.6,1.2-1.3,2.3-2,3.5c0.2,0.1,0.6,0.2,0.8,0.2
					c-1.4,2.2-2.2,4.7-3.8,6.8c-1.3,1.6-2.1,3.6-3,5.4c0.1,0.1,0.3,0.4,0.4,0.6c-0.3,0.3-0.7,0.7-1,1c0.4,0.2,0.7,0.8,1.2,0.6
					c2.4-0.5,4.8-0.4,7.2-0.1c1.5,0.3,3.2-0.1,4.6,0.5c0.2-0.1,0.4-0.2,0.5-0.3c0,0.2,0.1,0.5,0.1,0.7c-0.2,0.7-0.3,1.3-0.5,2
					c-0.6,0.9-1.7,1.4-2.7,1.8c-3.8,1.8-7.5,3.9-11.4,5.7c-2.9-2-5.3-4.7-8.3-6.6c-0.8-0.4-1.4-1.3-2.4-1.2c-1.1,0.8-2,1.8-3.3,2.4
					c0.1,0.1,0.3,0.2,0.4,0.3c-0.6,0.6-1.3,1.2-1.9,1.8c-0.2-1-0.1-2-0.3-3c-0.8-1.2-2.5-1.6-3-3.1c0.2-1.1,1.4-1.4,2.2-2
					c1.5-1,2.9-2.1,4.1-3.4c0.3,1.1,0.7,2.3,1.2,3.3c1.4-1.2,2.7-2.3,3.8-3.8c1.3-1.1,2.4-2.5,3.1-4c2.1-1.8,4.1-3.8,5.1-6.4
					c0.3-0.9,1.2-1.3,1.8-1.9c0.5-0.8,0.6-1.8,0.8-2.7c-0.9-0.3-1.8-0.6-2.7-1C262.2,227.6,267.3,220.9,271.2,213.6z"/>
			</g>
			<g>
				<g>
					<path class="st54" d="M133.5,221.9c-0.3-0.8,0.5-1.4,1-1.9c4.5,6.7,10,12.7,16.2,17.8c-0.6,0.7-1.5,1.4-1.7,2.4
						c0.8,1.1,2,1.8,2.8,2.9c1.4,1.7,3.2,3,4.5,4.8c1,1.5,3,2.2,3.6,4c1.1,0.4,1.8,1.4,2.6,2.3c0.2-0.1,0.4-0.2,0.6-0.3
						c0.5,0.6,1.1,1.2,1.9,1.4c2.2,0.9,4.5,2,6.8,2.7c-0.5-1.1-1.1-2.2-1.4-3.3c1.5,0.8,2.9,1.9,4.6,2.5c1.9,0.6,3.3,2.1,4.6,3.6
						c1.3,0.9,2.8,1.2,4.2,1.7c4,1.3,7.9,2.9,11.9,4.2c1.1-0.9,2-2.2,3.2-2.8c3.5-0.5,7.3,0.3,10.7-1.1c0.4,1.6,0.7,3.4,1.6,4.9
						c1.5-0.5,3-1,4.5-1.3c1.9-0.4,3.4-2,5.4-1.7c-0.2-0.2-0.3-0.3-0.5-0.5c2.1-0.8,3.8-2.3,6.1-2.4c0.1-0.2,0.2-0.3,0.4-0.5
						c1.6-0.2,2.8-1.4,4.3-2c0.7-0.2,1.1-0.8,1.4-1.4c1.3-0.6,2.6-1.2,3.8-2c-0.8-0.9-1.7-1.8-2.6-2.7c1.2-1.2,2.7-2.1,4.3-2.4
						c0.8-0.6,1.1-1.7,1.9-2.3c0.8-0.6,1.7-1.1,2.4-1.9c0.4,0.7,0.9,1.4,1.4,2.1c0.9-1,1.9-2.1,3.2-2.6c0.4-1.2,1.5-2,2.1-3
						c0.6-0.8,1-2,2.2-2.1c-0.1-0.4-0.1-0.7-0.2-1.1c0.6-0.4,1.3-0.7,1.8-1.2c0.6-0.3,0.5-1.2,0.6-1.7c-0.3-0.1-0.9-0.3-1.2-0.4
						c1.2-1.1,2.5-2.2,3.6-3.3c0.9,0.3,1.8,0.6,2.7,1c-0.2,0.9-0.3,1.9-0.8,2.7c-0.6,0.6-1.5,1-1.8,1.9c-1,2.6-3,4.7-5.1,6.4
						c-0.7,1.6-1.8,2.9-3.1,4c-1.1,1.5-2.4,2.6-3.8,3.8c-0.5-1.1-0.9-2.2-1.2-3.3c-1.2,1.4-2.7,2.4-4.1,3.4c-0.8,0.6-2,0.9-2.2,2
						c0.5,1.5,2.2,1.9,3,3.1c0.1,1,0.1,2,0.3,3c0.6,3.1,1,6.2,1.9,9.3c-1.1,1.1-2.7,1.4-4,2.1c-3.3,1.6-6.6,3.1-9.9,4.6
						c-0.6,0.3-1.2,0.1-1.8-0.1c-5-1.7-10-3.6-15.1-5c-0.4-1.4-0.5-2.8-1.1-4.1c-1.2,1-2.7,0.6-4.1,0.5c-0.5,2.4,0.2,4.8,0.7,7.1
						c0.7,0.3,1.4,0.6,2.2,0.9c-0.1,1.1-0.1,2.2-0.1,3.3c-0.2,0-0.5,0-0.6,0c-0.1-0.2-0.4-0.5-0.5-0.7c-0.8,0.2-2.3-0.5-2.3,0.8
						c-0.3-0.6-0.5-1.1-0.8-1.6c0-0.5,0-1,0-1.5c-0.2,0-0.6,0-0.8,0c-0.3,0.3-0.6,0.7-0.8,1.1c-0.1,0-0.3-0.2-0.4-0.2
						c-0.2-0.3-0.4-0.5-0.7-0.8c-0.2,0-0.6-0.1-0.8-0.2c-0.1,1.1-0.1,2.2-0.1,3.3c-0.3-1-0.6-2-1.2-2.8c-0.5,0.8-1,1.5-1.7,2.1
						c-0.1-0.8,0.2-2-0.7-2.4c-0.7-0.3-1.5-0.2-2.2-0.3c0.5,1.1-0.3,2.3,0,3.5c-0.5,0.1-1,0.1-1.5,0.2c-0.1-0.1-0.3-0.4-0.4-0.5
						c0.3,0,0.8,0.1,1,0.2c-0.4-1-0.8-2-1.3-2.9c-0.2-0.5-0.8-0.4-1.2-0.4c-0.5,1.1-0.9,2.2-1.4,3.4c0.2,0,0.7,0,1,0
						c-1,2.3-3.1,3.8-4.4,5.9h-7c1.3-1.9,2.8-3.6,4.2-5.5c-1.8,0.4-3.5-0.4-5.3-0.4c0.1-0.2,0.3-0.6,0.5-0.8
						c0.9,0.2,1.7,0.5,2.5,0.9c-0.4-1.1-0.9-2.3-1.4-3.4c-0.2,0-0.7-0.1-0.9-0.1c-0.5,1-0.9,2-1.4,3.1c-0.1-0.2-0.2-0.5-0.3-0.7
						c-0.4,0.2-0.8,0.4-1.2,0.6c0-0.2-0.1-0.5-0.1-0.7c-4.7-0.1-9.5,0-14.2,0c-1.1-0.1-2,0.4-2.9,0.9c-0.2-0.4-0.4-0.7-0.7-1.1
						c-1.3-0.2-2.7-0.2-4-0.2c-0.2-0.4-0.4-0.9-0.5-1.3c-0.1,3,0,6,0.7,8.9h-5.1c-0.6-3-1.2-5.9-1.6-8.9c1.7,0,3.4,0.1,5.2,0
						c-0.4-3-1-5.9-1.2-8.9c2.6-2.4,4.8-5.2,7-7.9c0.3-0.3,0.5-0.6,0.8-0.9c3.2,0.7,6,2.5,9.2,2.8c-1.4-1.5-3.7-1.6-5.2-2.9
						c-2-1.9-4.5-3-6.1-5.3c-1.3,0.6-2.3,1.7-3.4,2.6c-1.1-1.8-2.6-3.4-4.3-4.7c-1-0.6-0.8-2.1-1.8-2.7c-0.8-0.7-1.7-1.2-2.3-2.1
						c-1.1-1.7-2.3-3.3-3.3-5.1c0.8-0.5,1.5-1.1,2.3-1.6c-0.9-1.4-2.3-2.4-3.2-3.8c-0.7,0-1.4,0-2.1,0c-1.3-2.6-2.7-5.2-3.8-7.9
						C135.3,226.2,134.3,224.1,133.5,221.9z M183.3,276.7c-0.9,0.2-0.9,1.8,0.1,1.8c0.5,0.2,1.4-0.2,1.4,0.6c-0.7,0.2-2.1-0.3-2,0.8
						c0.9-0.1,1.9,0.3,2.7-0.3c0.3-0.5,0.3-1.4-0.4-1.6c-0.5-0.2-1.4,0.2-1.5-0.5c0.8-0.1,2,0.3,2.1-0.8
						C184.9,276.6,184.1,276.6,183.3,276.7z M186.5,276.6c0.1,0.2,0.3,0.6,0.4,0.8c0.6,0,1.2,0,1.7,0c0,0.6-0.1,1.1-0.2,1.7
						c-0.7,0.1-1.8-0.1-2,0.9c0.9,0.1,2.2,0.2,2.8-0.7c0.3-0.8,0.2-1.8,0.2-2.6C188.5,276.6,187.5,276.6,186.5,276.6z M205.6,276.7
						c0,0.2-0.1,0.5-0.1,0.7c0.9-0.1,2.2,0.4,2.6-0.6C207.3,276.7,206.4,276.7,205.6,276.7z M205.4,278c0.1,0.2,0.2,0.5,0.3,0.6
						c0.7-0.1,2.1,0.5,2.2-0.6C207,277.9,206.2,277.9,205.4,278z"/>
				</g>
			</g>
			<g>
				<path class="st55" d="M215.7,222.8c2.5-1.1,5.1-1.7,7.6-2.7c0,0.2,0.1,0.6,0.2,0.8c-0.7,0.3-1.3,0.7-2,1
					c0.6,0.1,1.2,0.1,1.7,0.2c0.2,2.4,0,4.8-0.3,7.1c0.6,0.2,1.3,0.3,1.9,0.5c-2.8,1.3-5.7,2.2-8.6,3c-0.4-1.2,0-2.5-0.2-3.8
					C215.7,226.9,215.9,224.8,215.7,222.8z"/>
				<path class="st55" d="M220.8,278.6c0.4-0.2,1.1-0.2,1.4,0.3C222.1,279.7,220.3,279.4,220.8,278.6z"/>
			</g>
			<g>
				<path class="st56" d="M230.2,250c8.1-3.2,15.7-7.7,22.3-13.4c0.3,0.1,0.9,0.3,1.2,0.4c-0.1,0.6,0,1.4-0.6,1.7
					c-0.6,0.4-1.2,0.8-1.8,1.2c0,0.4,0.1,0.7,0.2,1.1c-1.1,0.1-1.6,1.3-2.2,2.1c-0.6,1.1-1.7,1.8-2.1,3c-1.3,0.5-2.3,1.5-3.2,2.6
					c-0.5-0.7-1-1.4-1.4-2.1c-0.7,0.7-1.6,1.3-2.4,1.9c-0.8,0.6-1.1,1.7-1.9,2.3c-1.7,0.3-3.2,1.2-4.3,2.4c0.9,0.9,1.7,1.8,2.6,2.7
					c-1.2,0.8-2.5,1.5-3.8,2c-0.3,0.6-0.7,1.2-1.4,1.4c-1.5,0.6-2.7,1.8-4.3,2c-0.1,0.2-0.2,0.3-0.4,0.5c-2.3,0.1-4,1.6-6.1,2.4
					c0.2,0.2,0.3,0.3,0.5,0.5c-2-0.3-3.5,1.3-5.4,1.7c-1.5,0.3-3.1,0.8-4.5,1.3c-0.9-1.5-1.2-3.2-1.6-4.9c-3.4,1.4-7.2,0.6-10.7,1.1
					c-1.3,0.6-2.1,2-3.2,2.8c-4-1.2-7.9-2.9-11.9-4.2c-1.4-0.6-3-0.9-4.2-1.7c-1.2-1.5-2.7-3-4.6-3.6c-1.7-0.5-3.1-1.7-4.6-2.5
					c0.4,1.1,0.9,2.2,1.4,3.3c-2.3-0.7-4.5-1.8-6.8-2.7c-0.8-0.3-1.3-0.9-1.9-1.4c-0.2,0.1-0.4,0.2-0.6,0.3
					c-0.8-0.9-1.5-1.8-2.6-2.3c-0.5-1.8-2.6-2.5-3.6-4c-1.2-1.8-3.1-3.1-4.5-4.8c-0.8-1.1-2-1.8-2.8-2.9c0.2-1,1.1-1.6,1.7-2.4
					c6.5,5.3,13.9,9.6,21.8,12.6c-0.6,0.3-1.1,0.7-1.7,1c1.1,0.2,2.5,0.2,3.2,1.2c1.6,2,3,4.2,4.7,6c0.6,0.1,1.2,0.1,1.8,0.2
					c0.6,1.1,2.1,1,3.1,1.7c1.6,1.1,3.9,2.3,5.8,1.3c0.6,0.5,1.2,0.9,2,0.9c2.1,0,4.1,0.8,6.1,0.5c2.1-0.6,3-3.1,5-3.9
					c2,0.3,4-0.1,5.9-0.8c0.4,1.5,0.9,2.9,1.5,4.3c1,0.1,2.2,0.3,3.1-0.4c1.5-1,3.2-1.5,4.9-1.5c0.2-0.3,0.3-0.9,0.8-0.9
					c1.4-0.4,2.9-0.7,4.3-1.3c0-0.3,0-0.6,0-0.9c1.3-0.5,2.6-1.1,3.9-1.7c1.3-0.7,2.5-1.6,3.9-2.1c-0.1-0.1-0.3-0.4-0.4-0.5
					c0.7,0,1.5-0.1,2.2-0.1C232.4,252,231.1,251.1,230.2,250z"/>
			</g>
			<g>
				<path class="st57" d="M275,237.4c1.7,0,3.4-0.4,5.1-0.1c3.9,0.6,7.9,0,11.9,0.4c3.1,0.4,6.2,0.3,9.2,0.1
					c2.1-0.1,4.2,0.5,6.2,0.9c0.1,0.2,0.3,0.6,0.4,0.8c-3.5,1.8-7.1,3.2-10.7,4.8c-0.4,0.2-1.2,0.5-1,1.1c0.3,1.6,0.4,3.3,1.2,4.7
					c1.5,0.3,3,0.4,4.5,0.5c0.1-0.3,0.2-0.9,0.3-1.2c0.5,3.3,1.1,6.5,1.5,9.8c0.2,0.9,0.2,2,1,2.5c1.3,1,2.6,2,3.7,3.3
					c-2.6-0.5-5.3-0.2-7.9-0.5c-0.8-0.1-1.1-1-1.7-1.4c-2.7-2.2-5.6-4.2-8.2-6.5c-0.8-0.7-1.6-1.4-2.6-1.7c-2.1,0.8-4.1,2.1-6.2,3
					c-1.7-0.2-3.3,0.1-5,0.3c-1.2,0.3-2.2-0.8-3.4-0.8c-0.7,0-1.3,0.4-1.9,0.7c-0.6-0.3-1.2-0.5-1.8-0.8c0.2-0.7,0.4-1.3,0.5-2
					c0.9-2.5,1-5.2,2.1-7.6c0,0.5,0,0.9,0,1.4c1.3-0.7,2.8-0.6,4.2-0.7c0.1-0.2,0.3-0.7,0.4-0.9c0.1,0.3,0.3,0.6,0.4,1
					c1-2.2,1.8-4.5,2-6.9C278,239.9,276.5,238.6,275,237.4z"/>
			</g>
			<g>
				<path class="st58" d="M93.8,239.6c1.9-0.5,3.8,0.5,5.7,0.1c1.6-0.1,3.7-0.8,5,0.5c1.7,1.5,4,1.7,6.1,2.4c3.1,1.1,6.3,1.9,9.3,3
					c0,0.1,0,0.2,0,0.3c-3,1.2-5.8,2.7-8.8,3.9c-1.1,0.5-2.3,0.9-3.2,1.7c0.1,1.4,0.3,2.9,0.9,4.2c1.3,1.3,3.3,0.7,4.9,1
					c0.1-0.5,0.1-0.9,0.2-1.4c0.3,1.4,0.4,2.8,0.7,4.2c0.4,2,0.5,4,0.8,6c0.3,1-0.7,1.8-1.6,1.9c-1.9,0.2-3.8-0.2-5.6,0.3
					c-1.9-1.8-4.2-3.2-6.2-4.9c-0.6-0.5-1.2-1-2-1.3c-1.4,0.3-2.5,1.1-3.8,1.7c-2.8,1.2-5.5,2.6-8.3,3.9c-0.9-0.2-1.7-0.4-2.6-0.3
					c-2.6,0.3-5.4,0.5-7.9-0.4c1.1-0.7,2.4-1.2,3.5-1.9c1-0.5,1-1.8,1.3-2.8c0.5-2.9,1.7-5.6,2-8.5c-1.4-0.4-2.7,0.1-4.1,0
					c-1.5,0-3,0-4.5,0c-1.7,0-3.4-0.5-5.2-0.4c-5.1,0.1-10.1-0.1-15.2,0.1c0.1,3.2,0.9,6.3,1.2,9.5c1.5,1.2,3.1,2.3,4.4,3.8
					c-3-0.1-5.9,0.6-8.9,0.5c-0.1-0.8-0.1-1.7-0.7-2.3c-1.5-1.4-3.3-2.4-4.9-3.7v-18.2c0.4-0.3,0.8-0.7,1.1-1
					c0.5,1.4,0.7,2.9,1.1,4.3c0.2,0.4,0.3,1,0.7,1.1c1.4,0.2,2.9,0.1,4.4,0c0-1.8-0.4-3.6-0.6-5.4c3.7-0.5,7.4-0.5,11.1-0.5
					c2.6,0.1,5.2-0.4,7.8-0.4c1.2,0.1,2.5-0.2,3.5,0.6c2.3,1.8,4.7,3.5,6.9,5.4c0.4,0.4,0.9,0.8,1.5,0.8c2.3,0.2,4.6,0.4,6.9,0.1
					c-0.3-0.3-0.6-0.7-0.9-1c-2.6-2-5-4.2-7.4-6.3C86,240.1,90,240.6,93.8,239.6z"/>
			</g>
			<g>
				<path class="st59" d="M315.5,242.1c0.9-0.5,1.8,0.1,2.6,0.3c2.7,1.1,5.6,1.7,8.3,2.8c1.9,0.8,4,1.3,6,1.9
					c0.4,1.5,0.7,3.1,0.9,4.7c0.2,2.1,0.8,4.2,1.2,6.3c-0.1,0.1-0.4,0.4-0.5,0.6c-1-0.7-2.2-0.5-3.3-0.5c-1.5,0-3-0.4-4.5-0.4
					c-6.8,0.1-13.6,0-20.4,0c-1.1-0.2-1.6,0.9-2.1,1.6c-0.4-3.3-0.9-6.6-1.5-9.8c-0.1-0.7-0.2-1.5,0.7-1.7
					C307.1,245.9,311.3,243.9,315.5,242.1z"/>
			</g>
			<g>
				<path class="st60" d="M337.1,242.8c2.4-0.2,4.9,0,7.3-0.1c2.7-0.1,5.4,0.8,8.1,0.3c1.2-0.3,2.3,0.4,3.3,0.9c0,3.7,0,7.5,0,11.2
					c-2.6-0.6-5.1-1.8-7.7-2.6c-2.1,2.3-3.9,4.8-6,7c-2.4,0.2-4.9-0.1-7.3-0.2c-0.1-0.5-0.3-0.9-0.4-1.4c-0.4-2.1-1-4.1-1.2-6.3
					c-0.2-1.6-0.5-3.1-0.9-4.7c-2-0.6-4-1.1-6-1.9c1.2-0.5,2.3,0.3,3.5,0.3c2.5,0.2,4.9-0.1,7.4-0.2
					C337.3,244.4,337.2,243.6,337.1,242.8z"/>
			</g>
			<g>
				<path class="st61" d="M127.1,248.7c1.6-0.8,3.3,0.3,4.9,0.7c2.8,1.1,5.8,1.5,8.4,3c1.2,0.7,2.9,0.5,4,1.6c0.2,2,0.9,4,0.9,6
					c-2.6-0.2-5.2-0.2-7.8,0.1c-3.2-0.4-6.4-0.1-9.7-0.2c-2.9-0.4-5.9-0.5-8.8-0.2c-1.5,0.2-3-0.2-4.6-0.2c-0.3-1.4-0.4-2.8-0.7-4.2
					c0-0.9,1-1.1,1.6-1.5C119.4,252.2,123.2,250.4,127.1,248.7z"/>
			</g>
			<g>
				<path class="st62" d="M172.5,250.4c18.4,7,39.4,6.9,57.7-0.3c0.9,1.1,2.2,2,2.5,3.4c-0.7,0.1-1.5,0.1-2.2,0.1
					c0.1,0.1,0.3,0.4,0.4,0.5c-1.4,0.5-2.6,1.3-3.9,2.1c-1.3,0.6-2.6,1.2-3.9,1.7c0,0.3,0,0.6,0,0.9c-1.4,0.6-2.8,0.9-4.3,1.3
					c-0.5,0.1-0.5,0.6-0.8,0.9c-1.8,0-3.5,0.5-4.9,1.5c-0.9,0.7-2,0.5-3.1,0.4c-0.6-1.4-1.1-2.8-1.5-4.3c-1.9,0.7-3.9,1.1-5.9,0.8
					c-2,0.8-2.9,3.3-5,3.9c-2.1,0.3-4.1-0.5-6.1-0.5c-0.8,0.1-1.4-0.4-2-0.9c-1.9,1-4.2-0.2-5.8-1.3c-0.9-0.7-2.4-0.5-3.1-1.7
					c-0.6-0.1-1.2-0.2-1.8-0.2c-1.8-1.8-3.2-4-4.7-6c-0.7-1.1-2.1-1-3.2-1.2C171.4,251.1,171.9,250.7,172.5,250.4z"/>
			</g>
			<g>
				<g>
					<path class="st63" d="M348.2,252.6c2.6,0.8,5,2,7.7,2.6c0,4.6,0,9.1,0,13.7c-0.4-0.4-0.7-0.8-1.1-1.1c-1.6-0.1-3.2-0.2-4.7,0
						c-2,1.1-4.3,0.6-6.5,0.6c-0.1-0.5-0.2-0.9-0.3-1.4c-0.4,0-0.8,0-1.2,0c0,0.4,0.1,0.8,0.1,1.2c-0.1,0.1-0.4,0.2-0.6,0.2
						c0.3,1.9,0.5,3.7,0.9,5.6c0.5,2.1,0.5,4.4,1.2,6.5c-1.7,0.2-4,0.9-5.4-0.4c-0.6-4.1-1.5-8.1-2.3-12.2
						c-3.3,3.6-6.3,7.5-9.5,11.2c0.3,0.3,0.6,0.5,0.9,0.8c-0.6,0.7-1.6,0.5-2.4,0.6c-2,0-4-0.4-5.8,0.5c-0.2-0.3-0.4-0.6-0.5-0.9
						c0.1-0.2,0.3-0.5,0.4-0.7c-0.9-1-1.9-1.8-3-2.5c-3.5-2.5-6.7-5.5-10.3-7.8c0.7,3.3,0.8,6.7,1.6,9.9c-0.2,0.4-0.4,0.7-0.6,1.1
						c-1,0-1.9,0.1-2.9,0.1c-0.3,0.3-0.6,0.7-1,1c-0.2-0.4-0.4-0.7-0.6-1.1c-0.5-2.7-1.1-5.3-1.5-8c-0.5-2.9-0.9-5.9-1.7-8.7
						c0.6,0.5,0.9,1.4,1.7,1.4c2.6,0.3,5.3,0,7.9,0.5c-1-1.3-2.4-2.2-3.7-3.3c-0.8-0.6-0.9-1.6-1-2.5c0.6-0.7,1.1-1.7,2.1-1.6
						c6.8,0,13.6,0,20.4,0c1.5,0,3,0.4,4.5,0.4c1.1,0,2.3-0.1,3.3,0.5c0.1-0.1,0.4-0.4,0.5-0.6c0.1,0.5,0.2,0.9,0.4,1.4
						c2.4,0.1,4.9,0.3,7.3,0.2C344.3,257.3,346.1,254.8,348.2,252.6z M312.8,267.7c0.1,0.1,0.2,0.4,0.2,0.6c1.2,1.1,2.6,2.1,3.8,3.2
						c1.5,1.5,3.4,2.6,4.9,4.1c1.5-1.1,2.3-2.7,3.5-4c1.1-1.4,2.4-2.7,3.3-4.3c-0.8-0.5-1.8-0.3-2.7-0.4c-3,0.1-5.9-0.1-8.9,0.1
						C315.9,268.1,314.2,267.5,312.8,267.7z"/>
				</g>
			</g>
			<g>
				<path class="st64" d="M55.1,252.9c5.1-0.1,10.1,0,15.2-0.1c1.7,0,3.4,0.4,5.2,0.4c1.5,0,3,0,4.5,0c1.4,0,2.8-0.4,4.1,0
					c-0.2,2.9-1.5,5.6-2,8.5c-0.3,1-0.2,2.3-1.3,2.8c-1.2,0.6-2.4,1.2-3.5,1.9c2.5,0.9,5.3,0.7,7.9,0.4c0.9-0.1,1.8,0.1,2.6,0.3
					c-0.9,0.5-2.1,1-2.2,2.2c-0.6,2.5-1.4,4.8-2.1,7.3c-1.8,0.6-3.7,0.5-5.6,0.3c0.5-1.7,0.9-3.5,1.2-5.3c-4,2-8,4-12.1,5.8
					c-3.1-2.5-6.1-5-9.4-7.3c0.2,1.7,0.5,3.3,0.8,5c-0.1,0.5-0.2,1-0.3,1.6c-1.6,0.2-3.1-0.1-4.7-0.3c-0.3-1.2-0.6-2.4-0.7-3.7
					c-0.3-2-0.9-4-1.1-6c3,0.2,5.9-0.5,8.9-0.5c-1.2-1.5-2.9-2.5-4.4-3.8C56,259.2,55.1,256.1,55.1,252.9z"/>
				<path class="st64" d="M206,268.6c1.4,0.1,2.9,0.5,4.1-0.5c0.6,1.3,0.7,2.8,1.1,4.1c5.1,1.4,10.1,3.3,15.1,5
					c0.6,0.2,1.2,0.4,1.8,0.1c3.4-1.4,6.7-3,9.9-4.6c1.4-0.7,2.9-1,4-2.1c0.1,0.3,0.2,0.7,0.3,1c1.2,0,2.4,0,3.5,0.1
					c0.6-0.1,0.7,0.6,1,1c0.1-0.5,0.1-1,0.2-1.5c0.3,1.1,0.3,2.3,0.2,3.4c-4.1,1.7-8.2,3.6-12.3,5.3c-1.3-0.3-2.7,0-4,0
					c-2.1,0.1-4.2-0.3-6.4-0.5c-0.1-0.2-0.2-0.4-0.4-0.6c-0.5,0.3-1,0.5-1.5,0.8c-0.1-0.8-0.1-1.7-0.1-2.5c-0.8-0.6-1.9-0.2-2.7-0.4
					c0,1.1,0,2.2,0,3.3c-0.2,0-0.6,0-0.8,0c-0.5-1-0.8-2.2-1.4-3.1c-0.3-0.1-0.6-0.2-0.9-0.2c-0.4,1-0.9,2-1.3,3
					c-0.1-0.2-0.2-0.7-0.3-0.9c-0.2-0.1-0.7-0.3-1-0.4c0-0.2,0-0.5,0-0.6c0.4-0.3,0.8-0.6,1.3-0.8c-1-0.1-1.9-0.2-2.9-0.1
					c-0.1,0.2-0.2,0.5-0.3,0.7c-0.2,0.1-0.6,0.2-0.8,0.2c0-0.2,0-0.7,0-0.9c-0.2,0-0.5-0.1-0.7-0.1c-0.1,0.4-0.1,0.9-0.2,1.3
					c-0.2,0-0.7,0-1,0c-0.1-0.4-0.2-0.8-0.3-1.2c-0.1-0.1-0.4-0.2-0.5-0.2c-0.7-0.3-1.5-0.6-2.2-0.9
					C206.3,273.4,205.6,271,206,268.6z"/>
			</g>
			<g>
				<path class="st65" d="M281.8,257.7c2.1-0.9,4-2.2,6.2-3c1,0.3,1.8,1.1,2.6,1.7c2.6,2.4,5.5,4.3,8.2,6.5c0.9,2.8,1.3,5.8,1.7,8.7
					c-3.8-0.4-7.6,0.6-11.5,0.4c-2.2,0-4.2-0.9-6.3-0.8c-3.5,0.1-7.1-0.2-10.6,0.2c-1,1.1-1.3,2.5-1.7,3.9c-0.1,0.4-0.3,0.9,0,1.2
					c0.8,0.9,1.9,1.6,2.9,2.3c-0.5,0.3-1.1,0.6-1.7,0.5c-1.9-0.2-3.8-0.5-5.7-0.2c-0.5-0.4-1.1-0.8-1.6-1.3
					c-0.1-1.1,0.5-2.2,0.8-3.2c0.4-1.6,0.6-3.2,1.1-4.8c0.9,1.1,2.4,0.1,3.5,0.3c0.6,0.2,1.1,0.5,1.6,0.7c1-2.2,1.4-4.6,2.2-6.9
					c0.4-1.1,0.3-2.7,1.6-3.2C277.4,259.8,279.7,259,281.8,257.7z"/>
			</g>
			<g>
				<path class="st66" d="M151.1,261c1.5-1.7,2.9-3.7,4.9-4.8c0.1,0.4,0.3,0.9,0.4,1.3c1.1,0.6,2.5,1.3,2.8,2.7
					c-2.2,2.7-4.4,5.5-7,7.9c-2.1,0.1-4.2,0.1-6.4,0c1.3-2.6-0.3-5.3-0.5-8c1.8,0.2,3.6,0.4,5.3-0.1
					C150.8,260.3,150.9,260.6,151.1,261z"/>
			</g>
			<g>
				<path class="st67" d="M241.7,259.4c1.2-0.6,2.2-1.5,3.3-2.4c0.9-0.2,1.6,0.7,2.4,1.2c3,1.9,5.4,4.6,8.3,6.6
					c3.9-1.8,7.6-3.9,11.4-5.7c1-0.5,2-0.9,2.7-1.8c0.6,0.2,1.2,0.5,1.8,0.8c0.6-0.3,1.2-0.7,1.9-0.7c1.2,0,2.1,1.1,3.4,0.8
					c1.6-0.2,3.3-0.5,5-0.3c-2.1,1.2-4.4,2.1-6.6,3.1c-1.3,0.5-1.2,2.1-1.6,3.2c-0.7,2.3-1.1,4.7-2.2,6.9c-0.5-0.3-1.1-0.6-1.6-0.7
					c-1.2-0.2-2.6,0.8-3.5-0.3c0.5-1.6,0.8-3.3,1.2-4.9c-3.5,1.5-6.9,3.1-10.2,4.9c-0.7,0.3-1.5,1-2.2,0.3c-3-2.1-5.7-4.7-8.9-6.6
					c0.3,2.5,0.7,5.1,1.2,7.6c-0.1,0.5-0.1,1-0.2,1.5c-0.3-0.4-0.4-1-1-1c-1.2-0.1-2.4-0.1-3.5-0.1c-0.1-0.3-0.2-0.7-0.3-1
					c-0.9-3-1.3-6.2-1.9-9.3c0.6-0.6,1.2-1.2,1.9-1.8C242,259.6,241.8,259.4,241.7,259.4z"/>
			</g>
			<g>
				<path class="st68" d="M114.5,259.4c1.5,0,3,0.4,4.6,0.2c2.9-0.3,5.9-0.2,8.8,0.2c3.2,0.1,6.4-0.1,9.7,0.2
					c2.6-0.3,5.2-0.3,7.8-0.1c0.2,2.7,1.7,5.4,0.5,8c2.1,0.1,4.2,0.1,6.4,0c0.2,3,0.8,5.9,1.2,8.9c-1.7,0.1-3.4,0.1-5.2,0
					c-0.1-0.9-0.3-1.8-0.5-2.7c-1.4,0.9-1.9,2.4-3.1,3.5c-2.3,2.6-4.7,5.3-6.8,8.1h-7.2c-4.2-3.7-8.9-6.8-13-10.6
					c-0.1-0.1-0.3-0.2-0.3-0.3c-0.2,0.9-0.3,1.8-0.3,2.7c-1.3,0.2-2.6,0.2-3.8-0.2c-1.1-0.6-1.1-2.1-1.4-3.2c-0.4-1.7-0.2-3.7-1.6-5
					c-0.7-0.6-1.4-1.2-2-1.8c1.9-0.5,3.8-0.1,5.6-0.3c0.9-0.1,1.9-0.9,1.6-1.9C115,263.4,114.9,261.4,114.5,259.4z"/>
			</g>
			<g>
				<path class="st69" d="M46.1,260.6c1.6,1.3,3.4,2.4,4.9,3.7c0.7,0.5,0.6,1.5,0.7,2.3c0.2,2,0.8,4,1.1,6c-0.3-0.3-0.5-0.5-0.8-0.8
					c-2.1,0.2-4-0.5-5.9-1.3V260.6z"/>
			</g>
			<g>
				<path class="st70" d="M246,263.6c3.1,1.9,5.8,4.5,8.9,6.6c0.7,0.6,1.5,0,2.2-0.3c3.4-1.7,6.8-3.4,10.2-4.9
					c-0.3,1.6-0.6,3.3-1.2,4.9c-0.5,1.6-0.7,3.2-1.1,4.8c-0.3-0.5-0.5-1.2-1.3-1.1c-5.2,0-10.5-0.6-15.7-0.3
					c-0.1,0.4-0.2,0.8-0.4,1.2l-0.3,0.1c0.1-1.1,0.1-2.3-0.2-3.4C246.7,268.7,246.4,266.2,246,263.6z"/>
			</g>
			<g>
				<path class="st71" d="M326.3,279c3.2-3.7,6.3-7.6,9.5-11.2c0.9,4,1.7,8.1,2.3,12.2c0.2,1.2,0.4,2.4,0.4,3.6
					c-2.2,0-4.4,0.3-6.6,0c-1.8-1-3.1-2.6-4.8-3.8C326.9,279.5,326.6,279.2,326.3,279z"/>
			</g>
			<g>
				<path class="st72" d="M305.5,268.9c3.6,2.4,6.8,5.3,10.3,7.8c1.1,0.7,2.1,1.6,3,2.5c-0.1,0.2-0.3,0.5-0.4,0.7
					c-1.2,1.5-2.4,3.1-3.7,4.5c-2.2,0-4.5,0-6.7,0c-0.6-1.8-0.6-3.7-0.9-5.6C306.3,275.5,306.2,272.2,305.5,268.9z"/>
				<path class="st72" d="M272.2,271.5c3.5-0.4,7.1-0.1,10.6-0.2c2.2-0.2,4.2,0.8,6.3,0.8c3.8,0.2,7.6-0.7,11.5-0.4
					c0.4,2.7,1,5.4,1.5,8c0,1.7,0.5,3.3,0.8,4.9c-2.6,0.2-5.2-0.1-7.8,0.2c-4.2,0.6-8.4-0.1-12.6,0.6c-1.1,0.3-2-0.6-2.8-1.3
					c-2-1.8-4.3-3.4-6.3-5.2c-1-0.8-2.1-1.4-2.9-2.3c-0.3-0.3-0.1-0.8,0-1.2C270.9,274.1,271.2,272.6,272.2,271.5z"/>
			</g>
			<g>
				<path class="st73" d="M57.7,270c3.2,2.3,6.3,4.8,9.4,7.3c4.1-1.8,8.1-3.8,12.1-5.8c-0.3,1.8-0.7,3.6-1.2,5.3
					c-0.6,2.3-1.3,4.6-1.7,6.9c-0.3,1.1,0.8,1.7,1.5,2.2H48.5c3.1-1.6,6.4-2.9,9.6-4.3c0.5-0.2,1.1-0.5,1-1.2c0-1.8-0.3-3.6-0.6-5.3
					C58.2,273.3,57.9,271.6,57.7,270z"/>
				<path class="st73" d="M144.6,277.8c1.1-1.1,1.7-2.7,3.1-3.5c0.2,0.9,0.4,1.8,0.5,2.7c0.5,3,1,5.9,1.6,8.9h-12.1
					C139.9,283.1,142.3,280.4,144.6,277.8z"/>
				<path class="st73" d="M154.3,277c0.2,0.4,0.4,0.9,0.5,1.3c1.3,0,2.7,0.1,4,0.2c0.2,0.4,0.4,0.7,0.7,1.1c0.9-0.4,1.9-0.9,2.9-0.9
					c4.7,0,9.5,0,14.2,0c0,0.2,0.1,0.5,0.1,0.7c0.4-0.2,0.8-0.4,1.2-0.6c0.1,0.2,0.2,0.5,0.3,0.7c0,0.1,0.1,0.3,0.1,0.3
					c0.2,0,0.5,0,0.6,0c1.8,0,3.5,0.8,5.3,0.4c-1.3,1.9-2.8,3.6-4.2,5.5H155C154.3,283,154.2,280,154.3,277z"/>
				<path class="st73" d="M199.8,277.1c0.6,0.9,0.9,1.9,1.2,2.8c0.2,0,0.7,0,0.9,0.1c0-0.6-0.1-1.2-0.1-1.8c0.5,0.2,0.9,0.4,1.4,0.6
					c-0.2-0.3-0.5-0.9-0.6-1.2c0.1,0,0.3,0.2,0.4,0.2c0.2,0.1,0.6,0.3,0.8,0.4c0,0.6,0.1,1.2,0.1,1.8c0.2,0,0.6-0.1,0.8-0.1
					c0-0.5,0-1.1,0-1.6c0.3,0.5,0.6,1.1,0.8,1.6c0.9,0,1.9,0,2.8,0c0.2,0,0.5,0,0.6,0c0.2,0,0.6,0,0.8,0c0-0.3,0-0.9,0-1.2
					c0.4-0.1,0.8-0.1,1.2-0.2c0,0.5,0,1,0,1.5c1.3,0,0.6-1.5,0.8-2.3c0.2-0.1,0.6-0.2,0.8-0.2c0.3,0,0.8,0,1.1,0c0,0.9,0,1.8,0,2.6
					c1.1,0,0.7-1.1,0.8-1.8c0.2,0.1,0.7,0.3,1,0.4c0.1,0.2,0.2,0.7,0.3,0.9l0.1,0.4c0.4-0.2,0.8-0.5,1.1-0.9
					c0.8,0.2,1.6,0.5,2.4,0.8c0.5,0.2,1,0.4,1.5,0.5c-3.5,2-7.4,3.4-10.9,5.3h-22.7c1.3-2.1,3.4-3.6,4.4-5.9
					c0.1-0.2,0.2-0.6,0.3-0.8c0.4,0.1,0.8,0.1,1.2,0.2c0.1,0.1,0.2,0.3,0.3,0.4c0.1,0.1,0.3,0.4,0.4,0.5c0.5-0.1,1-0.1,1.5-0.2
					c1-0.1,2.2,0,2.9-0.9C198.8,278.6,199.3,277.9,199.8,277.1z"/>
			</g>
			<g>
				<path class="st74" d="M46.1,270.5c1.9,0.8,3.8,1.5,5.9,1.3c0.3,0.2,0.5,0.5,0.8,0.8c0.1,1.2,0.4,2.5,0.7,3.7
					c-0.1,0.6,0.1,1.4-0.5,1.7c-2.2,1.3-4.6,2.1-6.9,3.2V270.5z"/>
				<path class="st74" d="M248.1,273.3c5.2-0.3,10.5,0.3,15.7,0.3c0.7-0.1,1,0.6,1.3,1.1c-0.3,1.1-0.8,2.1-0.8,3.2
					c0.5,0.5,1.1,0.9,1.6,1.3c2.6,2.3,5.5,4.3,8.1,6.6h-22.6c-0.6-0.4-1.2-0.8-1.9-1c-3.3-1.1-6.7-2.1-10-3.4
					c-1.5-0.5-3-0.8-4.5-1.5c4.1-1.8,8.2-3.6,12.3-5.3l0.3-0.1C247.9,274.1,248,273.7,248.1,273.3z"/>
			</g>
			<g>
				<path class="st75" d="M342.4,273.9c3.9,0.2,7.8,0,11.8,0.1c0.8-0.1,1.2,0.7,1.8,1.2c0,2.6,0,5.2,0,7.7c-4-0.2-8,0.7-12.1,0.3
					c-0.1-0.9-0.1-1.9-0.3-2.8C342.9,278.3,342.9,276,342.4,273.9z"/>
			</g>
			<g>
				<path class="st76" d="M58.5,275c0.3,1.8,0.6,3.5,0.6,5.3c0.1,0.7-0.5,1-1,1.2c-3.2,1.5-6.5,2.7-9.6,4.3h-2.4v-4.7
					c2.3-1.1,4.8-1.9,6.9-3.2c0.6-0.3,0.4-1.1,0.5-1.7c1.5,0.2,3.1,0.5,4.7,0.3C58.3,276,58.4,275.5,58.5,275z"/>
			</g>
			<g>
				<path class="st77" d="M118.8,285.9c-0.5-3.5-1.2-7-1.2-10.6c4.1,3.8,8.8,6.9,13,10.6H118.8z"/>
				<path class="st77" d="M227.9,283.4c0.9-0.3,1.9,0.1,2.7,0.3c2,0.7,4,1.3,5.9,2.1h-14.1C224.2,285,226,284.1,227.9,283.4z"/>
			</g>
			<g>
				<g>
					<path class="st78" d="M179.5,276.6c0.2,0,0.7,0.1,0.9,0.1c0.5,1.1,1,2.2,1.4,3.4c-0.8-0.4-1.6-0.7-2.5-0.9
						c-0.1,0.2-0.3,0.6-0.5,0.8c-0.2,0-0.5,0-0.6,0c0-0.1-0.1-0.3-0.1-0.3C178.6,278.6,179.1,277.6,179.5,276.6z M179.9,278.2"/>
				</g>
				<path class="st78" d="M183.3,276.7c0.8-0.1,1.6-0.1,2.4-0.1c-0.1,1.1-1.4,0.7-2.1,0.8c0.2,0.7,1,0.4,1.5,0.5
					c0.7,0.2,0.7,1.1,0.4,1.6c-0.8,0.6-1.8,0.3-2.7,0.3c-0.1-1.1,1.3-0.7,2-0.8c0-0.7-0.9-0.4-1.4-0.6
					C182.4,278.5,182.4,276.9,183.3,276.7z"/>
				<path class="st78" d="M205.6,276.7c0.8,0,1.7,0,2.5,0c-0.5,1-1.7,0.6-2.6,0.6C205.5,277.2,205.5,276.9,205.6,276.7z"/>
				<path class="st78" d="M212.7,276.7c1-0.1,1.9,0,2.9,0.1c-0.4,0.3-0.9,0.5-1.3,0.8c0,0.2,0,0.5,0,0.6c-0.1,0.7,0.3,1.8-0.8,1.8
					c0-0.9,0-1.8,0-2.6c-0.3,0-0.8,0-1.1,0C212.5,277.3,212.6,276.9,212.7,276.7z"/>
			</g>
			<g>
				<path class="st79" d="M186.5,276.6c1,0,2,0,3,0c0,0.9,0.1,1.8-0.2,2.6c-0.6,0.9-1.9,0.7-2.8,0.7c0.2-1,1.3-0.7,2-0.9
					c0.1-0.6,0.2-1.1,0.2-1.7c-0.6,0-1.2,0-1.7,0C186.8,277.2,186.6,276.8,186.5,276.6z"/>
			</g>
			<g>
				<g>
					<path class="st80" d="M191.9,276.6c0.4,0.1,1-0.1,1.2,0.4c0.5,0.9,0.9,2,1.3,2.9c-0.3,0-0.8-0.1-1-0.2
						c-0.1-0.1-0.2-0.3-0.3-0.4c-0.4-0.1-0.8-0.2-1.2-0.2c-0.1,0.2-0.2,0.6-0.3,0.8c-0.2,0-0.7,0-1,0
						C191,278.9,191.5,277.8,191.9,276.6z M192.2,278.1c-0.2,0.6,0,0.8,0.6,0.6C193,278.1,192.8,277.9,192.2,278.1z"/>
				</g>
			</g>
			<g>
				<g>
					<path class="st81" d="M195.2,276.6c0.7,0.1,1.5,0,2.2,0.3c0.9,0.4,0.7,1.6,0.7,2.4c-0.8,0.8-1.9,0.7-2.9,0.9
						C194.9,278.9,195.7,277.7,195.2,276.6z M196,279.3c1.5,0.5,1.8-1.9,0.3-2C196.2,277.9,196,278.6,196,279.3z"/>
				</g>
			</g>
			<g>
				<path class="st82" d="M201.1,276.6c0.2,0,0.6,0.1,0.8,0.2c0.2,0.3,0.4,0.5,0.7,0.8c0.2,0.3,0.5,0.9,0.6,1.2
					c-0.5-0.2-0.9-0.4-1.4-0.6c0,0.6,0.1,1.2,0.1,1.8c-0.2,0-0.7,0-0.9-0.1C201,278.8,201,277.7,201.1,276.6z"/>
			</g>
			<g>
				<path class="st83" d="M203.8,276.7c0.2,0,0.6,0,0.8,0c0,0.5,0,1,0,1.5c0,0.5,0,1.1,0,1.6c-0.2,0-0.6,0.1-0.8,0.1
					c0-0.6,0-1.2-0.1-1.8c-0.2-0.1-0.6-0.3-0.8-0.4C203.2,277.4,203.5,277.1,203.8,276.7z"/>
				<path class="st83" d="M205.4,278c0.8,0,1.6,0,2.5,0c-0.1,1.1-1.5,0.5-2.2,0.6C205.6,278.4,205.4,278.1,205.4,278z"/>
			</g>
			<g>
				<path class="st84" d="M208.9,276.6c0.1,0.1,0.4,0.2,0.5,0.2c0.1,0.4,0.2,0.8,0.3,1.2c0.2,0,0.7,0,1,0c0.1-0.4,0.1-0.9,0.2-1.3
					c0.2,0,0.5,0.1,0.7,0.1c0,0.2,0,0.7,0,0.9c-0.2,0.8,0.5,2.3-0.8,2.3c0-0.5,0-1,0-1.5c-0.4,0.1-0.8,0.1-1.2,0.2
					c0,0.3,0,0.9,0,1.2c-0.2,0-0.6,0-0.8,0C208.8,278.8,208.9,277.7,208.9,276.6z"/>
				<g>
					<path class="st84" d="M216.9,276.7c0.3,0.1,0.6,0.1,0.9,0.2c0.6,1,0.9,2.1,1.4,3.1c-0.8-0.3-1.6-0.6-2.4-0.8
						c-0.3,0.4-0.7,0.7-1.1,0.9l-0.1-0.4C216,278.7,216.5,277.7,216.9,276.7z M217.1,278.1c-0.2,0.6,0,0.8,0.6,0.7
						C217.9,278.1,217.7,277.9,217.1,278.1z"/>
				</g>
				<g>
					<path class="st84" d="M220,276.7c0.9,0.1,2-0.2,2.7,0.4c0,0.8,0,1.7,0.1,2.5c-0.9,0.4-1.9,0.3-2.9,0.4
						C220,278.9,220,277.8,220,276.7z M220.7,277.3c-0.3,1.2,1.7,1,1.5,0C221.7,277.3,221.2,277.3,220.7,277.3z M220.8,278.6
						c-0.4,0.8,1.3,1.1,1.4,0.3C221.9,278.4,221.2,278.4,220.8,278.6z"/>
				</g>
			</g>
			<g>
				<path class="st85" d="M83.3,278.1c0.3-0.9,1.4-0.9,2.1-0.9c2.2,0.1,4.5,0,6.7,0.1c1.1,0,1.9,0.8,3,0.8c2,0,4.1,0,6.1-0.2
					c1.1-0.2,2.1,0.8,3.2,0.6c2.3-0.2,4.5-0.5,6.8-0.5c0.1-0.2,0.4-0.7,0.5-0.9c1.3,2.8,1.2,5.9,2.1,8.8H85.3
					c-1.1-0.9-2.4-1.7-3.1-3C82.2,281.2,82.9,279.7,83.3,278.1z"/>
			</g>
			<g>
				<path class="st86" d="M220.7,277.3c0.5,0,1,0,1.5,0C222.4,278.4,220.3,278.6,220.7,277.3z"/>
			</g>
			<g>
				<path class="st87" d="M196,279.3c0.1-0.7,0.2-1.3,0.3-2C197.8,277.3,197.5,279.8,196,279.3z"/>
			</g>
			<g>
				<path class="st88" d="M179.9,278.2"/>
			</g>
			<g>
				<path class="st89" d="M192.2,278.1c0.6-0.2,0.8,0,0.6,0.6C192.2,278.9,192,278.7,192.2,278.1z"/>
			</g>
			<g>
				<path class="st90" d="M217.1,278.1c0.6-0.2,0.8,0.1,0.6,0.7C217,278.9,216.9,278.7,217.1,278.1z"/>
			</g>
			<g>
				<path class="st91" d="M222.9,279.6c0.5-0.3,1-0.5,1.5-0.8c0.1,0.2,0.2,0.4,0.4,0.6c2.1,0.2,4.2,0.6,6.4,0.5c1.3,0,2.7-0.2,4,0
					c1.4,0.7,3,1,4.5,1.5c3.3,1.3,6.6,2.3,10,3.4c0.7,0.2,1.3,0.6,1.9,1h-14.9c-1.9-0.8-3.9-1.4-5.9-2.1c-0.9-0.3-1.8-0.7-2.7-0.3
					c-1.9,0.7-3.7,1.5-5.5,2.4h-12.6c3.5-2,7.4-3.4,10.9-5.3c-0.5-0.2-1-0.4-1.5-0.5c0.2,0,0.6,0,0.8,0
					C221,279.9,222,280.1,222.9,279.6z"/>
			</g>
			<g>
				<path class="st92" d="M273.3,279c2,1.9,4.3,3.4,6.3,5.2c0.8,0.7,1.6,1.5,2.8,1.3c4.2-0.7,8.4,0,12.6-0.6
					c2.6-0.3,5.2,0.1,7.8-0.2c-0.3-1.6-0.8-3.2-0.8-4.9c0.2,0.4,0.4,0.7,0.6,1.1c0.3-0.3,0.6-0.7,1-1c1,0,1.9-0.1,2.9-0.1
					c0.2-0.4,0.4-0.7,0.6-1.1c0.4,1.9,0.3,3.8,0.9,5.6c2.2,0.1,4.5,0,6.7,0c1.3-1.4,2.5-3,3.7-4.5c0.2,0.3,0.3,0.6,0.5,0.9
					c1.8-0.9,3.9-0.5,5.8-0.5c0.8,0,1.8,0.2,2.4-0.6c1.7,1.2,3,2.8,4.8,3.8c2.2,0.3,4.4,0.1,6.6,0c0-1.2-0.1-2.4-0.4-3.6
					c1.4,1.3,3.6,0.7,5.4,0.4c0.2,0.9,0.2,1.9,0.3,2.8c4,0.3,8-0.6,12.1-0.3c0,1,0,2,0,3H274c-2.6-2.3-5.5-4.3-8.1-6.6
					c1.9-0.2,3.8,0,5.7,0.2C272.2,279.6,272.8,279.3,273.3,279z"/>
			</g>
			<g>
				<path class="st93" d="M205.4,279.9c0-1.2,1.5-0.6,2.3-0.8c0.1,0.2,0.4,0.5,0.5,0.7C207.3,279.9,206.4,279.9,205.4,279.9z"/>
			</g>
		</g>
	</g>
</g>
<g>
	<path class="st15" d="M96.6,299.3c-0.2,1-0.6,1.8-1.2,2.5c-0.6,0.7-1.3,1.2-2.1,1.5c-0.9,0.3-1.9,0.5-3.2,0.5c-0.5,0-1,0-1.5-0.1
		s-1-0.2-1.4-0.4v-4c0.3,0.2,0.5,0.3,0.9,0.3c0.3,0.1,0.7,0.1,1,0.1c0.5,0,0.9-0.3,1.1-1c0.2-0.6,0.3-1.6,0.3-2.9v-12.8H97v7.2
		c0,0.4,0.1,0.6,0.2,0.8c0.1,0.2,0.3,0.4,0.5,0.5c0.2,0.1,0.5,0.2,0.7,0.2c0.3,0,0.6,0.1,0.9,0.1h1c0.2,0,0.3,0,0.5,0.1
		c0.1,0,0.2,0.2,0.2,0.4v3.7c0,0.2-0.2,0.3-0.7,0.3h-0.7c-0.6,0-1.1-0.2-1.5-0.5s-0.7-0.8-1-1.4H97v1.5
		C97,297.2,96.9,298.3,96.6,299.3z"/>
	<path class="st15" d="M99.6,296v-3.7c0-0.2,0.1-0.3,0.2-0.4c0.1,0,0.3-0.1,0.5-0.1h4.6v-8.8h6.5v13.3h-11.1
		C99.8,296.4,99.6,296.3,99.6,296z M111.5,299.3v3.7h-5.8v-3.7H111.5z"/>
	<path class="st15" d="M123.2,292c0.1,0,0.2,0.2,0.2,0.4v3.7c0,0.2-0.2,0.3-0.7,0.3h-8.1v-22.3h6.5v17.8h1.5
		C122.9,291.9,123,291.9,123.2,292z"/>
	<path class="st15" d="M145.1,292c0.1,0,0.2,0.2,0.2,0.4v3.7c0,0.2-0.2,0.3-0.7,0.3h-21.9c-0.4,0-0.7-0.1-0.7-0.3v-3.7
		c0-0.2,0.1-0.3,0.2-0.4c0.1,0,0.3-0.1,0.5-0.1h2.9v-0.1c-0.8-1-1.2-2-1.2-3.1c0-1.3,0.2-2.4,0.7-3.4c0.5-1,1.1-1.8,1.9-2.4
		c0.8-0.6,1.8-1.1,2.9-1.4c1.1-0.3,2.3-0.5,3.6-0.5c1.3,0,2.5,0.1,3.6,0.4c1.1,0.3,2.1,0.7,2.9,1.4c0.8,0.6,1.5,1.4,2,2.4
		c0.5,1,0.7,2.1,0.7,3.5c0,1.1-0.4,2.1-1.2,3.1v0.1h3.1C144.8,291.9,145,291.9,145.1,292z M132.5,274.1v3.7h-5v-3.7H132.5z
		 M131,290.1c0.1,0.4,0.2,0.8,0.4,1.1s0.5,0.6,0.8,0.7c0.3,0.2,0.7,0.3,1.2,0.3c0.5,0,0.9-0.1,1.2-0.3c0.3-0.2,0.6-0.4,0.8-0.7
		c0.2-0.3,0.4-0.7,0.4-1.1c0.1-0.4,0.1-0.8,0.1-1.3c0-0.5,0-0.9-0.1-1.3c-0.1-0.4-0.2-0.8-0.4-1.1s-0.5-0.6-0.8-0.7
		c-0.3-0.2-0.7-0.3-1.2-0.3c-0.5,0-0.9,0.1-1.2,0.3c-0.3,0.2-0.6,0.4-0.8,0.7s-0.4,0.7-0.4,1.1s-0.1,0.9-0.1,1.3
		C130.9,289.2,130.9,289.7,131,290.1z M138.9,274.1v3.7h-5v-3.7H138.9z"/>
	<path class="st15" d="M152.3,296.6c-1.4-0.5-2.5-1.2-3.3-2.2c-0.3,0.6-0.7,1.1-1.3,1.5c-0.6,0.3-1.2,0.5-1.9,0.5h-1.1
		c-0.4,0-0.7-0.1-0.7-0.3v-3.7c0-0.2,0.1-0.3,0.2-0.4c0.1,0,0.3-0.1,0.5-0.1h0.9c0.3,0,0.5,0,0.7-0.1c0.2-0.1,0.4-0.2,0.6-0.3
		s0.3-0.4,0.4-0.7c0.1-0.3,0.1-0.7,0.1-1.2c0-1.4,0.2-2.5,0.7-3.5c0.5-1,1.1-1.8,2-2.4c0.8-0.6,1.8-1.1,2.9-1.4s2.3-0.4,3.6-0.4
		c1.3,0,2.5,0.1,3.6,0.4s2.1,0.7,2.9,1.4s1.5,1.4,2,2.4c0.5,1,0.7,2.1,0.7,3.5c0,0.5,0,0.9,0.1,1.2c0.1,0.3,0.2,0.5,0.4,0.7
		s0.4,0.3,0.6,0.3c0.2,0.1,0.5,0.1,0.7,0.1h0.9c0.2,0,0.3,0,0.5,0.1c0.1,0,0.2,0.2,0.2,0.4v3.7c0,0.2-0.2,0.3-0.7,0.3h-1.1
		c-0.7,0-1.3-0.2-1.9-0.5c-0.6-0.3-1.1-0.8-1.3-1.5c-0.9,1-2,1.7-3.3,2.2c-1.3,0.5-2.8,0.7-4.4,0.7
		C155.2,297.3,153.7,297.1,152.3,296.6z M157.9,292.8c0.3-0.2,0.6-0.4,0.8-0.7c0.2-0.3,0.4-0.7,0.4-1.1c0.1-0.4,0.1-0.8,0.1-1.3
		c0-0.5,0-0.9-0.1-1.3c-0.1-0.4-0.2-0.8-0.4-1.1c-0.2-0.3-0.5-0.6-0.8-0.7s-0.7-0.3-1.2-0.3c-0.5,0-0.9,0.1-1.2,0.3
		c-0.3,0.2-0.6,0.4-0.8,0.7c-0.2,0.3-0.4,0.7-0.4,1.1s-0.1,0.9-0.1,1.3c0,0.5,0,0.9,0.1,1.3c0.1,0.4,0.2,0.8,0.4,1.1
		c0.2,0.3,0.5,0.6,0.8,0.7c0.3,0.2,0.7,0.3,1.2,0.3C157.2,293.1,157.6,293,157.9,292.8z"/>
	<path class="st15" d="M168.1,296v-3.7c0-0.2,0.1-0.3,0.2-0.4c0.1,0,0.3-0.1,0.5-0.1h1.7c0.4,0,0.8-0.1,1.2-0.4
		c0.4-0.3,0.5-0.8,0.5-1.5v-15.9h6.5v15.8c0,0.8,0.1,1.3,0.4,1.6c0.3,0.3,0.7,0.5,1.2,0.5h1.6c0.2,0,0.3,0,0.5,0.1
		c0.1,0,0.2,0.2,0.2,0.4v3.7c0,0.2-0.2,0.3-0.7,0.3h-1.6c-0.8,0-1.5-0.2-2-0.6c-0.6-0.4-1-0.9-1.4-1.6c-0.4,0.4-0.8,0.8-1.3,1.1
		c-0.5,0.3-1,0.5-1.5,0.7c-0.5,0.2-1,0.3-1.5,0.3c-0.5,0.1-1,0.1-1.5,0.1h-2.3C168.4,296.4,168.1,296.3,168.1,296z"/>
	<path class="st15" d="M185.5,274.1h6.5v22.3h-10c-0.4,0-0.7-0.1-0.7-0.3v-3.7c0-0.2,0.1-0.3,0.2-0.4c0.1,0,0.3-0.1,0.5-0.1h3.5
		V274.1z"/>
	<path class="st15" d="M216.2,300.5c0.7-0.1,1.4-0.2,1.9-0.5c0.5-0.2,1-0.5,1.3-0.9s0.5-0.9,0.5-1.5c0-0.3-0.1-0.6-0.2-0.8
		c-0.1-0.2-0.4-0.4-0.7-0.6c-0.3-0.2-0.7-0.3-1.2-0.5s-1.1-0.4-1.8-0.7c-0.9-0.3-1.7-0.8-2.4-1.3c-0.8-0.5-1.4-1.1-2-1.7
		c-0.6-0.6-1-1.3-1.4-2c-0.3-0.7-0.5-1.4-0.5-2.2c0-2.1,0.7-3.8,2.2-5s3.5-1.9,6.1-1.9c1,0,1.9,0.1,2.8,0.4c0.9,0.3,1.7,0.7,2.4,1.3
		c0.7,0.6,1.2,1.2,1.7,2c0.4,0.8,0.7,1.7,0.7,2.8h-5.3c-0.2-1.5-1-2.3-2.2-2.3c-0.5,0-0.9,0.2-1.3,0.7c-0.4,0.5-0.6,1.1-0.6,2
		c0,0.2,0.1,0.5,0.2,0.7c0.1,0.3,0.3,0.5,0.6,0.8c0.3,0.3,0.7,0.6,1.2,0.9c0.5,0.3,1.2,0.6,2,0.8c1.1,0.4,2.1,0.8,2.9,1.2
		c0.8,0.4,1.4,0.9,1.9,1.5s0.8,1.1,1,1.7s0.3,1.3,0.3,2c0,2.3-1,4.2-3.1,5.5s-5.2,2-9.3,2c-2.5,0-4.5-0.3-6.1-0.9
		c-1.6-0.6-2.9-1.4-3.8-2.5c-0.9-1.1-1.6-2.4-2-3.9s-0.6-3.2-0.6-5.1h5.1c0,1.4,0.2,2.6,0.4,3.6c0.2,1,0.6,1.8,1.2,2.5
		c0.6,0.6,1.3,1.1,2.3,1.4c0.9,0.3,2.1,0.5,3.6,0.5C214.7,300.6,215.5,300.6,216.2,300.5z"/>
	<path class="st15" d="M227.3,291.9h7.5v-2c0-1.4-0.2-2.4-0.7-3.1c-0.4-0.7-1.2-1-2.2-1h-3.2v-4.2h3.2c1.2,0,2.4,0.1,3.5,0.4
		c1.1,0.3,2.1,0.7,3,1.4c0.9,0.6,1.6,1.5,2.1,2.5c0.5,1,0.8,2.3,0.8,3.8v6.7h-14V291.9z"/>
	<path class="st15" d="M261.1,291.2c0,0.2,0,0.5,0,0.7h2.7c0.2,0,0.3,0,0.5,0.1c0.1,0,0.2,0.2,0.2,0.4v3.7c0,0.2-0.2,0.3-0.7,0.3
		h-3.3c-0.6,2.5-1.7,4.4-3.4,5.6c-1.6,1.2-3.9,1.8-6.8,1.8c-0.4,0-0.9,0-1.2-0.1c-0.4-0.1-0.8-0.1-1.1-0.2c-0.4-0.1-0.7-0.2-1-0.3
		v-4.1c0.2,0.1,0.4,0.1,0.7,0.2c0.3,0.1,0.5,0.1,0.8,0.2c0.3,0,0.5,0.1,0.8,0.1c0.2,0,0.5,0,0.7,0c1.3,0,2.3-0.3,3-0.8
		s1.2-1.4,1.4-2.6h-2.8c-1,0-2-0.2-3-0.5c-1-0.3-1.8-0.8-2.5-1.4s-1.3-1.4-1.7-2.2s-0.6-1.9-0.6-3c0-1.2,0.2-2.3,0.5-3.3
		c0.3-1,0.8-1.9,1.5-2.6c0.7-0.7,1.6-1.3,2.7-1.7c1.1-0.4,2.5-0.6,4-0.6c1.6,0,2.9,0.2,4,0.6c1.1,0.4,2,0.9,2.7,1.7
		c0.7,0.8,1.2,1.8,1.5,2.9c0.3,1.2,0.5,2.6,0.5,4.2V291.2z M250.2,290.3c0.1,0.3,0.2,0.6,0.3,0.9c0.2,0.2,0.4,0.4,0.7,0.5
		s0.7,0.2,1.2,0.2h2.3v-1.5c0-0.7,0-1.4-0.1-2.1s-0.2-1.2-0.3-1.6s-0.4-0.8-0.7-1s-0.7-0.4-1.1-0.4c-0.4,0-0.8,0.1-1.1,0.4
		s-0.5,0.5-0.7,0.9c-0.2,0.4-0.3,0.8-0.4,1.2c-0.1,0.5-0.1,0.9-0.1,1.3C250.1,289.6,250.2,290,250.2,290.3z"/>
	<path class="st15" d="M263.2,296v-3.7c0-0.2,0.1-0.3,0.2-0.4c0.1,0,0.3-0.1,0.5-0.1h3.9c0.4,0,0.8-0.1,1.2-0.4
		c0.4-0.3,0.5-0.8,0.5-1.5v-6.9h6.5v6.7c0,0.8,0.1,1.3,0.4,1.6c0.3,0.3,0.7,0.5,1.2,0.5h1.7c0.2,0,0.3,0,0.5,0.1
		c0.1,0,0.2,0.2,0.2,0.4v3.7c0,0.2-0.2,0.3-0.7,0.3h-1.7c-0.8,0-1.5-0.2-2-0.6s-1-0.9-1.4-1.6c-0.4,0.4-0.8,0.8-1.3,1.1
		c-0.5,0.3-1,0.5-1.5,0.7c-0.5,0.2-1,0.3-1.5,0.3s-1,0.1-1.5,0.1h-4.5C263.4,296.4,263.2,296.3,263.2,296z M276.1,299.3v3.7h-5.8
		v-3.7H276.1z"/>
	<path class="st15" d="M278.6,296v-3.7c0-0.2,0.1-0.3,0.2-0.4c0.1,0,0.3-0.1,0.5-0.1h1.7c0.4,0,0.8-0.1,1.2-0.4
		c0.4-0.3,0.5-0.8,0.5-1.5v-15.9h6.5v15.8c0,0.8,0.1,1.3,0.4,1.6c0.3,0.3,0.7,0.5,1.2,0.5h1.6c0.2,0,0.3,0,0.5,0.1
		c0.1,0,0.2,0.2,0.2,0.4v3.7c0,0.2-0.2,0.3-0.7,0.3h-1.6c-0.8,0-1.5-0.2-2-0.6c-0.6-0.4-1-0.9-1.4-1.6c-0.4,0.4-0.8,0.8-1.3,1.1
		c-0.5,0.3-1,0.5-1.5,0.7c-0.5,0.2-1,0.3-1.5,0.3c-0.5,0.1-1,0.1-1.5,0.1h-2.3C278.8,296.4,278.6,296.3,278.6,296z"/>
	<path class="st15" d="M295.9,274.1h6.5v22.3h-10c-0.4,0-0.7-0.1-0.7-0.3v-3.7c0-0.2,0.1-0.3,0.2-0.4c0.1,0,0.3-0.1,0.5-0.1h3.5
		V274.1z"/>
	<path class="st15" d="M305.6,274.1h6.5v22.3h-6.5V274.1z"/>
</g>
</svg>
